{
.appVersion = "3185";
DisplayStrings = (
"/A_E/Eacute_E/I_E/a_e/a_o/a_u_l_a/c_h/c_q/d_e/d_u_d_e_l_a/e_a/e_s/e_t/e_u/eacute_e/f_f_e/f_v/h_o_f/i_e/l_e/l_l/l_u/n_e/n_n/n_n_e/o_idieresis/o_t/p_m/r_e/r_i/r_s/u_l \012\012LA..E\012ClONCERNÉ..E\012AMI..E\012la..e/space ma..on\012à/space la..au\012blanc..hes\012turc..ques\012grand..es\012du..de/space la\012belle..au\012maître..sses\012ce..tte\012celle..ux\012aimé..es\012chef..fes\012vif..ves\012long..ues\012ho..femme\012ami..es\012principal..es\012gentil..les\012ell..ui\012un..es\012pharmacien..nes\012héro..ïnes\012rigolo..tes\012p..mère\012docteur..es\012auteur..ices\012coiffeur..ses\012tiers..ces\012mis..es\012fils..les\012gros..ses\012tous..tes\012vieillot..tes\012perdu..es\012mou..lles\012doux..ces\012heureux..ses"
);
classes = (
{
code = "colon exclam period question semicolon quotedblleft quotedblright quoteleft quoteright questiondown exclamdown periodcentered ellipsis comma divide";
name = circular_punctuation;
},
{
code = "colon.ss01 exclam.ss01 period.ss01 question.ss01 semicolon.ss01 quotedblleft.ss01 quotedblright.ss01 quoteleft.ss01 quoteright.ss01 questiondown.ss01 exclamdown.ss01 periodcentered.ss01 ellipsis.ss01 comma.ss01 divide.ss01";
name = square_punctuation;
},
{
code = "a aacute abreve acircumflex adieresis agrave amacron aogonek aring atilde ";
disabled = 1;
name = single_storey_a;
},
{
code = "a.ss02 aacute.ss02 abreve.ss02 acircumflex.ss02 adieresis.ss02 agrave.ss02 amacron.ss02 aogonek.ss02 aring.ss02 atilde.ss02 ";
disabled = 1;
name = double_storey_a;
},
{

glyphs = (
{
glyphname = A;
lastChange = "2022-04-10 16:49:39 +0000";
layers = (
{
anchors = (
{
name = ogonek;
position = "{616, 0}";
},
{
name = top;
position = "{424, 696}";
}
);
layerId = "ED744E86-D388-498D-94EB-FEBBBDC8F1CA";
paths = (
{
closed = 1;
nodes = (
"358 696 LINE",
"-14 0 LINE",
"105 0 LINE",
"439 634 LINE",
"386 634 LINE",
"496 0 LINE",
"616 0 LINE",
"490 696 LINE"
);
},
{
closed = 1;
nodes = (
"115 142 LINE",
"531 142 LINE",
"517 231 LINE",
"160 231 LINE"
);
}
);
width = 695;
},
{
anchors = (
{
name = ogonek;
position = "{730, 0}";
},
{
name = top;
position = "{470, 711}";
}
);
layerId = "15935870-0A58-425A-9765-D144975D2C89";
paths = (
{
closed = 1;
nodes = (
"341 708 LINE",
"-43 0 LINE",
"190 0 LINE",
"488 593 LINE",
"409 593 LINE",
"496 0 LINE",
"730 0 LINE",
"597 708 LINE"
);
},
{
closed = 1;
nodes = (
"90 107 LINE",
"610 107 LINE",
"585 274 LINE",
"176 274 LINE"
);
}
);
width = 780;
}
);
leftKerningGroup = A;
rightKerningGroup = A;
unicode = 0041;
userData = {
com.schriftgestaltung.Glyphs.ColorIndex = 4;
com.typesupply.AccentFactory.yCoordinates = {
bottom = {
name = origin;
type = glyphMetric;
};
top = {
name = capHeight;
type = fontInfo;
};
};
};
},
{
glyphname = Aogonek;
lastChange = "2022-04-14 09:43:23 +0000";
layers = (
{
anchors = (
{
name = _ogonek;
position = "{612, 0}";
}
);
background = {
paths = (
{
closed = 1;
nodes = (
"138 142 LINE",
"554 142 LINE",
"524 231 LINE",
"167 231 LINE"
);
},
{
closed = 1;
nodes = (
"34 0 LINE",
"153 0 LINE",
"359 586 LINE",
"339 586 LINE",
"553 -24 LINE",
"558 1 LINE",
"501 -7 OFFCURVE",
"464 -42 OFFCURVE",
"464 -96 CURVE SMOOTH",
"464 -165 OFFCURVE",
"521 -205 OFFCURVE",
"592 -205 CURVE SMOOTH",
"698 -205 LINE",
"698 -133 LINE",
"614 -133 LINE SMOOTH",
"579 -133 OFFCURVE",
"558 -126 OFFCURVE",
"558 -96 CURVE SMOOTH",
"558 -66 OFFCURVE",
"579 -60 OFFCURVE",
"614 -60 CURVE SMOOTH",
"664 -60 LINE",
"664 1 LINE",
"415 696 LINE",
"283 696 LINE"
);
}
);
};
components = (
{
name = A;
}
);
layerId = "ED744E86-D388-498D-94EB-FEBBBDC8F1CA";
paths = (
{
closed = 1;
nodes = (
"544 48 LINE SMOOTH",
"443 6 OFFCURVE",
"403 -52 OFFCURVE",
"394 -102 CURVE SMOOTH",
"380 -183 OFFCURVE",
"446 -211 OFFCURVE",
"509 -211 CURVE SMOOTH",
"538 -211 OFFCURVE",
"568 -205 OFFCURVE",
"593 -196 CURVE",
"606 -123 LINE",
"581 -132 OFFCURVE",
"556 -137 OFFCURVE",
"537 -137 CURVE SMOOTH",
"503 -137 OFFCURVE",
"485 -119 OFFCURVE",
"490 -91 CURVE SMOOTH",
"495 -67 OFFCURVE",
"512 -47 OFFCURVE",
"559 -25 CURVE SMOOTH",
"612 0 LINE",
"590 67 LINE"
);
}
);
width = 697;
},
{
anchors = (
{
name = _ogonek;
position = "{723, 0}";
}
);
background = {
paths = (
{
closed = 1;
nodes = (
"114 107 LINE",
"634 107 LINE",
"579 274 LINE",
"170 274 LINE"
);
},
{
closed = 1;
nodes = (
"0 0 LINE",
"233 0 LINE",
"426 593 LINE",
"347 593 LINE",
"549 -30 LINE",
"565 15 LINE",
"515 -13 OFFCURVE",
"494 -49 OFFCURVE",
"494 -97 CURVE",
"494 -192 OFFCURVE",
"577 -219 OFFCURVE",
"644 -219 CURVE",
"812 -219 LINE",
"812 -106 LINE",
"667 -106 LINE SMOOTH",
"651 -106 OFFCURVE",
"641 -100 OFFCURVE",
"641 -90 CURVE SMOOTH",
"641 -80 OFFCURVE",
"651 -75 OFFCURVE",
"667 -75 CURVE SMOOTH",
"767 -75 LINE",
"767 15 LINE",
"515 708 LINE",
"259 708 LINE"
);
}
);
};
components = (
{
name = A;
}
);
layerId = "15935870-0A58-425A-9765-D144975D2C89";
paths = (
{
closed = 1;
nodes = (
"660 90 LINE SMOOTH",
"493 27 OFFCURVE",
"445 -26 OFFCURVE",
"432 -97 CURVE SMOOTH",
"418 -177 OFFCURVE",
"470 -223 OFFCURVE",
"570 -223 CURVE SMOOTH",
"613 -223 OFFCURVE",
"652 -217 OFFCURVE",
"687 -207 CURVE",
"707 -91 LINE",
"672 -102 OFFCURVE",
"644 -107 OFFCURVE",
"622 -107 CURVE SMOOTH",
"598 -107 OFFCURVE",
"587 -98 OFFCURVE",
"590 -82 CURVE SMOOTH",
"593 -66 OFFCURVE",
"608 -46 OFFCURVE",
"676 -19 CURVE SMOOTH",
"723 0 LINE",
"700 105 LINE"
);
}
);
width = 773;
}
);
leftKerningGroup = A;
rightKerningGroup = A;
unicode = 0104;
userData = {
com.schriftgestaltung.Glyphs.ColorIndex = 8;
com.typesupply.AccentFactory.compileType = manual;
};
},
{
glyphname = AE;
lastChange = "2022-04-14 09:43:23 +0000";
layers = (
{
layerId = "ED744E86-D388-498D-94EB-FEBBBDC8F1CA";
paths = (
{
closed = 1;
nodes = (
"125 142 LINE",
"498 142 LINE",
"514 231 LINE",
"191 231 LINE"
);
},
{
closed = 1;
nodes = (
"910 607 LINE",
"926 696 LINE",
"466 696 LINE",
"-40 0 LINE",
"84 0 LINE",
"529 617 LINE",
"420 0 LINE",
"803 0 LINE",
"819 89 LINE",
"550 89 LINE",
"589 308 LINE",
"828 308 LINE",
"843 396 LINE",
"604 396 LINE",
"641 607 LINE"
);
}
);
width = 921;
},
{
layerId = "15935870-0A58-425A-9765-D144975D2C89";
paths = (
{
closed = 1;
nodes = (
"122 97 LINE",
"565 97 LINE",
"595 264 LINE",
"245 264 LINE"
);
},
{
closed = 1;
nodes = (
"996 532 LINE",
"1027 708 LINE",
"414 708 LINE",
"-50 0 LINE",
"191 0 LINE",
"535 537 LINE",
"440 0 LINE",
"902 0 LINE",
"933 177 LINE",
"693 177 LINE",
"712 280 LINE",
"922 280 LINE",
"951 447 LINE",
"741 447 LINE",
"756 532 LINE"
);
}
);
width = 986;
}
);
leftKerningGroup = A;
rightKerningGroup = E;
unicode = 00C6;
userData = {
com.schriftgestaltung.Glyphs.ColorIndex = 4;
com.typemytype.robofont.layerData = {
b = {
anchors = (
);
components = (
);
contours = (
{
points = (
{
segmentType = line;
smooth = 0;
x = 138;
y = 183;
},
{
segmentType = line;
smooth = 0;
x = 449;
y = 183;
},
{
segmentType = line;
smooth = 0;
x = 449;
y = 202;
},
{
segmentType = line;
smooth = 0;
x = 149;
y = 202;
}
);
},
{
points = (
{
segmentType = line;
smooth = 0;
x = 757;
y = 663;
},
{
segmentType = line;
smooth = 0;
x = 757;
y = 683;
},
{
segmentType = line;
smooth = 0;
x = 442;
y = 683;
},
{
segmentType = line;
smooth = 0;
x = 11;
y = 0;
},
{
segmentType = line;
smooth = 0;
x = 32;
y = 0;
},
{
segmentType = line;
smooth = 0;
x = 443;
y = 658;
},
{
segmentType = line;
smooth = 0;
x = 443;
y = 0;
},
{
segmentType = line;
smooth = 0;
x = 757;
y = 0;
},
{
segmentType = line;
smooth = 0;
x = 757;
y = 19;
},
{
segmentType = line;
smooth = 0;
x = 463;
y = 19;
},
{
segmentType = line;
smooth = 0;
x = 463;
y = 332;
},
{
segmentType = line;
smooth = 0;
x = 727;
y = 332;
},
{
segmentType = line;
smooth = 0;
x = 727;
y = 351;
},
{
segmentType = line;
smooth = 0;
x = 463;
y = 351;
},
{
segmentType = line;
smooth = 0;
x = 463;
y = 663;
}
);
}
);
lib = {
};
name = AE;
unicodes = (
);
width = 837;
};
};
com.typesupply.AccentFactory.yCoordinates = {
bottom = {
name = origin;
type = glyphMetric;
};
top = {
name = capHeight;
type = fontInfo;
};
};
};
},
{
glyphname = B;
lastChange = "2022-04-14 10:48:52 +0000";
layers = (
{
background = {
paths = (
{
closed = 1;
nodes = (
"452 502 CURVE SMOOTH",
"452 438 OFFCURVE",
"407 400 OFFCURVE",
"333 400 CURVE SMOOTH",
"192 400 LINE",
"192 606 LINE",
"333 606 LINE SMOOTH",
"407 606 OFFCURVE",
"452 567 OFFCURVE"
);
},
{
closed = 1;
nodes = (
"584 183 CURVE SMOOTH",
"584 275 OFFCURVE",
"514 356 OFFCURVE",
"406 359 CURVE",
"389 347 LINE",
"498 364 OFFCURVE",
"568 417 OFFCURVE",
"568 511 CURVE SMOOTH",
"568 614 OFFCURVE",
"490 695 OFFCURVE",
"343 695 CURVE SMOOTH",
"78 695 LINE",
"78 0 LINE",
"356 0 LINE SMOOTH",
"498 0 OFFCURVE",
"584 79 OFFCURVE"
);
},
{
closed = 1;
nodes = (
"470 199 CURVE SMOOTH",
"470 130 OFFCURVE",
"423 89 OFFCURVE",
"346 89 CURVE SMOOTH",
"192 89 LINE",
"192 311 LINE",
"342 311 LINE SMOOTH",
"418 311 OFFCURVE",
"470 268 OFFCURVE"
);
}
);
};
layerId = "ED744E86-D388-498D-94EB-FEBBBDC8F1CA";
paths = (
{
closed = 1;
nodes = (
"489 502 CURVE SMOOTH",
"478 438 OFFCURVE",
"426 400 OFFCURVE",
"352 400 CURVE SMOOTH",
"211 400 LINE",
"247 606 LINE",
"388 606 LINE SMOOTH",
"462 606 OFFCURVE",
"500 567 OFFCURVE"
);
},
{
closed = 1;
nodes = (
"565 187 CURVE SMOOTH",
"581 277 OFFCURVE",
"525 356 OFFCURVE",
"443 359 CURVE",
"424 347 LINE",
"511 364 OFFCURVE",
"590 417 OFFCURVE",
"607 516 CURVE SMOOTH",
"625 614 OFFCURVE",
"561 695 OFFCURVE",
"414 695 CURVE SMOOTH",
"149 695 LINE",
"26 0 LINE",
"304 0 LINE SMOOTH",
"446 0 OFFCURVE",
"547 81 OFFCURVE"
);
},
{
closed = 1;
nodes = (
"453 199 CURVE SMOOTH",
"441 130 OFFCURVE",
"387 89 OFFCURVE",
"310 89 CURVE SMOOTH",
"156 89 LINE",
"195 311 LINE",
"345 311 LINE SMOOTH",
"421 311 OFFCURVE",
"466 268 OFFCURVE"
);
}
);
width = 631;
},
{
layerId = "15935870-0A58-425A-9765-D144975D2C89";
paths = (
{
closed = 1;
nodes = (
"452 481 CURVE SMOOTH",
"446 447 OFFCURVE",
"424 432 OFFCURVE",
"384 432 CURVE SMOOTH",
"298 432 LINE",
"316 532 LINE",
"402 532 LINE SMOOTH",
"442 532 OFFCURVE",
"458 516 OFFCURVE"
);
},
{
closed = 1;
nodes = (
"643 194 CURVE SMOOTH",
"660 285 OFFCURVE",
"609 364 OFFCURVE",
"496 369 CURVE",
"477 357 LINE",
"575 352 OFFCURVE",
"667 416 OFFCURVE",
"686 524 CURVE SMOOTH",
"707 647 OFFCURVE",
"627 708 OFFCURVE",
"486 708 CURVE SMOOTH",
"125 708 LINE",
"0 0 LINE",
"371 0 LINE SMOOTH",
"525 0 OFFCURVE",
"622 70 OFFCURVE"
);
},
{
closed = 1;
nodes = (
"422 227 CURVE SMOOTH",
"416 192 OFFCURVE",
"395 178 OFFCURVE",
"355 178 CURVE SMOOTH",
"254 178 LINE",
"271 278 LINE",
"372 278 LINE SMOOTH",
"412 278 OFFCURVE",
"428 261 OFFCURVE"
);
}
);
width = 682;
}
);
leftKerningGroup = H;
leftMetricsKey = H;
rightKerningGroup = B;
unicode = 0042;
userData = {
com.schriftgestaltung.Glyphs.ColorIndex = 4;
com.typesupply.AccentFactory.yCoordinates = {
bottom = {
name = origin;
type = glyphMetric;
};
top = {
name = capHeight;
type = fontInfo;
};
};
};
},
{
glyphname = C;
lastChange = "2022-04-14 15:46:08 +0000";
layers = (
{
anchors = (
{
name = bottom;
position = "{340, 0}";
},
{
name = top;
position = "{463, 696}";
}
);
layerId = "ED744E86-D388-498D-94EB-FEBBBDC8F1CA";
paths = (
{
closed = 1;
nodes = (
"53 349 CURVE SMOOTH",
"16 140 OFFCURVE",
"149 -6 OFFCURVE",
"345 -6 CURVE SMOOTH",
"490 -6 OFFCURVE",
"628 66 OFFCURVE",
"705 202 CURVE",
"568 202 LINE",
"519 132 OFFCURVE",
"446 97 OFFCURVE",
"363 97 CURVE SMOOTH",
"225 97 OFFCURVE",
"143 196 OFFCURVE",
"170 349 CURVE SMOOTH",
"197 502 OFFCURVE",
"314 600 OFFCURVE",
"452 600 CURVE SMOOTH",
"535 600 OFFCURVE",
"595 565 OFFCURVE",
"620 495 CURVE",
"757 495 LINE",
"728 631 OFFCURVE",
"615 704 OFFCURVE",
"470 704 CURVE SMOOTH",
"274 704 OFFCURVE",
"90 557 OFFCURVE"
);
}
);
width = 743;
},
{
anchors = (
{
name = bottom;
position = "{332, 0}";
},
{
name = top;
position = "{458, 711}";
}
);
layerId = "15935870-0A58-425A-9765-D144975D2C89";
paths = (
{
closed = 1;
nodes = (
"48 355 CURVE",
"11 144 OFFCURVE",
"117 -5 OFFCURVE",
"334 -5 CURVE",
"521 -5 OFFCURVE",
"668 107 OFFCURVE",
"727 274 CURVE",
"493 274 LINE",
"463 227 OFFCURVE",
"417 200 OFFCURVE",
"367 200 CURVE",
"292 200 OFFCURVE",
"256 261 OFFCURVE",
"273 355 CURVE",
"289 449 OFFCURVE",
"346 510 OFFCURVE",
"421 510 CURVE",
"471 510 OFFCURVE",
"508 483 OFFCURVE",
"521 436 CURVE",
"755 436 LINE",
"756 603 OFFCURVE",
"648 715 OFFCURVE",
"461 715 CURVE",
"244 715 OFFCURVE",
"85 566 OFFCURVE"
);
}
);
width = 748;
}
);
leftKerningGroup = O;
leftMetricsKey = O;
rightKerningGroup = C;
unicode = 0043;
userData = {
com.schriftgestaltung.Glyphs.ColorIndex = 4;
com.typesupply.AccentFactory.yCoordinates = {
bottom = {
name = origin;
type = glyphMetric;
};
top = {
name = capHeight;
type = fontInfo;
};
};
};
},
{
glyphname = D;
lastChange = "2022-04-14 14:39:53 +0000";
layers = (
{
anchors = (
{
name = top;
position = "{429, 696}";
}
);
layerId = "ED744E86-D388-498D-94EB-FEBBBDC8F1CA";
paths = (
{
closed = 1;
nodes = (
"376 695 CURVE SMOOTH",
"149 695 LINE",
"26 0 LINE",
"253 0 LINE SMOOTH",
"476 0 OFFCURVE",
"645 131 OFFCURVE",
"683 345 CURVE SMOOTH",
"721 560 OFFCURVE",
"599 695 OFFCURVE"
);
},
{
closed = 1;
nodes = (
"156 87 LINE",
"247 603 LINE",
"360 603 LINE SMOOTH",
"524 603 OFFCURVE",
"594 504 OFFCURVE",
"566 345 CURVE SMOOTH",
"538 187 OFFCURVE",
"433 87 OFFCURVE",
"269 87 CURVE SMOOTH"
);
}
);
width = 711;
},
{
anchors = (
{
name = top;
position = "{435, 711}";
}
);
layerId = "15935870-0A58-425A-9765-D144975D2C89";
paths = (
{
closed = 1;
nodes = (
"420 708 CURVE SMOOTH",
"125 708 LINE",
"0 0 LINE",
"295 0 LINE SMOOTH",
"521 0 OFFCURVE",
"690 154 OFFCURVE",
"726 356 CURVE SMOOTH",
"762 560 OFFCURVE",
"646 708 OFFCURVE"
);
},
{
closed = 1;
nodes = (
"257 198 LINE",
"313 514 LINE",
"366 514 LINE SMOOTH",
"464 514 OFFCURVE",
"519 459 OFFCURVE",
"501 356 CURVE SMOOTH",
"483 253 OFFCURVE",
"408 198 OFFCURVE",
"310 198 CURVE SMOOTH"
);
}
);
width = 748;
}
);
leftKerningGroup = H;
leftMetricsKey = H;
rightKerningGroup = O;
rightMetricsKey = O;
unicode = 0044;
userData = {
com.schriftgestaltung.Glyphs.ColorIndex = 4;
com.typemytype.robofont.guides = (
{
angle = 0;
isGlobal = 0;
magnetic = 5;
x = 122;
y = 684;
}
);
com.typesupply.AccentFactory.yCoordinates = {
bottom = {
name = origin;
type = glyphMetric;
};
top = {
name = capHeight;
type = fontInfo;
};
};
};
},
{
glyphname = Eth;
lastChange = "2022-04-10 17:19:46 +0000";
layers = (
{
layerId = "ED744E86-D388-498D-94EB-FEBBBDC8F1CA";
paths = (
{
closed = 1;
nodes = (
"9 293 LINE",
"379 293 LINE",
"398 398 LINE",
"28 398 LINE"
);
},
{
closed = 1;
nodes = (
"385 695 CURVE SMOOTH",
"157 695 LINE",
"34 0 LINE",
"262 0 LINE SMOOTH",
"485 0 OFFCURVE",
"653 131 OFFCURVE",
"691 345 CURVE SMOOTH",
"729 560 OFFCURVE",
"608 695 OFFCURVE"
);
},
{
closed = 1;
nodes = (
"165 87 LINE",
"256 603 LINE",
"369 603 LINE SMOOTH",
"532 603 OFFCURVE",
"602 504 OFFCURVE",
"574 345 CURVE SMOOTH",
"546 187 OFFCURVE",
"441 87 OFFCURVE",
"278 87 CURVE SMOOTH"
);
}
);
width = 720;
},
{
layerId = "15935870-0A58-425A-9765-D144975D2C89";
paths = (
{
closed = 1;
nodes = (
"-2 268 LINE",
"400 268 LINE",
"431 444 LINE",
"29 444 LINE"
);
},
{
closed = 1;
nodes = (
"420 708 CURVE SMOOTH",
"125 708 LINE",
"0 0 LINE",
"295 0 LINE SMOOTH",
"521 0 OFFCURVE",
"690 154 OFFCURVE",
"726 356 CURVE SMOOTH",
"762 560 OFFCURVE",
"646 708 OFFCURVE"
);
},
{
closed = 1;
nodes = (
"257 198 LINE",
"313 514 LINE",
"366 514 LINE SMOOTH",
"464 514 OFFCURVE",
"519 459 OFFCURVE",
"501 356 CURVE SMOOTH",
"483 253 OFFCURVE",
"408 198 OFFCURVE",
"310 198 CURVE SMOOTH"
);
}
);
width = 743;
}
);
leftKerningGroup = H;
rightKerningGroup = O;
unicode = 00D0;
userData = {
com.schriftgestaltung.Glyphs.ColorIndex = 4;
};
},
{
glyphname = E;
lastChange = "2022-04-14 14:45:04 +0000";
layers = (
{
anchors = (
{
name = bottom;
position = "{213, 0}";
},
{
name = ogonek;
position = "{410, 0}";
},
{
name = top;
position = "{336, 696}";
}
);
layerId = "ED744E86-D388-498D-94EB-FEBBBDC8F1CA";
paths = (
{
closed = 1;
nodes = (
"533 696 LINE",
"149 696 LINE",
"26 0 LINE",
"410 0 LINE",
"426 89 LINE",
"156 89 LINE",
"195 308 LINE",
"435 308 LINE",
"450 396 LINE",
"210 396 LINE",
"247 607 LINE",
"517 607 LINE"
);
}
);
width = 509;
},
{
anchors = (
{
name = bottom;
position = "{232, 0}";
},
{
name = ogonek;
position = "{472, 0}";
},
{
name = top;
position = "{358, 711}";
}
);
layerId = "15935870-0A58-425A-9765-D144975D2C89";
paths = (
{
closed = 1;
nodes = (
"597 708 LINE",
"125 708 LINE",
"0 0 LINE",
"472 0 LINE",
"503 177 LINE",
"253 177 LINE",
"271 277 LINE",
"491 277 LINE",
"521 444 LINE",
"301 444 LINE",
"316 532 LINE",
"566 532 LINE"
);
}
);
width = 562;
}
);
leftKerningGroup = H;
leftMetricsKey = H;
rightKerningGroup = E;
unicode = 0045;
userData = {
com.schriftgestaltung.Glyphs.ColorIndex = 4;
com.typesupply.AccentFactory.yCoordinates = {
bottom = {
name = origin;
type = glyphMetric;
};
top = {
name = capHeight;
type = fontInfo;
};
};
};
},
{
glyphname = Schwa;
lastChange = "2022-04-14 09:43:23 +0000";
layers = (
{
layerId = "ED744E86-D388-498D-94EB-FEBBBDC8F1CA";
paths = (
{
closed = 1;
nodes = (
"580 305 LINE SMOOTH",
"557 175 OFFCURVE",
"452 96 OFFCURVE",
"327 96 CURVE SMOOTH",
"213 96 OFFCURVE",
"137 161 OFFCURVE",
"154 284 CURVE",
"597 284 LINE",
"616 391 LINE",
"58 391 LINE",
"45 347 OFFCURVE",
"36 298 OFFCURVE",
"36 257 CURVE SMOOTH",
"36 90 OFFCURVE",
"154 -7 OFFCURVE",
"314 -7 CURVE SMOOTH",
"554 -7 OFFCURVE",
"718 194 OFFCURVE",
"718 430 CURVE SMOOTH",
"718 591 OFFCURVE",
"605 704 OFFCURVE",
"437 704 CURVE SMOOTH",
"277 704 OFFCURVE",
"146 619 OFFCURVE",
"79 485 CURVE",
"211 485 LINE",
"252 557 OFFCURVE",
"327 600 OFFCURVE",
"419 600 CURVE SMOOTH",
"545 600 OFFCURVE",
"614 507 OFFCURVE",
"591 370 CURVE SMOOTH"
);
}
);
width = 738;
},
{
layerId = "15935870-0A58-425A-9765-D144975D2C89";
paths = (
{
closed = 1;
nodes = (
"530 314 LINE SMOOTH",
"516 236 OFFCURVE",
"441 196 OFFCURVE",
"372 196 CURVE SMOOTH",
"306 196 OFFCURVE",
"261 233 OFFCURVE",
"267 294 CURVE",
"551 294 LINE",
"572 409 LINE",
"63 409 LINE",
"49 370 OFFCURVE",
"43 325 OFFCURVE",
"43 285 CURVE SMOOTH",
"43 119 OFFCURVE",
"161 -9 OFFCURVE",
"340 -9 CURVE SMOOTH",
"592 -9 OFFCURVE",
"772 188 OFFCURVE",
"772 436 CURVE SMOOTH",
"772 602 OFFCURVE",
"651 727 OFFCURVE",
"466 727 CURVE SMOOTH",
"288 727 OFFCURVE",
"138 621 OFFCURVE",
"83 460 CURVE",
"316 460 LINE",
"336 503 OFFCURVE",
"388 529 OFFCURVE",
"440 529 CURVE SMOOTH",
"515 529 OFFCURVE",
"560 480 OFFCURVE",
"545 399 CURVE SMOOTH"
);
}
);
width = 788;
}
);
leftKerningGroup = O;
rightKerningGroup = O;
unicode = 018F;
},
{
color = 6;
glyphname = F;
lastChange = "2022-04-14 14:48:42 +0000";
layers = (
{
layerId = "ED744E86-D388-498D-94EB-FEBBBDC8F1CA";
paths = (
{
closed = 1;
nodes = (
"26 0 LINE",
"140 0 LINE",
"194 307 LINE",
"363 307 LINE",
"448 395 LINE",
"210 395 LINE",
"247 606 LINE",
"542 606 LINE",
"558 695 LINE",
"149 695 LINE"
);
}
);
width = 504;
},
{
layerId = "15935870-0A58-425A-9765-D144975D2C89";
paths = (
{
closed = 1;
nodes = (
"0 0 LINE",
"222 0 LINE",
"269 267 LINE",
"405 267 LINE",
"538 434 LINE",
"299 434 LINE",
"316 532 LINE",
"594 532 LINE",
"625 708 LINE",
"125 708 LINE"
);
}
);
width = 565;
}
);
leftKerningGroup = H;
leftMetricsKey = H;
rightKerningGroup = F;
unicode = 0046;
userData = {
com.schriftgestaltung.Glyphs.ColorIndex = 4;
com.typesupply.AccentFactory.yCoordinates = {
bottom = {
name = origin;
type = glyphMetric;
};
top = {
name = capHeight;
type = fontInfo;
};
};
};
},
{
color = 6;
glyphname = G;
lastChange = "2022-04-14 15:44:45 +0000";
layers = (
{
anchors = (
{
name = bottom;
position = "{340, 0}";
},
{
name = top;
position = "{463, 696}";
}
);
background = {
paths = (
{
closed = 1;
nodes = (
"53 349 CURVE SMOOTH",
"16 140 OFFCURVE",
"149 -6 OFFCURVE",
"345 -6 CURVE SMOOTH",
"532 -6 OFFCURVE",
"692 131 OFFCURVE",
"742 292 CURVE",
"758 381 LINE",
"375 381 LINE",
"359 292 LINE",
"620 292 LINE",
"583 174 OFFCURVE",
"489 97 OFFCURVE",
"363 97 CURVE SMOOTH",
"225 97 OFFCURVE",
"143 196 OFFCURVE",
"170 349 CURVE SMOOTH",
"197 502 OFFCURVE",
"314 600 OFFCURVE",
"452 600 CURVE SMOOTH",
"535 600 OFFCURVE",
"595 565 OFFCURVE",
"620 495 CURVE",
"757 495 LINE",
"728 631 OFFCURVE",
"615 704 OFFCURVE",
"470 704 CURVE SMOOTH",
"274 704 OFFCURVE",
"90 557 OFFCURVE"
);
}
);
};
layerId = "ED744E86-D388-498D-94EB-FEBBBDC8F1CA";
paths = (
{
closed = 1;
nodes = (
"53 349 CURVE SMOOTH",
"16 140 OFFCURVE",
"149 -6 OFFCURVE",
"345 -6 CURVE SMOOTH",
"532 -6 OFFCURVE",
"692 131 OFFCURVE",
"742 292 CURVE",
"758 381 LINE",
"436 381 LINE",
"350 292 LINE",
"620 292 LINE",
"583 174 OFFCURVE",
"489 97 OFFCURVE",
"363 97 CURVE SMOOTH",
"225 97 OFFCURVE",
"143 196 OFFCURVE",
"170 349 CURVE SMOOTH",
"197 502 OFFCURVE",
"314 600 OFFCURVE",
"452 600 CURVE SMOOTH",
"535 600 OFFCURVE",
"595 565 OFFCURVE",
"620 495 CURVE",
"757 495 LINE",
"728 631 OFFCURVE",
"615 704 OFFCURVE",
"470 704 CURVE SMOOTH",
"274 704 OFFCURVE",
"90 557 OFFCURVE"
);
}
);
width = 779;
},
{
anchors = (
{
name = bottom;
position = "{332, 0}";
},
{
name = top;
position = "{458, 711}";
}
);
layerId = "15935870-0A58-425A-9765-D144975D2C89";
paths = (
{
closed = 1;
nodes = (
"48 355 CURVE",
"11 144 OFFCURVE",
"121 -5 OFFCURVE",
"344 -5 CURVE",
"527 -5 OFFCURVE",
"646 102 OFFCURVE",
"710 187 CURVE",
"749 409 LINE",
"438 409 LINE",
"313 252 LINE",
"538 252 LINE",
"497 208 OFFCURVE",
"453 190 OFFCURVE",
"403 190 CURVE",
"294 190 OFFCURVE",
"253 245 OFFCURVE",
"273 355 CURVE",
"289 449 OFFCURVE",
"348 510 OFFCURVE",
"434 510 CURVE",
"480 510 OFFCURVE",
"509 493 OFFCURVE",
"521 466 CURVE",
"755 466 LINE",
"761 617 OFFCURVE",
"657 715 OFFCURVE",
"469 715 CURVE",
"247 715 OFFCURVE",
"85 566 OFFCURVE"
);
}
);
width = 762;
}
);
leftKerningGroup = O;
leftMetricsKey = O;
rightKerningGroup = G;
rightMetricsKey = O;
unicode = 0047;
userData = {
com.schriftgestaltung.Glyphs.ColorIndex = 4;
com.typemytype.robofont.layerData = {
b = {
anchors = (
{
name = top;
x = 411;
y = 683;
},
{
name = bottom;
x = 411;
y = 0;
}
);
components = (
);
contours = (
{
points = (
{
segmentType = curve;
smooth = 1;
x = 60;
y = 341;
},
{
smooth = 0;
x = 60;
y = 138;
},
{
smooth = 0;
x = 214;
y = -6;
},
{
segmentType = curve;
smooth = 1;
x = 407;
y = -6;
},
{
smooth = 0;
x = 590;
y = -6;
},
{
smooth = 0;
x = 747;
y = 110;
},
{
segmentType = curve;
smooth = 0;
x = 764;
y = 341;
},
{
segmentType = line;
smooth = 0;
x = 764;
y = 360;
},
{
segmentType = line;
smooth = 0;
x = 381;
y = 360;
},
{
segmentType = line;
smooth = 0;
x = 381;
y = 341;
},
{
segmentType = line;
smooth = 0;
x = 747;
y = 341;
},
{
smooth = 0;
x = 733;
y = 132;
},
{
smooth = 0;
x = 600;
y = 6;
},
{
segmentType = curve;
smooth = 1;
x = 407;
y = 6;
},
{
smooth = 0;
x = 226;
y = 6;
},
{
smooth = 0;
x = 80;
y = 137;
},
{
segmentType = curve;
smooth = 1;
x = 80;
y = 341;
},
{
smooth = 0;
x = 80;
y = 547;
},
{
smooth = 0;
x = 226;
y = 677;
},
{
segmentType = curve;
smooth = 1;
x = 407;
y = 677;
},
{
smooth = 0;
x = 528;
y = 677;
},
{
smooth = 0;
x = 633;
y = 618;
},
{
segmentType = curve;
smooth = 0;
x = 683;
y = 525;
},
{
segmentType = line;
smooth = 0;
x = 709;
y = 525;
},
{
smooth = 0;
x = 648;
y = 637;
},
{
smooth = 0;
x = 537;
y = 690;
},
{
segmentType = curve;
smooth = 1;
x = 407;
y = 690;
},
{
smooth = 0;
x = 214;
y = 690;
},
{
smooth = 0;
x = 60;
y = 546;
}
);
}
);
lib = {
};
name = G;
unicodes = (
);
width = 792;
};
};
com.typesupply.AccentFactory.yCoordinates = {
bottom = {
name = origin;
type = glyphMetric;
};
top = {
name = capHeight;
type = fontInfo;
};
};
};
},
{
glyphname = Gcommaaccent;
lastChange = "2022-04-14 09:43:23 +0000";
layers = (
{
anchors = (
{
name = _bottom;
position = "{334, 0}";
}
);
components = (
{
name = G;
}
);
layerId = "ED744E86-D388-498D-94EB-FEBBBDC8F1CA";
paths = (
{
closed = 1;
nodes = (
"272 -46 LINE",
"255 -142 LINE",
"308 -142 LINE",
"305 -163 LINE SMOOTH",
"298 -201 OFFCURVE",
"280 -220 OFFCURVE",
"246 -220 CURVE",
"237 -270 LINE",
"311 -270 OFFCURVE",
"357 -228 OFFCURVE",
"372 -145 CURVE SMOOTH",
"377 -116 OFFCURVE",
"378 -83 OFFCURVE",
"375 -46 CURVE"
);
}
);
width = 773;
},
{
anchors = (
{
name = _bottom;
position = "{328, 0}";
}
);
components = (
{
name = G;
}
);
layerId = "15935870-0A58-425A-9765-D144975D2C89";
paths = (
{
closed = 1;
nodes = (
"242 -35 LINE",
"216 -182 LINE",
"288 -182 LINE",
"286 -193 LINE SMOOTH",
"277 -245 OFFCURVE",
"253 -268 OFFCURVE",
"218 -268 CURVE",
"204 -346 LINE",
"318 -346 OFFCURVE",
"383 -266 OFFCURVE",
"400 -170 CURVE SMOOTH",
"408 -128 OFFCURVE",
"408 -82 OFFCURVE",
"398 -35 CURVE"
);
}
);
width = 756;
}
);
leftKerningGroup = O;
rightKerningGroup = G;
unicode = 0122;
userData = {
com.schriftgestaltung.Glyphs.ColorIndex = 8;
com.typesupply.AccentFactory.compileType = manual;
};
},
{
glyphname = H;
lastChange = "2022-04-14 10:44:49 +0000";
layers = (
{
guideLines = (
{
position = "{474, 675}";
}
);
layerId = "ED744E86-D388-498D-94EB-FEBBBDC8F1CA";
paths = (
{
closed = 1;
nodes = (
"26 0 LINE",
"140 0 LINE",
"263 695 LINE",
"149 695 LINE"
);
},
{
closed = 1;
nodes = (
"467 0 LINE",
"581 0 LINE",
"704 695 LINE",
"590 695 LINE"
);
},
{
closed = 1;
nodes = (
"174 307 LINE",
"548 307 LINE",
"564 395 LINE",
"190 395 LINE"
);
}
);
width = 705;
},
{
layerId = "15935870-0A58-425A-9765-D144975D2C89";
paths = (
{
closed = 1;
nodes = (
"0 0 LINE",
"222 0 LINE",
"347 708 LINE",
"125 708 LINE"
);
},
{
closed = 1;
nodes = (
"433 0 LINE",
"655 0 LINE",
"780 708 LINE",
"558 708 LINE"
);
},
{
closed = 1;
nodes = (
"251 276 LINE",
"504 276 LINE",
"535 453 LINE",
"282 453 LINE"
);
}
);
width = 755;
}
);
leftKerningGroup = H;
rightKerningGroup = H;
unicode = 0048;
userData = {
com.schriftgestaltung.Glyphs.ColorIndex = 4;
com.typesupply.AccentFactory.yCoordinates = {
bottom = {
name = origin;
type = glyphMetric;
};
top = {
name = capHeight;
type = fontInfo;
};
};
};
},
{
glyphname = I;
lastChange = "2022-04-14 13:59:24 +0000";
layers = (
{
anchors = (
{
name = ogonek;
position = "{141, 1}";
},
{
name = top;
position = "{206, 696}";
}
);
layerId = "ED744E86-D388-498D-94EB-FEBBBDC8F1CA";
paths = (
{
closed = 1;
nodes = (
"26 0 LINE",
"140 0 LINE",
"263 695 LINE",
"149 695 LINE"
);
}
);
width = 264;
},
{
anchors = (
{
name = ogonek;
position = "{222, 0}";
},
{
name = top;
position = "{238, 711}";
}
);
layerId = "15935870-0A58-425A-9765-D144975D2C89";
paths = (
{
closed = 1;
nodes = (
"0 0 LINE",
"222 0 LINE",
"347 708 LINE",
"125 708 LINE"
);
}
);
width = 322;
}
);
leftKerningGroup = H;
leftMetricsKey = H;
rightKerningGroup = H;
rightMetricsKey = H;
unicode = 0049;
userData = {
com.schriftgestaltung.Glyphs.ColorIndex = 4;
com.typemytype.robofont.guides = (
{
angle = 0;
isGlobal = 0;
magnetic = 5;
x = 83;
y = 684;
}
);
com.typesupply.AccentFactory.yCoordinates = {
bottom = {
name = origin;
type = glyphMetric;
};
top = {
name = capHeight;
type = fontInfo;
};
};
};
},
{
glyphname = J;
lastChange = "2022-04-14 15:46:02 +0000";
layers = (
{
layerId = "ED744E86-D388-498D-94EB-FEBBBDC8F1CA";
paths = (
{
closed = 1;
nodes = (
"286 194 LINE SMOOTH",
"275 136 OFFCURVE",
"239 94 OFFCURVE",
"178 94 CURVE SMOOTH",
"117 94 OFFCURVE",
"96 136 OFFCURVE",
"106 194 CURVE",
"-9 194 LINE",
"-32 68 OFFCURVE",
"40 -7 OFFCURVE",
"160 -7 CURVE SMOOTH",
"280 -7 OFFCURVE",
"378 68 OFFCURVE",
"401 194 CURVE SMOOTH",
"489 695 LINE",
"374 695 LINE"
);
}
);
width = 490;
},
{
layerId = "15935870-0A58-425A-9765-D144975D2C89";
paths = (
{
closed = 1;
nodes = (
"303 251 LINE SMOOTH",
"294 205 OFFCURVE",
"274 193 OFFCURVE",
"250 193 CURVE SMOOTH",
"221 193 OFFCURVE",
"201 209 OFFCURVE",
"212 271 CURVE",
"-7 271 LINE",
"-40 85 OFFCURVE",
"59 -7 OFFCURVE",
"225 -7 CURVE SMOOTH",
"381 -7 OFFCURVE",
"493 78 OFFCURVE",
"524 251 CURVE SMOOTH",
"604 708 LINE",
"383 708 LINE"
);
}
);
width = 579;
}
);
leftKerningGroup = J;
rightKerningGroup = J;
rightMetricsKey = H;
unicode = 004A;
userData = {
com.schriftgestaltung.Glyphs.ColorIndex = 4;
com.typesupply.AccentFactory.yCoordinates = {
bottom = {
name = origin;
type = glyphMetric;
};
top = {
name = capHeight;
type = fontInfo;
};
};
};
},
{
color = 6;
glyphname = K;
lastChange = "2022-04-14 10:54:43 +0000";
layers = (
{
anchors = (
{
name = bottom;
position = "{268, 0}";
},
{
name = top;
position = "{391, 696}";
}
);
layerId = "ED744E86-D388-498D-94EB-FEBBBDC8F1CA";
paths = (
{
closed = 1;
nodes = (
"26 0 LINE",
"140 0 LINE",
"263 695 LINE",
"149 695 LINE"
);
},
{
closed = 1;
nodes = (
"209 344 LINE",
"406 0 LINE",
"548 0 LINE",
"327 360 LINE",
"309 321 LINE",
"666 695 LINE",
"530 695 LINE"
);
}
);
width = 607;
},
{
anchors = (
{
name = bottom;
position = "{324, 0}";
},
{
name = top;
position = "{450, 711}";
}
);
layerId = "15935870-0A58-425A-9765-D144975D2C89";
paths = (
{
closed = 1;
nodes = (
"0 0 LINE",
"222 0 LINE",
"347 708 LINE",
"125 708 LINE"
);
},
{
closed = 1;
nodes = (
"286 359 LINE",
"433 0 LINE",
"689 0 LINE",
"510 375 LINE",
"478 329 LINE",
"798 708 LINE",
"555 708 LINE"
);
}
);
width = 749;
}
);
leftKerningGroup = H;
leftMetricsKey = H;
rightKerningGroup = K;
unicode = 004B;
userData = {
com.schriftgestaltung.Glyphs.ColorIndex = 4;
com.typesupply.AccentFactory.yCoordinates = {
bottom = {
name = origin;
type = glyphMetric;
};
top = {
name = capHeight;
type = fontInfo;
};
};
};
},
{
glyphname = Kcommaaccent;
lastChange = "2022-04-14 09:43:24 +0000";
layers = (
{
anchors = (
{
name = _bottom;
position = "{265, 0}";
}
);
components = (
{
name = K;
}
);
layerId = "ED744E86-D388-498D-94EB-FEBBBDC8F1CA";
paths = (
{
closed = 1;
nodes = (
"202 -46 LINE",
"185 -142 LINE",
"238 -142 LINE",
"235 -163 LINE SMOOTH",
"228 -201 OFFCURVE",
"210 -220 OFFCURVE",
"177 -220 CURVE",
"168 -270 LINE",
"242 -270 OFFCURVE",
"287 -228 OFFCURVE",
"302 -145 CURVE SMOOTH",
"307 -116 OFFCURVE",
"309 -83 OFFCURVE",
"305 -46 CURVE"
);
}
);
width = 633;
},
{
anchors = (
{
name = _bottom;
position = "{349, 0}";
}
);
components = (
{
name = K;
}
);
layerId = "15935870-0A58-425A-9765-D144975D2C89";
paths = (
{
closed = 1;
nodes = (
"263 -35 LINE",
"237 -182 LINE",
"309 -182 LINE",
"307 -193 LINE SMOOTH",
"298 -245 OFFCURVE",
"273 -268 OFFCURVE",
"239 -268 CURVE",
"225 -346 LINE",
"338 -346 OFFCURVE",
"403 -266 OFFCURVE",
"420 -170 CURVE SMOOTH",
"428 -128 OFFCURVE",
"429 -82 OFFCURVE",
"419 -35 CURVE"
);
}
);
width = 798;
}
);
leftKerningGroup = H;
rightKerningGroup = K;
unicode = 0136;
userData = {
com.schriftgestaltung.Glyphs.ColorIndex = 8;
com.typesupply.AccentFactory.compileType = manual;
};
},
{
glyphname = L;
lastChange = "2022-04-14 14:22:12 +0000";
layers = (
{
anchors = (
{
name = bottom;
position = "{199, 0}";
},
{
name = commaaccent;
position = "{201, 10}";
},
{
name = top;
position = "{296, 696}";
},
{
name = topright;
position = "{498, 696}";
}
);
layerId = "ED744E86-D388-498D-94EB-FEBBBDC8F1CA";
paths = (
{
closed = 1;
nodes = (
"149 695 LINE",
"26 0 LINE",
"375 0 LINE",
"391 87 LINE",
"156 87 LINE",
"263 695 LINE"
);
}
);
width = 439;
},
{
anchors = (
{
name = bottom;
position = "{215, 0}";
},
{
name = commaaccent;
position = "{217, 10}";
},
{
name = top;
position = "{307, 711}";
},
{
name = topright;
position = "{542, 711}";
}
);
layerId = "15935870-0A58-425A-9765-D144975D2C89";
paths = (
{
closed = 1;
nodes = (
"125 708 LINE",
"0 0 LINE",
"436 0 LINE",
"466 168 LINE",
"252 168 LINE",
"347 708 LINE"
);
}
);
width = 496;
}
);
leftKerningGroup = H;
leftMetricsKey = H;
rightKerningGroup = L;
unicode = 004C;
userData = {
com.schriftgestaltung.Glyphs.ColorIndex = 4;
com.typesupply.AccentFactory.yCoordinates = {
bottom = {
name = origin;
type = glyphMetric;
};
top = {
name = capHeight;
type = fontInfo;
};
};
};
},
{
glyphname = Lcaron;
lastChange = "2022-04-14 09:43:24 +0000";
layers = (
{
anchors = (
{
name = _bottom;
position = "{431, 741}";
}
);
components = (
{
name = L;
}
);
layerId = "ED744E86-D388-498D-94EB-FEBBBDC8F1CA";
paths = (
{
closed = 1;
nodes = (
"368 695 LINE",
"351 599 LINE",
"404 599 LINE",
"400 578 LINE SMOOTH",
"394 540 OFFCURVE",
"375 521 OFFCURVE",
"342 521 CURVE",
"333 471 LINE",
"407 471 OFFCURVE",
"453 513 OFFCURVE",
"467 596 CURVE SMOOTH",
"473 625 OFFCURVE",
"474 658 OFFCURVE",
"471 695 CURVE"
);
}
);
width = 463;
},
{
anchors = (
{
name = _bottom;
position = "{530, 743}";
}
);
components = (
{
name = L;
}
);
layerId = "15935870-0A58-425A-9765-D144975D2C89";
paths = (
{
closed = 1;
nodes = (
"444 708 LINE",
"418 562 LINE",
"490 562 LINE",
"488 550 LINE SMOOTH",
"479 499 OFFCURVE",
"454 476 OFFCURVE",
"420 476 CURVE",
"406 397 LINE",
"519 397 OFFCURVE",
"584 477 OFFCURVE",
"601 574 CURVE SMOOTH",
"609 616 OFFCURVE",
"610 662 OFFCURVE",
"600 708 CURVE"
);
}
);
width = 577;
}
);
leftKerningGroup = H;
rightKerningGroup = L;
unicode = 013D;
userData = {
com.schriftgestaltung.Glyphs.ColorIndex = 8;
com.typesupply.AccentFactory.compileType = manual;
};
},
{
glyphname = Lcommaaccent;
lastChange = "2022-04-14 09:43:24 +0000";
layers = (
{
anchors = (
{
name = _commaaccent;
position = "{196, 0}";
}
);
components = (
{
name = L;
}
);
layerId = "ED744E86-D388-498D-94EB-FEBBBDC8F1CA";
paths = (
{
closed = 1;
nodes = (
"133 -46 LINE",
"116 -142 LINE",
"169 -142 LINE",
"166 -163 LINE SMOOTH",
"159 -201 OFFCURVE",
"141 -220 OFFCURVE",
"107 -220 CURVE",
"98 -270 LINE",
"173 -270 OFFCURVE",
"218 -228 OFFCURVE",
"233 -145 CURVE SMOOTH",
"238 -116 OFFCURVE",
"240 -83 OFFCURVE",
"236 -46 CURVE"
);
}
);
width = 444;
},
{
anchors = (
{
name = _commaaccent;
position = "{242, 10}";
}
);
components = (
{
name = L;
}
);
layerId = "15935870-0A58-425A-9765-D144975D2C89";
paths = (
{
closed = 1;
nodes = (
"154 -35 LINE",
"128 -182 LINE",
"200 -182 LINE",
"198 -193 LINE SMOOTH",
"189 -245 OFFCURVE",
"165 -268 OFFCURVE",
"130 -268 CURVE",
"116 -346 LINE",
"230 -346 OFFCURVE",
"295 -266 OFFCURVE",
"312 -170 CURVE SMOOTH",
"320 -128 OFFCURVE",
"320 -82 OFFCURVE",
"310 -35 CURVE"
);
}
);
width = 511;
}
);
leftKerningGroup = H;
rightKerningGroup = L;
unicode = 013B;
userData = {
com.schriftgestaltung.Glyphs.ColorIndex = 8;
com.typesupply.AccentFactory.compileType = manual;
};
},
{
glyphname = Ldot;
lastChange = "2022-04-14 09:43:24 +0000";
layers = (
{
layerId = "ED744E86-D388-498D-94EB-FEBBBDC8F1CA";
paths = (
{
closed = 1;
nodes = (
"372 0 LINE",
"388 87 LINE",
"153 87 LINE",
"260 695 LINE",
"146 695 LINE",
"23 0 LINE"
);
},
{
closed = 1;
nodes = (
"388 305 OFFCURVE",
"419 331 OFFCURVE",
"425 365 CURVE SMOOTH",
"431 398 OFFCURVE",
"409 425 OFFCURVE",
"376 425 CURVE SMOOTH",
"342 425 OFFCURVE",
"311 398 OFFCURVE",
"305 365 CURVE SMOOTH",
"299 331 OFFCURVE",
"321 305 OFFCURVE",
"355 305 CURVE SMOOTH"
);
}
);
width = 444;
},
{
layerId = "15935870-0A58-425A-9765-D144975D2C89";
paths = (
{
closed = 1;
nodes = (
"436 0 LINE",
"466 168 LINE",
"252 168 LINE",
"347 708 LINE",
"125 708 LINE",
"0 0 LINE"
);
},
{
closed = 1;
nodes = (
"471 322 OFFCURVE",
"514 359 OFFCURVE",
"523 407 CURVE SMOOTH",
"532 457 OFFCURVE",
"501 494 OFFCURVE",
"451 494 CURVE SMOOTH",
"403 494 OFFCURVE",
"359 457 OFFCURVE",
"351 407 CURVE SMOOTH",
"343 359 OFFCURVE",
"373 322 OFFCURVE",
"421 322 CURVE SMOOTH"
);
}
);
width = 506;
}
);
leftKerningGroup = H;
rightKerningGroup = L;
unicode = 013F;
},
{
glyphname = Lslash;
lastChange = "2022-04-14 09:43:24 +0000";
layers = (
{
layerId = "ED744E86-D388-498D-94EB-FEBBBDC8F1CA";
paths = (
{
closed = 1;
nodes = (
"4 263 LINE",
"304 355 LINE",
"323 461 LINE",
"22 368 LINE"
);
},
{
closed = 1;
nodes = (
"157 695 LINE",
"34 0 LINE",
"383 0 LINE",
"399 87 LINE",
"165 87 LINE",
"272 695 LINE"
);
}
);
width = 444;
},
{
layerId = "15935870-0A58-425A-9765-D144975D2C89";
paths = (
{
closed = 1;
nodes = (
"-1 221 LINE",
"368 318 LINE",
"406 534 LINE",
"37 437 LINE"
);
},
{
closed = 1;
nodes = (
"140 708 LINE",
"15 0 LINE",
"451 0 LINE",
"481 168 LINE",
"267 168 LINE",
"362 708 LINE"
);
}
);
width = 521;
}
);
leftKerningGroup = H;
rightKerningGroup = L;
unicode = 0141;
userData = {
com.schriftgestaltung.Glyphs.ColorIndex = 4;
};
},
{
color = 6;
glyphname = M;
lastChange = "2022-04-14 15:27:58 +0000";
layers = (
{
layerId = "ED744E86-D388-498D-94EB-FEBBBDC8F1CA";
paths = (
{
closed = 1;
nodes = (
"27 0 LINE",
"141 0 LINE",
"257 661 LINE",
"250 661 LINE",
"354 0 LINE",
"433 0 LINE",
"767 661 LINE",
"761 661 LINE",
"645 0 LINE",
"759 0 LINE",
"881 695 LINE",
"678 695 LINE",
"389 104 LINE",
"434 104 LINE",
"348 695 LINE",
"149 695 LINE"
);
}
);
width = 883;
},
{
layerId = "15935870-0A58-425A-9765-D144975D2C89";
paths = (
{
closed = 1;
nodes = (
"1 0 LINE",
"223 0 LINE",
"325 579 LINE",
"317 564 LINE",
"342 0 LINE",
"514 0 LINE",
"735 564 LINE",
"733 579 LINE",
"631 0 LINE",
"854 0 LINE",
"978 708 LINE",
"628 708 LINE",
"414 149 LINE",
"492 149 LINE",
"470 708 LINE",
"125 708 LINE"
);
}
);
width = 954;
}
);
leftKerningGroup = M;
leftMetricsKey = H;
rightKerningGroup = M;
rightMetricsKey = H;
unicode = 004D;
userData = {
com.schriftgestaltung.Glyphs.ColorIndex = 4;
com.typesupply.AccentFactory.yCoordinates = {
bottom = {
name = origin;
type = glyphMetric;
};
top = {
name = capHeight;
type = fontInfo;
};
};
};
},
{
color = 6;
glyphname = N;
lastChange = "2022-04-14 13:59:24 +0000";
layers = (
{
anchors = (
{
name = bottom;
position = "{313, 0}";
},
{
name = top;
position = "{436, 696}";
}
);
layerId = "ED744E86-D388-498D-94EB-FEBBBDC8F1CA";
paths = (
{
closed = 1;
nodes = (
"345 696 LINE",
"235 696 LINE",
"412 0 LINE",
"523 0 LINE"
);
},
{
closed = 1;
nodes = (
"598 0 LINE",
"720 696 LINE",
"606 696 LINE",
"484 0 LINE"
);
},
{
closed = 1;
nodes = (
"149 696 LINE",
"27 0 LINE",
"141 0 LINE",
"263 696 LINE"
);
}
);
width = 722;
},
{
anchors = (
{
name = bottom;
position = "{340, 0}";
},
{
name = top;
position = "{466, 711}";
}
);
layerId = "15935870-0A58-425A-9765-D144975D2C89";
paths = (
{
closed = 1;
nodes = (
"482 708 LINE",
"303 708 LINE",
"325 0 LINE",
"503 0 LINE"
);
},
{
closed = 1;
nodes = (
"680 0 LINE",
"804 708 LINE",
"582 708 LINE",
"458 0 LINE"
);
},
{
closed = 1;
nodes = (
"125 708 LINE",
"1 0 LINE",
"223 0 LINE",
"347 708 LINE"
);
}
);
width = 780;
}
);
leftKerningGroup = H;
leftMetricsKey = H;
rightKerningGroup = H;
rightMetricsKey = H;
unicode = 004E;
userData = {
com.schriftgestaltung.Glyphs.ColorIndex = 4;
com.typesupply.AccentFactory.yCoordinates = {
bottom = {
name = origin;
type = glyphMetric;
};
top = {
name = capHeight;
type = fontInfo;
};
};
};
},
{
glyphname = Ncommaaccent;
lastChange = "2022-04-14 09:43:24 +0000";
layers = (
{
anchors = (
{
name = _bottom;
position = "{309, 0}";
}
);
components = (
{
name = N;
}
);
layerId = "ED744E86-D388-498D-94EB-FEBBBDC8F1CA";
paths = (
{
closed = 1;
nodes = (
"246 -46 LINE",
"229 -142 LINE",
"282 -142 LINE",
"279 -163 LINE SMOOTH",
"272 -201 OFFCURVE",
"254 -220 OFFCURVE",
"221 -220 CURVE",
"212 -270 LINE",
"286 -270 OFFCURVE",
"331 -228 OFFCURVE",
"346 -145 CURVE SMOOTH",
"351 -116 OFFCURVE",
"353 -83 OFFCURVE",
"349 -46 CURVE"
);
}
);
width = 721;
},
{
anchors = (
{
name = _bottom;
position = "{364, 0}";
}
);
components = (
{
name = N;
}
);
layerId = "15935870-0A58-425A-9765-D144975D2C89";
paths = (
{
closed = 1;
nodes = (
"278 -35 LINE",
"252 -182 LINE",
"324 -182 LINE",
"322 -193 LINE SMOOTH",
"313 -245 OFFCURVE",
"289 -268 OFFCURVE",
"254 -268 CURVE",
"240 -346 LINE",
"354 -346 OFFCURVE",
"419 -266 OFFCURVE",
"436 -170 CURVE SMOOTH",
"444 -128 OFFCURVE",
"444 -82 OFFCURVE",
"434 -35 CURVE"
);
}
);
width = 829;
}
);
leftKerningGroup = N;
rightKerningGroup = N;
unicode = 0145;
userData = {
com.schriftgestaltung.Glyphs.ColorIndex = 8;
com.typesupply.AccentFactory.compileType = manual;
};
},
{
glyphname = O;
lastChange = "2022-04-14 15:46:16 +0000";
layers = (
{
anchors = (
{
name = top;
position = "{462, 704}";
}
);
background = {
paths = (
{
closed = 1;
nodes = (
"49 349 CURVE SMOOTH",
"12 140 OFFCURVE",
"145 -7 OFFCURVE",
"341 -7 CURVE SMOOTH",
"539 -7 OFFCURVE",
"722 140 OFFCURVE",
"759 349 CURVE SMOOTH",
"796 557 OFFCURVE",
"664 704 OFFCURVE",
"466 704 CURVE SMOOTH",
"270 704 OFFCURVE",
"86 557 OFFCURVE"
);
},
{
closed = 1;
nodes = (
"642 349 CURVE SMOOTH",
"615 196 OFFCURVE",
"497 96 OFFCURVE",
"359 96 CURVE SMOOTH",
"221 96 OFFCURVE",
"139 196 OFFCURVE",
"166 349 CURVE SMOOTH",
"193 502 OFFCURVE",
"310 600 OFFCURVE",
"448 600 CURVE SMOOTH",
"586 600 OFFCURVE",
"669 502 OFFCURVE"
);
}
);
};
layerId = "ED744E86-D388-498D-94EB-FEBBBDC8F1CA";
paths = (
{
closed = 1;
nodes = (
"584 -7 OFFCURVE",
"759 170 OFFCURVE",
"759 412 CURVE SMOOTH",
"759 583 OFFCURVE",
"642 704 OFFCURVE",
"462 704 CURVE SMOOTH",
"225 704 OFFCURVE",
"49 527 OFFCURVE",
"49 286 CURVE SMOOTH",
"49 114 OFFCURVE",
"167 -7 OFFCURVE",
"345 -7 CURVE SMOOTH"
);
},
{
closed = 1;
nodes = (
"239 96 OFFCURVE",
"167 172 OFFCURVE",
"167 293 CURVE SMOOTH",
"167 460 OFFCURVE",
"278 600 OFFCURVE",
"446 600 CURVE SMOOTH",
"569 600 OFFCURVE",
"641 525 OFFCURVE",
"641 404 CURVE SMOOTH",
"641 238 OFFCURVE",
"529 96 OFFCURVE",
"361 96 CURVE SMOOTH"
);
}
);
width = 782;
},
{
anchors = (
{
name = top;
position = "{469, 711}";
}
);
background = {
paths = (
{
closed = 1;
nodes = (
"51 397 CURVE SMOOTH",
"9 161 OFFCURVE",
"127 -7 OFFCURVE",
"372 -7 CURVE SMOOTH",
"581 -7 OFFCURVE",
"726 127 OFFCURVE",
"759 317 CURVE SMOOTH",
"800 553 OFFCURVE",
"676 720 OFFCURVE",
"440 720 CURVE SMOOTH",
"230 720 OFFCURVE",
"85 587 OFFCURVE"
);
},
{
closed = 1;
nodes = (
"544 347 CURVE SMOOTH",
"528 259 OFFCURVE",
"472 200 OFFCURVE",
"388 200 CURVE SMOOTH",
"289 200 OFFCURVE",
"250 267 OFFCURVE",
"267 367 CURVE SMOOTH",
"282 457 OFFCURVE",
"339 515 OFFCURVE",
"424 515 CURVE SMOOTH",
"521 515 OFFCURVE",
"563 449 OFFCURVE"
);
}
);
};
layerId = "15935870-0A58-425A-9765-D144975D2C89";
paths = (
{
closed = 1;
nodes = (
"597 -7 OFFCURVE",
"765 172 OFFCURVE",
"765 427 CURVE SMOOTH",
"765 603 OFFCURVE",
"648 720 OFFCURVE",
"462 720 CURVE SMOOTH",
"213 720 OFFCURVE",
"45 545 OFFCURVE",
"45 289 CURVE SMOOTH",
"45 113 OFFCURVE",
"163 -7 OFFCURVE",
"345 -7 CURVE SMOOTH"
);
},
{
closed = 1;
nodes = (
"302 200 OFFCURVE",
"263 245 OFFCURVE",
"263 317 CURVE SMOOTH",
"263 422 OFFCURVE",
"326 515 OFFCURVE",
"434 515 CURVE SMOOTH",
"509 515 OFFCURVE",
"548 471 OFFCURVE",
"548 399 CURVE SMOOTH",
"548 294 OFFCURVE",
"487 200 OFFCURVE",
"379 200 CURVE SMOOTH"
);
}
);
width = 783;
}
);
leftKerningGroup = O;
rightKerningGroup = O;
unicode = 004F;
userData = {
com.schriftgestaltung.Glyphs.ColorIndex = 4;
com.typemytype.robofont.layerData = {
b = {
anchors = (
{
name = top;
x = 407;
y = 683;
}
);
components = (
);
contours = (
{
points = (
{
segmentType = curve;
smooth = 1;
x = 60;
y = 341;
},
{
smooth = 0;
x = 60;
y = 138;
},
{
smooth = 0;
x = 214;
y = -7;
},
{
segmentType = curve;
smooth = 1;
x = 407;
y = -7;
},
{
smooth = 0;
x = 601;
y = -7;
},
{
smooth = 0;
x = 754;
y = 138;
},
{
segmentType = curve;
smooth = 1;
x = 754;
y = 341;
},
{
smooth = 0;
x = 754;
y = 546;
},
{
smooth = 0;
x = 601;
y = 690;
},
{
segmentType = curve;
smooth = 1;
x = 407;
y = 690;
},
{
smooth = 0;
x = 214;
y = 690;
},
{
smooth = 0;
x = 60;
y = 546;
}
);
},
{
points = (
{
segmentType = curve;
smooth = 1;
x = 733;
y = 341;
},
{
smooth = 0;
x = 733;
y = 137;
},
{
smooth = 0;
x = 588;
y = 4;
},
{
segmentType = curve;
smooth = 1;
x = 407;
y = 4;
},
{
smooth = 0;
x = 226;
y = 4;
},
{
smooth = 0;
x = 80;
y = 137;
},
{
segmentType = curve;
smooth = 1;
x = 80;
y = 341;
},
{
smooth = 0;
x = 80;
y = 547;
},
{
smooth = 0;
x = 226;
y = 677;
},
{
segmentType = curve;
smooth = 1;
x = 407;
y = 677;
},
{
smooth = 0;
x = 588;
y = 677;
},
{
smooth = 0;
x = 733;
y = 547;
}
);
}
);
lib = {
};
name = O;
unicodes = (
);
width = 792;
};
};
com.typesupply.AccentFactory.yCoordinates = {
bottom = {
name = origin;
type = glyphMetric;
};
top = {
name = capHeight;
type = fontInfo;
};
};
};
},
{
glyphname = Oslash;
lastChange = "2022-04-14 09:43:24 +0000";
layers = (
{
components = (
{
name = O;
}
);
layerId = "ED744E86-D388-498D-94EB-FEBBBDC8F1CA";
paths = (
{
closed = 1;
nodes = (
"-26 0 LINE",
"65 0 LINE",
"829 696 LINE",
"738 696 LINE"
);
}
);
width = 784;
},
{
components = (
{
name = O;
transform = "{1, 0, 0, 1, -1, 0}";
}
);
layerId = "15935870-0A58-425A-9765-D144975D2C89";
paths = (
{
closed = 1;
nodes = (
"-32 1 LINE",
"84 1 LINE",
"845 712 LINE",
"730 712 LINE"
);
}
);
width = 788;
}
);
leftKerningGroup = O;
rightKerningGroup = O;
unicode = 00D8;
userData = {
com.schriftgestaltung.Glyphs.ColorIndex = 4;
};
},
{
glyphname = OE;
lastChange = "2022-04-14 13:59:24 +0000";
layers = (
{
layerId = "ED744E86-D388-498D-94EB-FEBBBDC8F1CA";
paths = (
{
closed = 1;
nodes = (
"1075 606 LINE",
"1091 695 LINE",
"707 695 LINE",
"688 589 LINE",
"644 665 OFFCURVE",
"565 704 OFFCURVE",
"460 704 CURVE SMOOTH",
"275 704 OFFCURVE",
"90 559 OFFCURVE",
"53 349 CURVE SMOOTH",
"16 140 OFFCURVE",
"149 -7 OFFCURVE",
"336 -7 CURVE SMOOTH",
"440 -7 OFFCURVE",
"532 32 OFFCURVE",
"604 111 CURVE",
"584 0 LINE",
"968 0 LINE",
"984 89 LINE",
"714 89 LINE",
"752 307 LINE",
"992 307 LINE",
"1008 395 LINE",
"768 395 LINE",
"805 606 LINE"
);
},
{
closed = 1;
nodes = (
"197 502 OFFCURVE",
"314 600 OFFCURVE",
"452 600 CURVE SMOOTH",
"590 600 OFFCURVE",
"673 502 OFFCURVE",
"646 349 CURVE SMOOTH",
"619 196 OFFCURVE",
"501 96 OFFCURVE",
"363 96 CURVE SMOOTH",
"225 96 OFFCURVE",
"143 196 OFFCURVE",
"170 349 CURVE SMOOTH"
);
}
);
width = 1067;
},
{
layerId = "15935870-0A58-425A-9765-D144975D2C89";
paths = (
{
closed = 1;
nodes = (
"1064 532 LINE",
"1095 708 LINE",
"623 708 LINE",
"617 671 LINE",
"578 704 OFFCURVE",
"519 720 OFFCURVE",
"460 720 CURVE SMOOTH",
"258 720 OFFCURVE",
"86 569 OFFCURVE",
"48 354 CURVE",
"10 139 OFFCURVE",
"129 -12 OFFCURVE",
"331 -12 CURVE SMOOTH",
"391 -9 OFFCURVE",
"455 4 OFFCURVE",
"505 37 CURVE",
"498 0 LINE",
"970 0 LINE",
"1001 177 LINE",
"751 177 LINE",
"769 277 LINE",
"989 277 LINE",
"1019 444 LINE",
"799 444 LINE",
"814 532 LINE"
);
},
{
closed = 1;
nodes = (
"291 452 OFFCURVE",
"350 515 OFFCURVE",
"441 515 CURVE SMOOTH",
"530 515 OFFCURVE",
"568 452 OFFCURVE",
"551 354 CURVE",
"533 256 OFFCURVE",
"473 193 OFFCURVE",
"384 193 CURVE SMOOTH",
"293 193 OFFCURVE",
"256 256 OFFCURVE",
"274 354 CURVE"
);
}
);
width = 1060;
}
);
leftKerningGroup = O;
leftMetricsKey = O;
rightKerningGroup = E;
rightMetricsKey = E;
unicode = 0152;
userData = {
com.schriftgestaltung.Glyphs.ColorIndex = 4;
com.typesupply.AccentFactory.yCoordinates = {
bottom = {
name = origin;
type = glyphMetric;
};
top = {
name = capHeight;
type = fontInfo;
};
};
};
},
{
glyphname = P;
lastChange = "2022-04-14 11:00:02 +0000";
layers = (
{
layerId = "ED744E86-D388-498D-94EB-FEBBBDC8F1CA";
paths = (
{
closed = 1;
nodes = (
"206 371 LINE",
"247 606 LINE",
"373 606 LINE SMOOTH",
"462 606 OFFCURVE",
"494 560 OFFCURVE",
"481 488 CURVE SMOOTH",
"469 418 OFFCURVE",
"421 371 OFFCURVE",
"332 371 CURVE SMOOTH"
);
},
{
closed = 1;
nodes = (
"598 488 CURVE SMOOTH",
"618 601 OFFCURVE",
"554 695 OFFCURVE",
"389 695 CURVE SMOOTH",
"149 695 LINE",
"26 0 LINE",
"140 0 LINE",
"190 282 LINE",
"316 282 LINE SMOOTH",
"497 282 OFFCURVE",
"581 389 OFFCURVE"
);
}
);
width = 596;
},
{
layerId = "15935870-0A58-425A-9765-D144975D2C89";
paths = (
{
closed = 1;
nodes = (
"293 400 LINE",
"316 530 LINE",
"379 530 LINE SMOOTH",
"429 530 OFFCURVE",
"443 504 OFFCURVE",
"436 465 CURVE",
"429 426 OFFCURVE",
"406 400 OFFCURVE",
"356 400 CURVE"
);
},
{
closed = 1;
nodes = (
"661 465 CURVE",
"686 608 OFFCURVE",
"613 708 OFFCURVE",
"435 708 CURVE SMOOTH",
"125 708 LINE",
"0 0 LINE",
"222 0 LINE",
"262 225 LINE",
"350 225 LINE SMOOTH",
"528 225 OFFCURVE",
"638 334 OFFCURVE"
);
}
);
width = 654;
}
);
leftKerningGroup = H;
leftMetricsKey = H;
rightKerningGroup = P;
unicode = 0050;
userData = {
com.schriftgestaltung.Glyphs.ColorIndex = 4;
com.typesupply.AccentFactory.yCoordinates = {
bottom = {
name = origin;
type = glyphMetric;
};
top = {
name = capHeight;
type = fontInfo;
};
};
};
},
{
glyphname = Thorn;
lastChange = "2022-04-14 09:43:24 +0000";
layers = (
{
layerId = "ED744E86-D388-498D-94EB-FEBBBDC8F1CA";
paths = (
{
closed = 1;
nodes = (
"178 231 LINE",
"220 466 LINE",
"346 466 LINE SMOOTH",
"435 466 OFFCURVE",
"466 419 OFFCURVE",
"454 348 CURVE SMOOTH",
"441 278 OFFCURVE",
"393 231 OFFCURVE",
"304 231 CURVE SMOOTH"
);
},
{
closed = 1;
nodes = (
"571 348 CURVE SMOOTH",
"591 461 OFFCURVE",
"526 555 OFFCURVE",
"361 555 CURVE SMOOTH",
"234 555 LINE",
"259 696 LINE",
"146 696 LINE",
"23 0 LINE",
"137 0 LINE",
"162 142 LINE",
"288 142 LINE SMOOTH",
"469 142 OFFCURVE",
"553 249 OFFCURVE"
);
}
);
width = 595;
},
{
layerId = "15935870-0A58-425A-9765-D144975D2C89";
paths = (
{
closed = 1;
nodes = (
"273 290 LINE",
"296 420 LINE",
"359 420 LINE SMOOTH",
"409 420 OFFCURVE",
"424 394 OFFCURVE",
"417 355 CURVE",
"410 316 OFFCURVE",
"386 290 OFFCURVE",
"336 290 CURVE"
);
},
{
closed = 1;
nodes = (
"642 355 CURVE",
"666 492 OFFCURVE",
"592 588 OFFCURVE",
"414 588 CURVE SMOOTH",
"324 588 LINE",
"345 708 LINE",
"125 708 LINE",
"0 0 LINE",
"222 0 LINE",
"244 125 LINE",
"332 125 LINE SMOOTH",
"510 125 OFFCURVE",
"620 229 OFFCURVE"
);
}
);
width = 649;
}
);
leftKerningGroup = H;
rightKerningGroup = Thorn;
unicode = 00DE;
userData = {
com.schriftgestaltung.Glyphs.ColorIndex = 4;
};
},
{
color = 6;
glyphname = Q;
lastChange = "2022-04-14 15:25:02 +0000";
layers = (
{
components = (
{
name = O;
}
);
layerId = "ED744E86-D388-498D-94EB-FEBBBDC8F1CA";
paths = (
{
closed = 1;
nodes = (
"322 347 LINE",
"551 -96 LINE",
"670 -96 LINE",
"441 347 LINE"
);
}
);
width = 787;
},
{
components = (
{
name = O;
}
);
layerId = "15935870-0A58-425A-9765-D144975D2C89";
paths = (
{
closed = 1;
nodes = (
"314 366 LINE",
"520 -115 LINE",
"704 -115 LINE",
"475 366 LINE"
);
}
);
width = 789;
}
);
leftKerningGroup = O;
leftMetricsKey = O;
rightKerningGroup = O;
unicode = 0051;
userData = {
com.schriftgestaltung.Glyphs.ColorIndex = 4;
com.typesupply.AccentFactory.yCoordinates = {
bottom = {
name = origin;
type = glyphMetric;
};
top = {
name = capHeight;
type = fontInfo;
};
};
};
},
{
glyphname = R;
lastChange = "2022-04-14 11:53:56 +0000";
layers = (
{
anchors = (
{
name = bottom;
position = "{267, 0}";
},
{
name = top;
position = "{390, 696}";
}
);
layerId = "ED744E86-D388-498D-94EB-FEBBBDC8F1CA";
paths = (
{
closed = 1;
nodes = (
"481 487 CURVE SMOOTH",
"469 417 OFFCURVE",
"420 368 OFFCURVE",
"331 368 CURVE SMOOTH",
"205 368 LINE",
"247 606 LINE",
"373 606 LINE SMOOTH",
"462 606 OFFCURVE",
"494 559 OFFCURVE"
);
},
{
closed = 1;
nodes = (
"149 695 LINE",
"26 0 LINE",
"140 0 LINE",
"189 278 LINE",
"315 278 LINE SMOOTH",
"496 278 OFFCURVE",
"581 388 OFFCURVE",
"598 487 CURVE SMOOTH",
"618 600 OFFCURVE",
"554 695 OFFCURVE",
"389 695 CURVE SMOOTH"
);
},
{
closed = 1;
nodes = (
"262 315 LINE",
"387 0 LINE",
"523 0 LINE",
"391 315 LINE"
);
}
);
width = 627;
},
{
anchors = (
{
name = bottom;
position = "{275, 0}";
},
{
name = top;
position = "{401, 711}";
}
);
layerId = "15935870-0A58-425A-9765-D144975D2C89";
paths = (
{
closed = 1;
nodes = (
"456 462 CURVE SMOOTH",
"448 420 OFFCURVE",
"423 402 OFFCURVE",
"381 402 CURVE SMOOTH",
"293 402 LINE",
"314 522 LINE",
"402 522 LINE SMOOTH",
"444 522 OFFCURVE",
"462 498 OFFCURVE"
);
},
{
closed = 1;
nodes = (
"125 708 LINE",
"0 0 LINE",
"222 0 LINE",
"267 254 LINE",
"375 254 LINE",
"553 254 OFFCURVE",
"661 352 OFFCURVE",
"683 476 CURVE",
"706 606 OFFCURVE",
"633 708 OFFCURVE",
"455 708 CURVE SMOOTH"
);
},
{
closed = 1;
nodes = (
"253 295 LINE",
"356 0 LINE",
"600 0 LINE",
"484 295 LINE"
);
}
);
width = 670;
}
);
leftKerningGroup = H;
leftMetricsKey = H;
rightKerningGroup = R;
unicode = 0052;
userData = {
com.schriftgestaltung.Glyphs.ColorIndex = 4;
com.typesupply.AccentFactory.yCoordinates = {
bottom = {
name = origin;
type = glyphMetric;
};
top = {
name = capHeight;
type = fontInfo;
};
};
};
},
{
glyphname = Rcommaaccent;
lastChange = "2022-04-14 09:43:24 +0000";
layers = (
{
anchors = (
{
name = _bottom;
position = "{264, 0}";
}
);
components = (
{
name = R;
}
);
layerId = "ED744E86-D388-498D-94EB-FEBBBDC8F1CA";
paths = (
{
closed = 1;
nodes = (
"202 -46 LINE",
"185 -142 LINE",
"237 -142 LINE",
"234 -163 LINE SMOOTH",
"227 -201 OFFCURVE",
"209 -220 OFFCURVE",
"176 -220 CURVE",
"167 -270 LINE",
"241 -270 OFFCURVE",
"286 -228 OFFCURVE",
"301 -145 CURVE SMOOTH",
"306 -116 OFFCURVE",
"308 -83 OFFCURVE",
"305 -46 CURVE"
);
}
);
width = 632;
},
{
anchors = (
{
name = _bottom;
position = "{300, 0}";
}
);
components = (
{
name = R;
}
);
layerId = "15935870-0A58-425A-9765-D144975D2C89";
paths = (
{
closed = 1;
nodes = (
"214 -35 LINE",
"188 -182 LINE",
"260 -182 LINE",
"258 -193 LINE SMOOTH",
"249 -245 OFFCURVE",
"225 -268 OFFCURVE",
"190 -268 CURVE",
"176 -346 LINE",
"290 -346 OFFCURVE",
"355 -266 OFFCURVE",
"372 -170 CURVE SMOOTH",
"380 -128 OFFCURVE",
"380 -82 OFFCURVE",
"370 -35 CURVE"
);
}
);
width = 701;
}
);
leftKerningGroup = H;
rightKerningGroup = R;
unicode = 0156;
userData = {
com.schriftgestaltung.Glyphs.ColorIndex = 8;
com.typesupply.AccentFactory.compileType = manual;
};
},
{
glyphname = S;
lastChange = "2022-04-15 09:14:10 +0000";
layers = (
{
anchors = (
{
name = bottom;
position = "{251, 0}";
},
{
name = top;
position = "{374, 696}";
}
);
background = {
paths = (
{
closed = 1;
nodes = (
"428 -7 OFFCURVE",
"530 76 OFFCURVE",
"530 193 CURVE SMOOTH",
"530 404 OFFCURVE",
"204 380 OFFCURVE",
"204 513 CURVE SMOOTH",
"204 574 OFFCURVE",
"255 611 OFFCURVE",
"331 611 CURVE SMOOTH",
"407 611 OFFCURVE",
"445 567 OFFCURVE",
"440 515 CURVE",
"560 515 LINE",
"566 629 OFFCURVE",
"480 704 OFFCURVE",
"336 704 CURVE SMOOTH",
"192 704 OFFCURVE",
"85 624 OFFCURVE",
"88 494 CURVE SMOOTH",
"93 283 OFFCURVE",
"412 322 OFFCURVE",
"412 184 CURVE SMOOTH",
"412 118 OFFCURVE",
"360 85 OFFCURVE",
"280 85 CURVE SMOOTH",
"201 85 OFFCURVE",
"159 133 OFFCURVE",
"164 192 CURVE",
"51 192 LINE",
"35 65 OFFCURVE",
"140 -7 OFFCURVE",
"275 -7 CURVE SMOOTH"
);
}
);
};
layerId = "ED744E86-D388-498D-94EB-FEBBBDC8F1CA";
paths = (
{
closed = 1;
nodes = (
"428 -7 OFFCURVE",
"530 76 OFFCURVE",
"530 193 CURVE SMOOTH",
"530 404 OFFCURVE",
"204 380 OFFCURVE",
"204 513 CURVE SMOOTH",
"204 574 OFFCURVE",
"255 611 OFFCURVE",
"331 611 CURVE SMOOTH",
"407 611 OFFCURVE",
"445 567 OFFCURVE",
"440 515 CURVE",
"560 515 LINE",
"566 629 OFFCURVE",
"480 704 OFFCURVE",
"336 704 CURVE SMOOTH",
"192 704 OFFCURVE",
"85 624 OFFCURVE",
"88 494 CURVE SMOOTH",
"93 283 OFFCURVE",
"412 322 OFFCURVE",
"412 184 CURVE SMOOTH",
"412 118 OFFCURVE",
"360 85 OFFCURVE",
"280 85 CURVE SMOOTH",
"201 85 OFFCURVE",
"159 133 OFFCURVE",
"164 192 CURVE",
"51 192 LINE",
"35 65 OFFCURVE",
"140 -7 OFFCURVE",
"275 -7 CURVE SMOOTH"
);
}
);
width = 596;
},
{
anchors = (
{
name = bottom;
position = "{272, 0}";
},
{
name = top;
position = "{398, 711}";
}
);
background = {
paths = (
{
closed = 1;
nodes = (
"478 -7 OFFCURVE",
"584 92 OFFCURVE",
"584 221 CURVE SMOOTH",
"584 424 OFFCURVE",
"302 426 OFFCURVE",
"302 511 CURVE SMOOTH",
"302 533 OFFCURVE",
"319 547 OFFCURVE",
"341 547 CURVE SMOOTH",
"370 547 OFFCURVE",
"387 528 OFFCURVE",
"380 491 CURVE",
"619 491 LINE",
"620 499 OFFCURVE",
"620 507 OFFCURVE",
"620 514 CURVE SMOOTH",
"620 648 OFFCURVE",
"511 720 OFFCURVE",
"354 720 CURVE SMOOTH",
"183 720 OFFCURVE",
"59 634 OFFCURVE",
"59 480 CURVE SMOOTH",
"59 276 OFFCURVE",
"342 291 OFFCURVE",
"342 201 CURVE SMOOTH",
"342 178 OFFCURVE",
"323 166 OFFCURVE",
"300 166 CURVE SMOOTH",
"261 166 OFFCURVE",
"245 186 OFFCURVE",
"249 227 CURVE",
"13 227 LINE",
"12 218 OFFCURVE",
"12 209 OFFCURVE",
"12 200 CURVE SMOOTH",
"12 52 OFFCURVE",
"136 -7 OFFCURVE",
"296 -7 CURVE SMOOTH"
);
}
);
};
layerId = "15935870-0A58-425A-9765-D144975D2C89";
paths = (
{
closed = 1;
nodes = (
"478 -7 OFFCURVE",
"584 92 OFFCURVE",
"584 221 CURVE SMOOTH",
"584 424 OFFCURVE",
"302 426 OFFCURVE",
"302 511 CURVE SMOOTH",
"302 533 OFFCURVE",
"319 547 OFFCURVE",
"341 547 CURVE SMOOTH",
"370 547 OFFCURVE",
"387 528 OFFCURVE",
"380 491 CURVE",
"619 491 LINE",
"637 635 OFFCURVE",
"518 720 OFFCURVE",
"354 720 CURVE SMOOTH",
"183 720 OFFCURVE",
"59 634 OFFCURVE",
"59 480 CURVE SMOOTH",
"59 276 OFFCURVE",
"342 291 OFFCURVE",
"342 201 CURVE SMOOTH",
"342 178 OFFCURVE",
"323 166 OFFCURVE",
"300 166 CURVE SMOOTH",
"261 166 OFFCURVE",
"245 186 OFFCURVE",
"249 227 CURVE",
"13 227 LINE",
"-5 68 OFFCURVE",
"118 -7 OFFCURVE",
"296 -7 CURVE SMOOTH"
);
}
);
width = 626;
}
);
leftKerningGroup = S;
rightKerningGroup = S;
unicode = 0053;
userData = {
com.schriftgestaltung.Glyphs.ColorIndex = 4;
com.typesupply.AccentFactory.yCoordinates = {
bottom = {
name = origin;
type = glyphMetric;
};
top = {
name = capHeight;
type = fontInfo;
};
};
};
},
{
glyphname = Scommaaccent;
lastChange = "2022-04-14 09:43:24 +0000";
layers = (
{
anchors = (
{
name = _bottom;
position = "{251, 0}";
}
);
components = (
{
name = S;
}
);
layerId = "ED744E86-D388-498D-94EB-FEBBBDC8F1CA";
paths = (
{
closed = 1;
nodes = (
"188 -46 LINE",
"171 -142 LINE",
"224 -142 LINE",
"221 -163 LINE SMOOTH",
"214 -201 OFFCURVE",
"196 -220 OFFCURVE",
"162 -220 CURVE",
"153 -270 LINE",
"228 -270 OFFCURVE",
"273 -228 OFFCURVE",
"288 -145 CURVE SMOOTH",
"293 -116 OFFCURVE",
"295 -83 OFFCURVE",
"291 -46 CURVE"
);
}
);
width = 604;
},
{
anchors = (
{
name = _bottom;
position = "{293, 0}";
}
);
components = (
{
name = S;
}
);
layerId = "15935870-0A58-425A-9765-D144975D2C89";
paths = (
{
closed = 1;
nodes = (
"207 -35 LINE",
"181 -182 LINE",
"253 -182 LINE",
"251 -193 LINE SMOOTH",
"242 -245 OFFCURVE",
"218 -268 OFFCURVE",
"183 -268 CURVE",
"169 -346 LINE",
"283 -346 OFFCURVE",
"348 -266 OFFCURVE",
"365 -170 CURVE SMOOTH",
"373 -128 OFFCURVE",
"373 -82 OFFCURVE",
"363 -35 CURVE"
);
}
);
width = 685;
}
);
leftKerningGroup = S;
rightKerningGroup = S;
unicode = 0218;
userData = {
com.schriftgestaltung.Glyphs.ColorIndex = 8;
com.typesupply.AccentFactory.compileType = manual;
};
},
{
glyphname = T;
lastChange = "2022-04-14 15:45:24 +0000";
layers = (
{
anchors = (
{
name = bottom;
position = "{222, 0}";
},
{
name = top;
position = "{347, 696}";
}
);
layerId = "ED744E86-D388-498D-94EB-FEBBBDC8F1CA";
paths = (
{
closed = 1;
nodes = (
"88 606 LINE",
"274 606 LINE",
"167 0 LINE",
"281 0 LINE",
"388 606 LINE",
"573 606 LINE",
"589 695 LINE",
"104 695 LINE"
);
}
);
width = 555;
},
{
anchors = (
{
name = bottom;
position = "{248, 0}";
},
{
name = top;
position = "{374, 711}";
}
);
layerId = "15935870-0A58-425A-9765-D144975D2C89";
paths = (
{
closed = 1;
nodes = (
"49 532 LINE",
"235 532 LINE",
"141 0 LINE",
"363 0 LINE",
"457 532 LINE",
"645 532 LINE",
"676 708 LINE",
"80 708 LINE"
);
}
);
width = 611;
}
);
leftKerningGroup = T;
rightKerningGroup = T;
unicode = 0054;
userData = {
com.schriftgestaltung.Glyphs.ColorIndex = 4;
com.typesupply.AccentFactory.yCoordinates = {
bottom = {
name = origin;
type = glyphMetric;
};
top = {
name = capHeight;
type = fontInfo;
};
};
};
},
{
glyphname = Tcedilla;
lastChange = "2022-04-14 11:56:08 +0000";
layers = (
{
background = {
paths = (
{
closed = 1;
nodes = (
"39 606 LINE",
"225 606 LINE",
"225 -68 LINE",
"310 -68 LINE SMOOTH",
"344 -68 OFFCURVE",
"361 -81 OFFCURVE",
"361 -107 CURVE SMOOTH",
"361 -133 OFFCURVE",
"344 -145 OFFCURVE",
"310 -145 CURVE SMOOTH",
"166 -145 LINE",
"166 -217 LINE",
"328 -217 LINE SMOOTH",
"403 -217 OFFCURVE",
"455 -175 OFFCURVE",
"455 -107 CURVE SMOOTH",
"455 -34 OFFCURVE",
"396 4 OFFCURVE",
"311 -1 CURVE",
"339 -21 LINE",
"339 606 LINE",
"524 606 LINE",
"524 695 LINE",
"39 695 LINE"
);
}
);
};
components = (
{
name = T;
},
{
name = cedilla;
transform = "{1, 0, 0, 1, 176, 0}";
}
);
layerId = "ED744E86-D388-498D-94EB-FEBBBDC8F1CA";
width = 555;
},
{
background = {
paths = (
{
closed = 1;
nodes = (
"10 532 LINE",
"196 532 LINE",
"196 -75 LINE",
"301 -75 LINE SMOOTH",
"317 -75 OFFCURVE",
"322 -80 OFFCURVE",
"322 -90 CURVE SMOOTH",
"322 -100 OFFCURVE",
"317 -106 OFFCURVE",
"301 -106 CURVE SMOOTH",
"151 -106 LINE",
"151 -219 LINE",
"319 -219 LINE",
"386 -219 OFFCURVE",
"469 -192 OFFCURVE",
"469 -97 CURVE",
"469 -47 OFFCURVE",
"446 -16 OFFCURVE",
"393 18 CURVE",
"418 -28 LINE",
"418 532 LINE",
"606 532 LINE",
"606 708 LINE",
"10 708 LINE"
);
}
);
};
components = (
{
name = T;
},
{
name = cedilla;
transform = "{1, 0, 0, 1, 167, -7}";
}
);
layerId = "15935870-0A58-425A-9765-D144975D2C89";
width = 611;
}
);
leftKerningGroup = T;
rightKerningGroup = T;
unicode = 0162;
userData = {
com.schriftgestaltung.Glyphs.ColorIndex = 8;
};
},
{
glyphname = Tcommaaccent;
lastChange = "2022-04-14 09:43:24 +0000";
layers = (
{
components = (
{
name = T;
}
);
layerId = "ED744E86-D388-498D-94EB-FEBBBDC8F1CA";
paths = (
{
closed = 1;
nodes = (
"168 -46 LINE",
"151 -142 LINE",
"204 -142 LINE",
"201 -163 LINE SMOOTH",
"194 -201 OFFCURVE",
"175 -220 OFFCURVE",
"142 -220 CURVE",
"133 -270 LINE",
"207 -270 OFFCURVE",
"252 -228 OFFCURVE",
"267 -145 CURVE SMOOTH",
"272 -116 OFFCURVE",
"274 -83 OFFCURVE",
"271 -46 CURVE"
);
}
);
width = 564;
},
{
components = (
{
name = T;
}
);
layerId = "15935870-0A58-425A-9765-D144975D2C89";
paths = (
{
closed = 1;
nodes = (
"173 -35 LINE",
"147 -182 LINE",
"219 -182 LINE",
"217 -193 LINE SMOOTH",
"208 -245 OFFCURVE",
"183 -268 OFFCURVE",
"149 -268 CURVE",
"135 -346 LINE",
"248 -346 OFFCURVE",
"313 -266 OFFCURVE",
"330 -170 CURVE SMOOTH",
"338 -128 OFFCURVE",
"339 -82 OFFCURVE",
"329 -35 CURVE"
);
}
);
width = 616;
}
);
leftKerningGroup = T;
rightKerningGroup = T;
unicode = 021A;
userData = {
com.schriftgestaltung.Glyphs.ColorIndex = 8;
com.typesupply.AccentFactory.compileType = manual;
};
},
{
glyphname = U;
lastChange = "2022-04-14 15:30:54 +0000";
layers = (
{
anchors = (
{
name = ogonek;
position = "{365, 0}";
},
{
name = top;
position = "{415, 696}";
}
);
layerId = "ED744E86-D388-498D-94EB-FEBBBDC8F1CA";
paths = (
{
closed = 1;
nodes = (
"66 254 LINE SMOOTH",
"35 77 OFFCURVE",
"144 -7 OFFCURVE",
"290 -7 CURVE SMOOTH",
"435 -7 OFFCURVE",
"578 77 OFFCURVE",
"609 254 CURVE SMOOTH",
"687 695 LINE",
"573 695 LINE",
"495 254 LINE SMOOTH",
"476 146 OFFCURVE",
"406 95 OFFCURVE",
"309 95 CURVE SMOOTH",
"213 95 OFFCURVE",
"161 146 OFFCURVE",
"180 254 CURVE SMOOTH",
"258 695 LINE",
"144 695 LINE"
);
}
);
width = 685;
},
{
anchors = (
{
name = ogonek;
position = "{399, 3}";
},
{
name = top;
position = "{435, 711}";
}
);
layerId = "15935870-0A58-425A-9765-D144975D2C89";
paths = (
{
closed = 1;
nodes = (
"50 309 LINE SMOOTH",
"13 100 OFFCURVE",
"127 -7 OFFCURVE",
"304 -7 CURVE SMOOTH",
"486 -7 OFFCURVE",
"639 94 OFFCURVE",
"677 309 CURVE SMOOTH",
"747 708 LINE",
"526 708 LINE",
"456 309 LINE SMOOTH",
"445 248 OFFCURVE",
"410 203 OFFCURVE",
"343 203 CURVE SMOOTH",
"276 203 OFFCURVE",
"260 248 OFFCURVE",
"271 309 CURVE SMOOTH",
"341 708 LINE",
"120 708 LINE"
);
}
);
width = 717;
}
);
leftKerningGroup = U;
rightKerningGroup = U;
unicode = 0055;
userData = {
com.schriftgestaltung.Glyphs.ColorIndex = 4;
com.typesupply.AccentFactory.yCoordinates = {
bottom = {
name = origin;
type = glyphMetric;
};
top = {
name = capHeight;
type = fontInfo;
};
};
};
},
{
glyphname = Uogonek;
lastChange = "2022-04-14 11:58:50 +0000";
layers = (
{
background = {
paths = (
{
closed = 1;
nodes = (
"74 254 LINE SMOOTH",
"74 99 OFFCURVE",
"170 15 OFFCURVE",
"292 -3 CURVE",
"288 -13 OFFCURVE",
"286 -24 OFFCURVE",
"286 -36 CURVE SMOOTH",
"286 -105 OFFCURVE",
"343 -145 OFFCURVE",
"414 -145 CURVE SMOOTH",
"520 -145 LINE",
"520 -74 LINE",
"428 -74 LINE SMOOTH",
"396 -74 OFFCURVE",
"380 -61 OFFCURVE",
"380 -37 CURVE SMOOTH",
"380 -16 OFFCURVE",
"395 -6 OFFCURVE",
"440 6 CURVE SMOOTH",
"522 30 OFFCURVE",
"617 100 OFFCURVE",
"617 254 CURVE SMOOTH",
"617 695 LINE",
"503 695 LINE",
"503 254 LINE SMOOTH",
"503 146 OFFCURVE",
"442 95 OFFCURVE",
"345 95 CURVE SMOOTH",
"249 95 OFFCURVE",
"188 146 OFFCURVE",
"188 254 CURVE SMOOTH",
"188 695 LINE",
"74 695 LINE"
);
}
);
};
components = (
{
name = U;
},
{
name = ogonek;
transform = "{1, 0, 0, 1, 208, 0}";
}
);
layerId = "ED744E86-D388-498D-94EB-FEBBBDC8F1CA";
width = 685;
},
{
background = {
paths = (
{
closed = 1;
nodes = (
"71 309 LINE SMOOTH",
"71 134 OFFCURVE",
"176 30 OFFCURVE",
"302 1 CURVE",
"302 -4 OFFCURVE",
"302 -8 OFFCURVE",
"302 -13 CURVE",
"302 -103 OFFCURVE",
"376 -141 OFFCURVE",
"435 -141 CURVE SMOOTH",
"611 -141 LINE",
"611 -29 LINE",
"478 -29 LINE SMOOTH",
"458 -29 OFFCURVE",
"450 -23 OFFCURVE",
"450 -14 CURVE SMOOTH",
"450 -5 OFFCURVE",
"456 2 OFFCURVE",
"484 10 CURVE SMOOTH",
"589 40 OFFCURVE",
"698 140 OFFCURVE",
"698 309 CURVE SMOOTH",
"698 708 LINE",
"477 708 LINE",
"477 309 LINE SMOOTH",
"477 248 OFFCURVE",
"450 203 OFFCURVE",
"383 203 CURVE SMOOTH",
"316 203 OFFCURVE",
"292 248 OFFCURVE",
"292 309 CURVE SMOOTH",
"292 708 LINE",
"71 708 LINE"
);
}
);
};
components = (
{
name = U;
},
{
name = ogonek;
transform = "{1, 0, 0, 1, 157, 3}";
}
);
layerId = "15935870-0A58-425A-9765-D144975D2C89";
width = 717;
}
);
leftKerningGroup = U;
rightKerningGroup = U;
unicode = 0172;
userData = {
com.schriftgestaltung.Glyphs.ColorIndex = 8;
};
},
{
color = 6;
glyphname = V;
lastChange = "2022-04-14 15:43:40 +0000";
layers = (
{
layerId = "ED744E86-D388-498D-94EB-FEBBBDC8F1CA";
paths = (
{
closed = 1;
nodes = (
"275 42 LINE",
"301 42 LINE",
"205 695 LINE",
"84 695 LINE",
"209 0 LINE",
"357 0 LINE",
"739 695 LINE",
"618 695 LINE"
);
}
);
width = 685;
},
{
layerId = "15935870-0A58-425A-9765-D144975D2C89";
paths = (
{
closed = 1;
nodes = (
"303 22 LINE",
"341 22 LINE",
"311 708 LINE",
"75 708 LINE",
"147 0 LINE",
"496 0 LINE",
"814 708 LINE",
"578 708 LINE"
);
}
);
width = 749;
},
{
associatedMasterId = "15935870-0A58-425A-9765-D144975D2C89";
layerId = "6A54A61D-7508-477F-9778-5D43DEEDBF8E";
name = "12 avr. 22 à 16:45";
paths = (
{
closed = 1;
nodes = (
"188 0 LINE",
"475 0 LINE",
"838 708 LINE",
"602 708 LINE",
"371 221 LINE",
"311 708 LINE",
"75 708 LINE"
);
}
);
visible = 1;
width = 763;
},
{
associatedMasterId = "ED744E86-D388-498D-94EB-FEBBBDC8F1CA";
layerId = "3ED1F2BF-4FD2-4E7C-8315-54A7BA63A010";
name = "12 avr. 22 à 16:46";
paths = (
{
closed = 1;
nodes = (
"229 0 LINE",
"361 0 LINE",
"745 695 LINE",
"624 695 LINE",
"315 118 LINE",
"212 695 LINE",
"90 695 LINE"
);
}
);
visible = 1;
width = 694;
}
);
leftKerningGroup = V;
rightKerningGroup = V;
unicode = 0056;
userData = {
com.schriftgestaltung.Glyphs.ColorIndex = 4;
com.typesupply.AccentFactory.yCoordinates = {
bottom = {
name = origin;
type = glyphMetric;
};
top = {
name = capHeight;
type = fontInfo;
};
};
};
},
{
color = 6;
glyphname = W;
lastChange = "2022-04-14 15:43:16 +0000";
layers = (
{
layerId = "ED744E86-D388-498D-94EB-FEBBBDC8F1CA";
paths = (
{
closed = 1;
nodes = (
"158 0 LINE",
"297 0 LINE",
"569 628 LINE",
"539 628 LINE",
"587 0 LINE",
"726 0 LINE",
"1045 695 LINE",
"924 695 LINE",
"652 32 LINE",
"681 32 LINE",
"631 695 LINE",
"499 695 LINE",
"220 32 LINE",
"249 32 LINE",
"205 695 LINE",
"84 695 LINE"
);
}
);
width = 991;
},
{
layerId = "15935870-0A58-425A-9765-D144975D2C89";
paths = (
{
closed = 1;
nodes = (
"110 0 LINE",
"423 0 LINE",
"571 461 LINE",
"551 461 LINE",
"550 0 LINE",
"863 0 LINE",
"1115 708 LINE",
"876 708 LINE",
"697 39 LINE",
"722 39 LINE",
"716 708 LINE",
"474 708 LINE",
"268 39 LINE",
"293 39 LINE",
"314 708 LINE",
"75 708 LINE"
);
}
);
width = 1050;
},
{
associatedMasterId = "ED744E86-D388-498D-94EB-FEBBBDC8F1CA";
layerId = "F7E1BE1C-E014-47C0-A9EC-67DB8D1081E9";
name = "12 avr. 22 à 16:47";
paths = (
{
closed = 1;
nodes = (
"164 -1 LINE",
"292 0 LINE",
"564 578 LINE",
"534 578 LINE",
"593 0 LINE",
"722 0 LINE",
"1051 695 LINE",
"929 695 LINE",
"656 66 LINE",
"690 65 LINE",
"639 695 LINE",
"511 695 LINE",
"227 67 LINE",
"260 67 LINE",
"211 695 LINE",
"90 695 LINE"
);
}
);
width = 999;
},
{
associatedMasterId = "15935870-0A58-425A-9765-D144975D2C89";
layerId = "85B013A0-5EC5-4578-9F68-AD07C0FB4D52";
name = "12 avr. 22 à 16:49";
paths = (
{
closed = 1;
nodes = (
"142 0 LINE",
"418 0 LINE",
"590 451 LINE",
"570 451 LINE",
"582 0 LINE",
"858 0 LINE",
"1145 708 LINE",
"906 708 LINE",
"715 112 LINE",
"769 112 LINE",
"746 708 LINE",
"504 708 LINE",
"271 112 LINE",
"325 112 LINE",
"344 708 LINE",
"105 708 LINE"
);
}
);
visible = 1;
width = 1100;
}
);
leftKerningGroup = W;
leftMetricsKey = V;
rightKerningGroup = W;
rightMetricsKey = V;
unicode = 0057;
userData = {
com.schriftgestaltung.Glyphs.ColorIndex = 4;
com.typemytype.robofont.layerData = {
b = {
anchors = (
);
components = (
);
contours = (
{
points = (
{
segmentType = line;
smooth = 0;
x = 229;
y = -2;
},
{
segmentType = line;
smooth = 0;
x = 245;
y = 0;
},
{
segmentType = line;
smooth = 0;
x = 473;
y = 727;
},
{
segmentType = line;
smooth = 0;
x = 435;
y = 727;
},
{
segmentType = line;
smooth = 0;
x = 638;
y = 0;
},
{
segmentType = line;
smooth = 0;
x = 654;
y = 0;
},
{
segmentType = line;
smooth = 0;
x = 877;
y = 684;
},
{
segmentType = line;
smooth = 0;
x = 860;
y = 684;
},
{
segmentType = line;
smooth = 0;
x = 636;
y = 7;
},
{
segmentType = line;
smooth = 0;
x = 650;
y = 5;
},
{
segmentType = line;
smooth = 0;
x = 459;
y = 684;
},
{
segmentType = line;
smooth = 0;
x = 442;
y = 684;
},
{
segmentType = line;
smooth = 0;
x = 230;
y = 10;
},
{
segmentType = line;
smooth = 0;
x = 239;
y = 10;
},
{
segmentType = line;
smooth = 0;
x = 54;
y = 684;
},
{
segmentType = line;
smooth = 0;
x = 36;
y = 684;
}
);
}
);
lib = {
};
name = W;
unicodes = (
);
width = 904;
};
};
com.typesupply.AccentFactory.yCoordinates = {
bottom = {
name = origin;
type = glyphMetric;
};
top = {
name = capHeight;
type = fontInfo;
};
};
};
},
{
glyphname = X;
lastChange = "2022-04-14 15:45:46 +0000";
layers = (
{
layerId = "ED744E86-D388-498D-94EB-FEBBBDC8F1CA";
paths = (
{
closed = 1;
nodes = (
"423 0 LINE",
"551 0 LINE",
"242 695 LINE",
"114 695 LINE"
);
},
{
closed = 1;
nodes = (
"293 378 LINE",
"-9 0 LINE",
"119 0 LINE",
"339 290 LINE"
);
},
{
closed = 1;
nodes = (
"373 317 LINE",
"675 695 LINE",
"547 695 LINE",
"327 405 LINE"
);
}
);
width = 641;
},
{
layerId = "15935870-0A58-425A-9765-D144975D2C89";
paths = (
{
closed = 1;
nodes = (
"451 0 LINE",
"714 0 LINE",
"338 708 LINE",
"75 708 LINE"
);
},
{
closed = 1;
nodes = (
"299 416 LINE",
"-40 0 LINE",
"213 0 LINE",
"399 243 LINE"
);
},
{
closed = 1;
nodes = (
"482 293 LINE",
"820 708 LINE",
"567 708 LINE",
"382 466 LINE"
);
}
);
width = 764;
}
);
leftKerningGroup = X;
rightKerningGroup = X;
unicode = 0058;
userData = {
com.schriftgestaltung.Glyphs.ColorIndex = 4;
com.typemytype.robofont.guides = (
{
angle = 90;
isGlobal = 0;
magnetic = 5;
x = 50;
y = 16;
},
{
angle = 90;
isGlobal = 0;
magnetic = 5;
x = 490;
y = 36;
},
{
angle = 0;
isGlobal = 0;
magnetic = 5;
x = 511;
y = 352;
}
);
com.typesupply.AccentFactory.yCoordinates = {
bottom = {
name = origin;
type = glyphMetric;
};
top = {
name = capHeight;
type = fontInfo;
};
};
};
},
{
glyphname = Y;
lastChange = "2022-04-14 15:44:03 +0000";
layers = (
{
anchors = (
{
name = top;
position = "{372, 696}";
}
);
layerId = "ED744E86-D388-498D-94EB-FEBBBDC8F1CA";
paths = (
{
closed = 1;
nodes = (
"237 252 LINE",
"192 0 LINE",
"306 0 LINE",
"351 252 LINE",
"659 695 LINE",
"531 695 LINE",
"275 300 LINE",
"328 300 LINE",
"211 695 LINE",
"84 695 LINE"
);
}
);
width = 600;
},
{
anchors = (
{
name = top;
position = "{437, 711}";
}
);
layerId = "15935870-0A58-425A-9765-D144975D2C89";
paths = (
{
closed = 1;
nodes = (
"237 215 LINE",
"199 0 LINE",
"421 0 LINE",
"459 215 LINE",
"800 708 LINE",
"550 708 LINE",
"337 368 LINE",
"417 368 LINE",
"324 708 LINE",
"70 708 LINE"
);
}
);
width = 725;
}
);
leftKerningGroup = Y;
rightKerningGroup = Y;
unicode = 0059;
userData = {
com.schriftgestaltung.Glyphs.ColorIndex = 4;
com.typesupply.AccentFactory.yCoordinates = {
bottom = {
name = origin;
type = glyphMetric;
};
top = {
name = capHeight;
type = fontInfo;
};
};
};
},
{
glyphname = Z;
lastChange = "2022-04-14 15:46:56 +0000";
layers = (
{
anchors = (
{
name = top;
position = "{349, 696}";
}
);
background = {
paths = (
{
closed = 1;
nodes = (
"507 695 LINE",
"49 695 LINE",
"49 606 LINE",
"375 606 LINE",
"49 89 LINE",
"49 0 LINE",
"507 0 LINE",
"507 89 LINE",
"180 89 LINE",
"507 606 LINE"
);
}
);
};
layerId = "ED744E86-D388-498D-94EB-FEBBBDC8F1CA";
paths = (
{
closed = 1;
nodes = (
"578 695 LINE",
"120 695 LINE",
"102 596 LINE",
"424 596 LINE",
"13 89 LINE",
"-3 0 LINE",
"455 0 LINE",
"473 99 LINE",
"150 99 LINE",
"562 606 LINE"
);
}
);
width = 554;
},
{
anchors = (
{
name = top;
position = "{391, 711}";
}
);
layerId = "15935870-0A58-425A-9765-D144975D2C89";
paths = (
{
closed = 1;
nodes = (
"655 708 LINE",
"125 708 LINE",
"94 532 LINE",
"374 532 LINE",
"30 167 LINE",
"0 0 LINE",
"530 0 LINE",
"561 177 LINE",
"277 177 LINE",
"626 541 LINE"
);
}
);
width = 630;
}
);
leftKerningGroup = Z;
rightKerningGroup = Z;
unicode = 005A;
userData = {
com.schriftgestaltung.Glyphs.ColorIndex = 4;
com.typesupply.AccentFactory.yCoordinates = {
bottom = {
name = origin;
type = glyphMetric;
};
top = {
name = capHeight;
type = fontInfo;
};
};
};
},
{
color = 8;
glyphname = A.ss07;
lastChange = "2022-04-14 13:59:24 +0000";
layers = (
{
anchors = (
{
name = ogonek;
position = "{616, 0}";
},
{
name = top;
position = "{424, 696}";
}
);
layerId = "ED744E86-D388-498D-94EB-FEBBBDC8F1CA";
paths = (
{
closed = 1;
nodes = (
"358 696 LINE",
"-14 0 LINE",
"105 0 LINE",
"439 634 LINE",
"386 634 LINE",
"496 0 LINE",
"616 0 LINE",
"490 696 LINE"
);
},
{
closed = 1;
nodes = (
"180 142 LINE",
"531 142 LINE",
"517 231 LINE",
"266 231 LINE"
);
}
);
width = 695;
},
{
anchors = (
{
name = ogonek;
position = "{730, 0}";
},
{
name = top;
position = "{470, 711}";
}
);
layerId = "15935870-0A58-425A-9765-D144975D2C89";
paths = (
{
closed = 1;
nodes = (
"341 708 LINE",
"-43 0 LINE",
"190 0 LINE",
"488 593 LINE",
"409 593 LINE",
"496 0 LINE",
"730 0 LINE",
"597 708 LINE"
);
},
{
closed = 1;
nodes = (
"244 107 LINE",
"610 107 LINE",
"585 274 LINE",
"377 274 LINE"
);
}
);
width = 780;
}
);
leftKerningGroup = A;
leftMetricsKey = A;
rightKerningGroup = A;
rightMetricsKey = A;
userData = {
com.schriftgestaltung.Glyphs.ColorIndex = 4;
com.typesupply.AccentFactory.yCoordinates = {
bottom = {
name = origin;
type = glyphMetric;
};
top = {
name = capHeight;
type = fontInfo;
};
};
};
},
{
color = 8;
glyphname = Aogonek.ss07;
lastChange = "2022-04-14 13:59:24 +0000";
layers = (
{
anchors = (
{
name = _ogonek;
position = "{657, 0}";
}
);
background = {
paths = (
{
closed = 1;
nodes = (
"183 142 LINE",
"599 142 LINE",
"569 231 LINE",
"212 231 LINE"
);
},
{
closed = 1;
nodes = (
"79 0 LINE",
"198 0 LINE",
"404 586 LINE",
"384 586 LINE",
"598 -24 LINE",
"603 1 LINE",
"546 -7 OFFCURVE",
"509 -42 OFFCURVE",
"509 -96 CURVE SMOOTH",
"509 -165 OFFCURVE",
"566 -205 OFFCURVE",
"637 -205 CURVE SMOOTH",
"743 -205 LINE",
"743 -133 LINE",
"659 -133 LINE SMOOTH",
"624 -133 OFFCURVE",
"603 -126 OFFCURVE",
"603 -96 CURVE SMOOTH",
"603 -66 OFFCURVE",
"624 -60 OFFCURVE",
"659 -60 CURVE SMOOTH",
"709 -60 LINE",
"709 1 LINE",
"460 696 LINE",
"328 696 LINE"
);
}
);
};
components = (
{
name = A.ss07;
},
{
name = ogonek;
transform = "{1, 0, 0, 1, 459, 0}";
}
);
layerId = "ED744E86-D388-498D-94EB-FEBBBDC8F1CA";
width = 695;
},
{
anchors = (
{
name = _ogonek;
position = "{723, 0}";
}
);
background = {
paths = (
{
closed = 1;
nodes = (
"114 107 LINE",
"634 107 LINE",
"579 274 LINE",
"170 274 LINE"
);
},
{
closed = 1;
nodes = (
"0 0 LINE",
"233 0 LINE",
"426 593 LINE",
"347 593 LINE",
"549 -30 LINE",
"565 15 LINE",
"515 -13 OFFCURVE",
"494 -49 OFFCURVE",
"494 -97 CURVE",
"494 -192 OFFCURVE",
"577 -219 OFFCURVE",
"644 -219 CURVE",
"812 -219 LINE",
"812 -106 LINE",
"667 -106 LINE SMOOTH",
"651 -106 OFFCURVE",
"641 -100 OFFCURVE",
"641 -90 CURVE SMOOTH",
"641 -80 OFFCURVE",
"651 -75 OFFCURVE",
"667 -75 CURVE SMOOTH",
"767 -75 LINE",
"767 15 LINE",
"515 708 LINE",
"259 708 LINE"
);
}
);
};
components = (
{
name = A.ss07;
},
{
name = ogonek;
transform = "{1, 0, 0, 1, 488, 0}";
}
);
layerId = "15935870-0A58-425A-9765-D144975D2C89";
width = 780;
}
);
leftKerningGroup = A;
leftMetricsKey = A;
rightKerningGroup = A;
rightMetricsKey = A;
userData = {
com.schriftgestaltung.Glyphs.ColorIndex = 8;
com.typesupply.AccentFactory.compileType = manual;
};
},
{
color = 8;
glyphname = H.ss07;
lastChange = "2022-02-17 13:53:55 +0000";
layers = (
{
guideLines = (
{
position = "{474, 675}";
}
);
layerId = "ED744E86-D388-498D-94EB-FEBBBDC8F1CA";
paths = (
{
closed = 1;
nodes = (
"26 0 LINE",
"140 0 LINE",
"263 695 LINE",
"149 695 LINE"
);
},
{
closed = 1;
nodes = (
"467 0 LINE",
"581 0 LINE",
"704 695 LINE",
"590 695 LINE"
);
},
{
closed = 1;
nodes = (
"194 307 LINE",
"548 307 LINE",
"564 395 LINE",
"279 395 LINE"
);
}
);
width = 705;
},
{
layerId = "15935870-0A58-425A-9765-D144975D2C89";
paths = (
{
closed = 1;
nodes = (
"0 0 LINE",
"222 0 LINE",
"347 708 LINE",
"125 708 LINE"
);
},
{
closed = 1;
nodes = (
"433 0 LINE",
"655 0 LINE",
"780 708 LINE",
"558 708 LINE"
);
},
{
closed = 1;
nodes = (
"271 276 LINE",
"504 276 LINE",
"535 453 LINE",
"412 453 LINE"
);
}
);
width = 755;
}
);
leftKerningGroup = H;
leftMetricsKey = H;
rightKerningGroup = H;
rightMetricsKey = H;
userData = {
com.schriftgestaltung.Glyphs.ColorIndex = 4;
com.typesupply.AccentFactory.yCoordinates = {
bottom = {
name = origin;
type = glyphMetric;
};
top = {
name = capHeight;
type = fontInfo;
};
};
};
},
{
color = 8;
glyphname = L.ss07;
lastChange = "2022-04-14 13:59:24 +0000";
layers = (
{
anchors = (
{
name = bottom;
position = "{199, 0}";
},
{
name = commaaccent;
position = "{201, 10}";
},
{
name = top;
position = "{296, 696}";
},
{
name = topright;
position = "{498, 696}";
}
);
layerId = "ED744E86-D388-498D-94EB-FEBBBDC8F1CA";
paths = (
{
closed = 1;
nodes = (
"149 695 LINE",
"263 695 LINE",
"141 0 LINE",
"26 0 LINE"
);
},
{
closed = 1;
nodes = (
"225 87 LINE",
"391 87 LINE",
"375 0 LINE",
"141 0 LINE"
);
}
);
width = 439;
},
{
anchors = (
{
name = bottom;
position = "{215, 0}";
},
{
name = commaaccent;
position = "{217, 10}";
},
{
name = top;
position = "{307, 711}";
},
{
name = topright;
position = "{542, 711}";
}
);
layerId = "15935870-0A58-425A-9765-D144975D2C89";
paths = (
{
closed = 1;
nodes = (
"125 708 LINE",
"347 708 LINE",
"222 0 LINE",
"0 0 LINE"
);
},
{
closed = 1;
nodes = (
"356 168 LINE",
"466 168 LINE",
"436 0 LINE",
"222 0 LINE"
);
}
);
width = 496;
}
);
leftKerningGroup = H;
leftMetricsKey = L;
rightKerningGroup = L;
rightMetricsKey = L;
userData = {
com.schriftgestaltung.Glyphs.ColorIndex = 4;
com.typesupply.AccentFactory.yCoordinates = {
bottom = {
name = origin;
type = glyphMetric;
};
top = {
name = capHeight;
type = fontInfo;
};
};
};
},
{
color = 8;
glyphname = R.ss07;
lastChange = "2022-04-14 13:59:24 +0000";
layers = (
{
anchors = (
{
name = bottom;
position = "{267, 0}";
},
{
name = top;
position = "{390, 696}";
}
);
layerId = "ED744E86-D388-498D-94EB-FEBBBDC8F1CA";
paths = (
{
closed = 1;
nodes = (
"481 487 CURVE SMOOTH",
"469 417 OFFCURVE",
"420 368 OFFCURVE",
"331 368 CURVE SMOOTH",
"205 368 LINE",
"247 606 LINE",
"373 606 LINE SMOOTH",
"462 606 OFFCURVE",
"494 559 OFFCURVE"
);
},
{
closed = 1;
nodes = (
"149 695 LINE",
"26 0 LINE",
"140 0 LINE",
"189 278 LINE",
"315 278 LINE SMOOTH",
"496 278 OFFCURVE",
"581 388 OFFCURVE",
"598 487 CURVE SMOOTH",
"618 600 OFFCURVE",
"554 695 OFFCURVE",
"389 695 CURVE SMOOTH"
);
},
{
closed = 1;
nodes = (
"277 278 LINE",
"387 0 LINE",
"517 0 LINE",
"424 223 LINE"
);
}
);
width = 621;
},
{
anchors = (
{
name = bottom;
position = "{275, 0}";
},
{
name = top;
position = "{401, 711}";
}
);
layerId = "15935870-0A58-425A-9765-D144975D2C89";
paths = (
{
closed = 1;
nodes = (
"456 462 CURVE SMOOTH",
"448 420 OFFCURVE",
"423 402 OFFCURVE",
"381 402 CURVE SMOOTH",
"293 402 LINE",
"314 522 LINE",
"402 522 LINE SMOOTH",
"444 522 OFFCURVE",
"462 498 OFFCURVE"
);
},
{
closed = 1;
nodes = (
"125 708 LINE",
"0 0 LINE",
"222 0 LINE",
"267 254 LINE",
"375 254 LINE SMOOTH",
"553 254 OFFCURVE",
"661 352 OFFCURVE",
"683 476 CURVE SMOOTH",
"706 606 OFFCURVE",
"633 708 OFFCURVE",
"455 708 CURVE SMOOTH"
);
},
{
closed = 1;
nodes = (
"267 254 LINE",
"356 0 LINE",
"600 0 LINE",
"522 197 LINE"
);
}
);
width = 670;
}
);
leftKerningGroup = H;
leftMetricsKey = R;
rightKerningGroup = R;
rightMetricsKey = R;
userData = {
com.schriftgestaltung.Glyphs.ColorIndex = 4;
com.typesupply.AccentFactory.yCoordinates = {
bottom = {
name = origin;
type = glyphMetric;
};
top = {
name = capHeight;
type = fontInfo;
};
};
};
},
{
color = 8;
glyphname = T.ss07;
lastChange = "2022-04-14 13:59:24 +0000";
layers = (
{
anchors = (
{
name = bottom;
position = "{222, 0}";
},
{
name = top;
position = "{347, 696}";
}
);
layerId = "ED744E86-D388-498D-94EB-FEBBBDC8F1CA";
paths = (
{
closed = 1;
nodes = (
"281 0 LINE",
"167 0 LINE",
"274 606 LINE",
"377 542 LINE"
);
},
{
closed = 1;
nodes = (
"573 606 LINE",
"589 695 LINE",
"104 695 LINE",
"88 606 LINE"
);
}
);
width = 555;
},
{
anchors = (
{
name = bottom;
position = "{248, 0}";
},
{
name = top;
position = "{374, 711}";
}
);
layerId = "15935870-0A58-425A-9765-D144975D2C89";
paths = (
{
closed = 1;
nodes = (
"363 0 LINE",
"141 0 LINE",
"235 532 LINE",
"442 447 LINE"
);
},
{
closed = 1;
nodes = (
"645 532 LINE",
"676 708 LINE",
"80 708 LINE",
"49 532 LINE"
);
}
);
width = 611;
}
);
leftKerningGroup = T;
leftMetricsKey = T;
rightKerningGroup = T;
rightMetricsKey = T;
userData = {
com.schriftgestaltung.Glyphs.ColorIndex = 4;
com.typesupply.AccentFactory.yCoordinates = {
bottom = {
name = origin;
type = glyphMetric;
};
top = {
name = capHeight;
type = fontInfo;
};
};
};
},
{
glyphname = a;
lastChange = "2022-04-15 09:32:56 +0000";
layers = (
{
anchors = (
{
name = ogonek;
position = "{493, 0}";
},
{
name = top;
position = "{353, 567}";
}
);
guideLines = (
{
position = "{238, 66}";
},
{
position = "{565, 446}";
}
);
layerId = "ED744E86-D388-498D-94EB-FEBBBDC8F1CA";
paths = (
{
closed = 1;
nodes = (
"377 0 LINE",
"493 0 LINE",
"550 323 LINE SMOOTH",
"553 342 OFFCURVE",
"555 360 OFFCURVE",
"555 376 CURVE SMOOTH",
"555 499 OFFCURVE",
"467 567 OFFCURVE",
"353 567 CURVE SMOOTH",
"208 567 OFFCURVE",
"114 481 OFFCURVE",
"77 362 CURVE",
"189 362 LINE",
"213 434 OFFCURVE",
"267 473 OFFCURVE",
"331 473 CURVE SMOOTH",
"400 473 OFFCURVE",
"437 432 OFFCURVE",
"437 362 CURVE SMOOTH",
"437 351 OFFCURVE",
"436 339 OFFCURVE",
"434 326 CURVE",
"278 326 LINE SMOOTH",
"135 326 OFFCURVE",
"23 251 OFFCURVE",
"23 134 CURVE SMOOTH",
"23 46 OFFCURVE",
"87 -10 OFFCURVE",
"184 -10 CURVE SMOOTH",
"272 -10 OFFCURVE",
"354 32 OFFCURVE",
"391 80 CURVE"
);
},
{
closed = 1;
nodes = (
"174 89 OFFCURVE",
"143 117 OFFCURVE",
"143 159 CURVE SMOOTH",
"143 203 OFFCURVE",
"184 245 OFFCURVE",
"264 245 CURVE SMOOTH",
"420 245 LINE",
"420 242 LINE",
"401 136 OFFCURVE",
"299 89 OFFCURVE",
"230 89 CURVE SMOOTH"
);
}
);
width = 607;
},
{
anchors = (
{
name = ogonek;
position = "{551, 0}";
},
{
name = top;
position = "{365, 572}";
}
);
layerId = "15935870-0A58-425A-9765-D144975D2C89";
paths = (
{
closed = 1;
nodes = (
"330 0 LINE",
"551 0 LINE",
"609 329 LINE SMOOTH",
"612 348 OFFCURVE",
"613 363 OFFCURVE",
"613 379 CURVE SMOOTH",
"613 496 OFFCURVE",
"523 572 OFFCURVE",
"365 572 CURVE SMOOTH",
"204 572 OFFCURVE",
"89 479 OFFCURVE",
"47 354 CURVE",
"271 354 LINE",
"283 375 OFFCURVE",
"304 394 OFFCURVE",
"337 394 CURVE SMOOTH",
"368 394 OFFCURVE",
"388 377 OFFCURVE",
"388 346 CURVE SMOOTH",
"388 340 OFFCURVE",
"387 334 OFFCURVE",
"386 328 CURVE",
"289 328 LINE SMOOTH",
"129 328 OFFCURVE",
"1 252 OFFCURVE",
"1 128 CURVE SMOOTH",
"1 35 OFFCURVE",
"66 -11 OFFCURVE",
"150 -11 CURVE SMOOTH",
"226 -11 OFFCURVE",
"307 20 OFFCURVE",
"343 76 CURVE"
);
},
{
closed = 1;
nodes = (
"248 143 OFFCURVE",
"232 154 OFFCURVE",
"232 174 CURVE SMOOTH",
"232 201 OFFCURVE",
"259 223 OFFCURVE",
"297 223 CURVE SMOOTH",
"367 223 LINE",
"367 221 LINE SMOOTH",
"359 180 OFFCURVE",
"317 143 OFFCURVE",
"273 143 CURVE SMOOTH"
);
}
);
width = 641;
}
);
leftKerningGroup = a;
rightKerningGroup = n;
rightMetricsKey = n;
unicode = 0061;
userData = {
com.schriftgestaltung.Glyphs.ColorIndex = 4;
com.typemytype.robofont.guides = (
{
angle = 90;
isGlobal = 0;
magnetic = 5;
x = 306;
y = 501;
},
{
angle = 0;
isGlobal = 0;
magnetic = 5;
x = 88;
y = 270;
}
);
com.typesupply.AccentFactory.yCoordinates = {
bottom = {
name = origin;
type = glyphMetric;
};
top = {
name = xHeight;
type = fontInfo;
};
};
};
},
{
color = 6;
glyphname = ae;
lastChange = "2023-04-03 14:33:55 +0000";
layers = (
{
layerId = "ED744E86-D388-498D-94EB-FEBBBDC8F1CA";
paths = (
{
closed = 1;
nodes = (
"526 187 LINE",
"550 323 LINE SMOOTH",
"553 340 OFFCURVE",
"555 358 OFFCURVE",
"555 377 CURVE SMOOTH",
"555 499 OFFCURVE",
"469 567 OFFCURVE",
"348 567 CURVE SMOOTH",
"204 567 OFFCURVE",
"110 472 OFFCURVE",
"77 362 CURVE",
"189 362 LINE",
"213 434 OFFCURVE",
"267 473 OFFCURVE",
"331 473 CURVE SMOOTH",
"400 473 OFFCURVE",
"437 432 OFFCURVE",
"437 362 CURVE SMOOTH",
"437 351 OFFCURVE",
"436 339 OFFCURVE",
"434 323 CURVE",
"279 323 LINE SMOOTH",
"135 323 OFFCURVE",
"23 252 OFFCURVE",
"23 132 CURVE SMOOTH",
"23 46 OFFCURVE",
"81 -10 OFFCURVE",
"199 -10 CURVE SMOOTH",
"268 -10 OFFCURVE",
"380 9 OFFCURVE",
"508 165 CURVE SMOOTH"
);
},
{
closed = 1;
nodes = (
"174 89 OFFCURVE",
"143 118 OFFCURVE",
"143 158 CURVE SMOOTH",
"143 203 OFFCURVE",
"184 241 OFFCURVE",
"264 241 CURVE SMOOTH",
"420 241 LINE",
"420 242 LINE",
"401 136 OFFCURVE",
"299 89 OFFCURVE",
"229 89 CURVE SMOOTH"
);
},
{
closed = 1;
nodes = (
"515 241 LINE",
"926 241 LINE",
"931 254 OFFCURVE",
"936 268 OFFCURVE",
"940 291 CURVE SMOOTH",
"969 449 OFFCURVE",
"877 560 OFFCURVE",
"732 560 CURVE SMOOTH",
"584 560 OFFCURVE",
"453 444 OFFCURVE",
"424 276 CURVE SMOOTH",
"394 105 OFFCURVE",
"488 -9 OFFCURVE",
"634 -9 CURVE SMOOTH",
"754 -9 OFFCURVE",
"854 68 OFFCURVE",
"902 164 CURVE",
"779 164 LINE",
"751 121 OFFCURVE",
"706 87 OFFCURVE",
"651 87 CURVE SMOOTH",
"577 87 OFFCURVE",
"521 150 OFFCURVE",
"537 251 CURVE SMOOTH",
"544 295 LINE SMOOTH",
"561 400 OFFCURVE",
"640 464 OFFCURVE",
"713 464 CURVE SMOOTH",
"781 464 OFFCURVE",
"840 410 OFFCURVE",
"826 323 CURVE",
"531 323 LINE"
);
}
);
width = 967;
},
{
layerId = "15935870-0A58-425A-9765-D144975D2C89";
paths = (
{
closed = 1;
nodes = (
"589 219 LINE",
"608 329 LINE SMOOTH",
"611 348 OFFCURVE",
"612 360 OFFCURVE",
"612 374 CURVE SMOOTH",
"612 496 OFFCURVE",
"522 572 OFFCURVE",
"369 572 CURVE SMOOTH",
"199 572 OFFCURVE",
"89 479 OFFCURVE",
"46 354 CURVE",
"270 354 LINE",
"282 375 OFFCURVE",
"303 394 OFFCURVE",
"336 394 CURVE SMOOTH",
"367 394 OFFCURVE",
"387 377 OFFCURVE",
"387 346 CURVE SMOOTH",
"387 340 OFFCURVE",
"386 337 OFFCURVE",
"385 334 CURVE",
"288 334 LINE SMOOTH",
"129 334 OFFCURVE",
"0 253 OFFCURVE",
"0 126 CURVE SMOOTH",
"0 38 OFFCURVE",
"72 -11 OFFCURVE",
"175 -11 CURVE SMOOTH",
"266 -11 OFFCURVE",
"372 0 OFFCURVE",
"502 131 CURVE SMOOTH"
);
},
{
closed = 1;
nodes = (
"247 143 OFFCURVE",
"231 154 OFFCURVE",
"231 174 CURVE SMOOTH",
"231 201 OFFCURVE",
"258 223 OFFCURVE",
"296 223 CURVE SMOOTH",
"366 223 LINE",
"366 221 LINE SMOOTH",
"366 179 OFFCURVE",
"316 143 OFFCURVE",
"272 143 CURVE SMOOTH"
);
},
{
closed = 1;
nodes = (
"571 243 LINE",
"948 243 LINE",
"953 257 OFFCURVE",
"956 273 OFFCURVE",
"959 287 CURVE",
"990 464 OFFCURVE",
"890 571 OFFCURVE",
"721 571 CURVE SMOOTH",
"552 571 OFFCURVE",
"414 462 OFFCURVE",
"382 282 CURVE",
"350 107 OFFCURVE",
"448 -7 OFFCURVE",
"615 -7 CURVE SMOOTH",
"761 -7 OFFCURVE",
"885 80 OFFCURVE",
"932 203 CURVE",
"697 203 LINE",
"686 186 OFFCURVE",
"668 170 OFFCURVE",
"639 170 CURVE SMOOTH",
"603 170 OFFCURVE",
"583 193 OFFCURVE",
"594 258 CURVE SMOOTH",
"603 311 LINE SMOOTH",
"613 370 OFFCURVE",
"645 397 OFFCURVE",
"690 397 CURVE",
"723 397 OFFCURVE",
"750 382 OFFCURVE",
"742 334 CURVE",
"587 334 LINE"
);
}
);
width = 976;
}
);
leftMetricsKey = a;
rightMetricsKey = e;
unicode = 00E6;
},
{
glyphname = b;
lastChange = "2022-04-14 10:10:16 +0000";
layers = (
{
background = {
paths = (
{
closed = 1;
nodes = (
"182 465 CURVE",
"182 740 LINE",
"68 740 LINE",
"68 0 LINE",
"182 0 LINE",
"182 84 LINE",
"218 34 OFFCURVE",
"283 -9 OFFCURVE",
"374 -9 CURVE SMOOTH",
"519 -9 OFFCURVE",
"633 108 OFFCURVE",
"633 278 CURVE SMOOTH",
"633 448 OFFCURVE",
"520 560 OFFCURVE",
"374 560 CURVE SMOOTH",
"287 560 OFFCURVE",
"218 517 OFFCURVE"
);
},
{
closed = 1;
nodes = (
"517 278 CURVE SMOOTH",
"517 159 OFFCURVE",
"435 90 OFFCURVE",
"349 90 CURVE SMOOTH",
"264 90 OFFCURVE",
"182 157 OFFCURVE",
"182 276 CURVE SMOOTH",
"182 394 OFFCURVE",
"264 461 OFFCURVE",
"349 461 CURVE SMOOTH",
"435 461 OFFCURVE",
"517 397 OFFCURVE"
);
}
);
};
layerId = "ED744E86-D388-498D-94EB-FEBBBDC8F1CA";
paths = (
{
closed = 1;
nodes = (
"213 469 CURVE",
"261 740 LINE",
"147 740 LINE",
"16 0 LINE",
"130 0 LINE",
"144 80 LINE",
"172 32 OFFCURVE",
"230 -9 OFFCURVE",
"321 -9 CURVE SMOOTH",
"466 -9 OFFCURVE",
"600 108 OFFCURVE",
"630 278 CURVE SMOOTH",
"660 448 OFFCURVE",
"567 560 OFFCURVE",
"421 560 CURVE SMOOTH",
"334 560 OFFCURVE",
"258 519 OFFCURVE"
);
},
{
closed = 1;
nodes = (
"514 278 CURVE SMOOTH",
"493 159 OFFCURVE",
"399 90 OFFCURVE",
"313 90 CURVE SMOOTH",
"228 90 OFFCURVE",
"158 157 OFFCURVE",
"179 276 CURVE SMOOTH",
"200 394 OFFCURVE",
"294 461 OFFCURVE",
"379 461 CURVE SMOOTH",
"465 461 OFFCURVE",
"535 397 OFFCURVE"
);
}
);
width = 665;
},
{
layerId = "15935870-0A58-425A-9765-D144975D2C89";
paths = (
{
closed = 1;
nodes = (
"308 487 CURVE",
"353 740 LINE",
"131 740 LINE",
"0 0 LINE",
"222 0 LINE",
"236 77 LINE",
"254 26 OFFCURVE",
"301 -7 OFFCURVE",
"376 -7 CURVE",
"506 -7 OFFCURVE",
"628 100 OFFCURVE",
"660 282 CURVE",
"692 464 OFFCURVE",
"608 571 OFFCURVE",
"478 571 CURVE",
"403 571 OFFCURVE",
"344 538 OFFCURVE"
);
},
{
closed = 1;
nodes = (
"435 282 CURVE",
"424 220 OFFCURVE",
"382 187 OFFCURVE",
"336 187 CURVE",
"290 187 OFFCURVE",
"260 220 OFFCURVE",
"271 282 CURVE",
"282 344 OFFCURVE",
"324 377 OFFCURVE",
"370 377 CURVE",
"416 377 OFFCURVE",
"446 344 OFFCURVE"
);
}
);
width = 680;
}
);
leftKerningGroup = h;
leftMetricsKey = l;
rightKerningGroup = o;
rightMetricsKey = o;
unicode = 0062;
userData = {
com.schriftgestaltung.Glyphs.ColorIndex = 4;
com.typemytype.robofont.layerData = {
b = {
anchors = (
);
components = (
);
contours = (
{
points = (
{
segmentType = curve;
smooth = 0;
x = 105;
y = 398;
},
{
segmentType = line;
smooth = 0;
x = 105;
y = 740;
},
{
segmentType = line;
smooth = 0;
x = 85;
y = 740;
},
{
segmentType = line;
smooth = 0;
x = 85;
y = 0;
},
{
segmentType = line;
smooth = 0;
x = 105;
y = 0;
},
{
segmentType = line;
smooth = 0;
x = 105;
y = 140;
},
{
smooth = 0;
x = 137;
y = 60;
},
{
smooth = 0;
x = 223;
y = -12;
},
{
segmentType = curve;
smooth = 1;
x = 342;
y = -12;
},
{
smooth = 0;
x = 498;
y = -12;
},
{
smooth = 0;
x = 611;
y = 108;
},
{
segmentType = curve;
smooth = 1;
x = 611;
y = 278;
},
{
smooth = 0;
x = 611;
y = 448;
},
{
smooth = 0;
x = 498;
y = 552;
},
{
segmentType = curve;
smooth = 1;
x = 342;
y = 552;
},
{
smooth = 0;
x = 223;
y = 552;
},
{
smooth = 0;
x = 138;
y = 480;
}
);
},
{
points = (
{
segmentType = curve;
smooth = 1;
x = 590;
y = 278;
},
{
smooth = 0;
x = 590;
y = 118;
},
{
smooth = 0;
x = 480;
y = 5;
},
{
segmentType = curve;
smooth = 1;
x = 347;
y = 5;
},
{
smooth = 0;
x = 215;
y = 5;
},
{
smooth = 0;
x = 105;
y = 110;
},
{
segmentType = curve;
smooth = 1;
x = 105;
y = 270;
},
{
smooth = 0;
x = 105;
y = 430;
},
{
smooth = 0;
x = 215;
y = 536;
},
{
segmentType = curve;
smooth = 1;
x = 347;
y = 536;
},
{
smooth = 0;
x = 480;
y = 536;
},
{
smooth = 0;
x = 590;
y = 438;
}
);
}
);
lib = {
};
name = b;
unicodes = (
);
width = 671;
};
};
com.typesupply.AccentFactory.yCoordinates = {
bottom = {
name = origin;
type = glyphMetric;
};
top = {
name = ascender;
type = fontInfo;
};
};
};
},
{
glyphname = c;
lastChange = "2022-04-15 09:12:28 +0000";
layers = (
{
anchors = (
{
name = bottom;
position = "{249, 0}";
},
{
name = top;
position = "{346, 551}";
}
);
layerId = "ED744E86-D388-498D-94EB-FEBBBDC8F1CA";
paths = (
{
closed = 1;
nodes = (
"35 276 CURVE SMOOTH",
"4 103 OFFCURVE",
"97 -9 OFFCURVE",
"255 -9 CURVE SMOOTH",
"390 -9 OFFCURVE",
"491 66 OFFCURVE",
"541 174 CURVE",
"418 174 LINE",
"387 117 OFFCURVE",
"340 87 OFFCURVE",
"272 87 CURVE SMOOTH",
"180 87 OFFCURVE",
"131 155 OFFCURVE",
"152 276 CURVE SMOOTH",
"173 396 OFFCURVE",
"246 464 OFFCURVE",
"338 464 CURVE SMOOTH",
"406 464 OFFCURVE",
"444 430 OFFCURVE",
"454 377 CURVE",
"577 377 LINE",
"566 493 OFFCURVE",
"490 560 OFFCURVE",
"355 560 CURVE SMOOTH",
"197 560 OFFCURVE",
"65 448 OFFCURVE"
);
}
);
width = 579;
},
{
anchors = (
{
name = bottom;
position = "{249, 0}";
},
{
name = top;
position = "{349, 564}";
}
);
layerId = "15935870-0A58-425A-9765-D144975D2C89";
paths = (
{
closed = 1;
nodes = (
"20 282 CURVE",
"-12 102 OFFCURVE",
"88 -7 OFFCURVE",
"257 -7 CURVE SMOOTH",
"402 -7 OFFCURVE",
"526 79 OFFCURVE",
"579 227 CURVE",
"344 227 LINE",
"332 200 OFFCURVE",
"314 183 OFFCURVE",
"286 183 CURVE SMOOTH",
"252 183 OFFCURVE",
"233 214 OFFCURVE",
"245 282 CURVE",
"257 350 OFFCURVE",
"286 381 OFFCURVE",
"320 381 CURVE SMOOTH",
"348 381 OFFCURVE",
"360 364 OFFCURVE",
"364 337 CURVE",
"599 337 LINE",
"598 485 OFFCURVE",
"504 571 OFFCURVE",
"359 571 CURVE SMOOTH",
"190 571 OFFCURVE",
"52 462 OFFCURVE"
);
}
);
width = 597;
}
);
leftKerningGroup = o;
leftMetricsKey = o;
rightKerningGroup = c;
unicode = 0063;
userData = {
com.schriftgestaltung.Glyphs.ColorIndex = 4;
com.typemytype.robofont.guides = (
{
angle = 90;
isGlobal = 0;
magnetic = 5;
x = 287;
y = 532;
}
);
com.typesupply.AccentFactory.yCoordinates = {
bottom = {
name = origin;
type = glyphMetric;
};
top = {
name = xHeight;
type = fontInfo;
};
};
};
},
{
glyphname = d;
lastChange = "2022-04-15 09:29:48 +0000";
layers = (
{
anchors = (
{
name = topright;
position = "{683, 740}";
}
);
background = {
paths = (
{
closed = 1;
nodes = (
"38 278 CURVE SMOOTH",
"38 108 OFFCURVE",
"153 -9 OFFCURVE",
"298 -9 CURVE SMOOTH",
"388 -9 OFFCURVE",
"454 39 OFFCURVE",
"489 103 CURVE",
"489 0 LINE",
"604 0 LINE",
"604 740 LINE",
"489 740 LINE",
"489 453 LINE",
"455 514 OFFCURVE",
"388 560 OFFCURVE",
"298 560 CURVE SMOOTH",
"153 560 OFFCURVE",
"38 448 OFFCURVE"
);
},
{
closed = 1;
nodes = (
"489 276 CURVE SMOOTH",
"489 157 OFFCURVE",
"408 90 OFFCURVE",
"322 90 CURVE SMOOTH",
"237 90 OFFCURVE",
"155 159 OFFCURVE",
"155 278 CURVE SMOOTH",
"155 397 OFFCURVE",
"237 461 OFFCURVE",
"322 461 CURVE SMOOTH",
"408 461 OFFCURVE",
"489 394 OFFCURVE"
);
}
);
};
layerId = "ED744E86-D388-498D-94EB-FEBBBDC8F1CA";
paths = (
{
closed = 1;
nodes = (
"35 278 CURVE SMOOTH",
"5 108 OFFCURVE",
"100 -9 OFFCURVE",
"245 -9 CURVE SMOOTH",
"335 -9 OFFCURVE",
"408 33 OFFCURVE",
"452 83 CURVE",
"437 0 LINE",
"552 0 LINE",
"683 740 LINE",
"568 740 LINE",
"521 474 LINE",
"488 526 OFFCURVE",
"418 560 OFFCURVE",
"346 560 CURVE SMOOTH",
"200 560 OFFCURVE",
"65 448 OFFCURVE"
);
},
{
closed = 1;
nodes = (
"486 276 CURVE SMOOTH",
"465 157 OFFCURVE",
"372 90 OFFCURVE",
"286 90 CURVE SMOOTH",
"201 90 OFFCURVE",
"131 159 OFFCURVE",
"152 278 CURVE SMOOTH",
"173 397 OFFCURVE",
"267 461 OFFCURVE",
"352 461 CURVE SMOOTH",
"438 461 OFFCURVE",
"507 394 OFFCURVE"
);
}
);
width = 666;
},
{
anchors = (
{
name = topright;
position = "{711, 740}";
}
);
layerId = "15935870-0A58-425A-9765-D144975D2C89";
paths = (
{
closed = 1;
nodes = (
"20 282 CURVE",
"-12 100 OFFCURVE",
"72 -7 OFFCURVE",
"202 -7 CURVE",
"277 -7 OFFCURVE",
"336 26 OFFCURVE",
"372 77 CURVE",
"358 0 LINE",
"580 0 LINE",
"711 740 LINE",
"489 740 LINE",
"444 487 LINE",
"426 538 OFFCURVE",
"379 571 OFFCURVE",
"304 571 CURVE",
"174 571 OFFCURVE",
"52 464 OFFCURVE"
);
},
{
closed = 1;
nodes = (
"409 282 CURVE",
"398 220 OFFCURVE",
"356 187 OFFCURVE",
"310 187 CURVE",
"264 187 OFFCURVE",
"234 220 OFFCURVE",
"245 282 CURVE",
"256 344 OFFCURVE",
"298 377 OFFCURVE",
"344 377 CURVE",
"390 377 OFFCURVE",
"420 344 OFFCURVE"
);
}
);
width = 680;
}
);
leftKerningGroup = o;
leftMetricsKey = o;
rightKerningGroup = l;
rightMetricsKey = l;
unicode = 0064;
userData = {
com.schriftgestaltung.Glyphs.ColorIndex = 4;
com.typesupply.AccentFactory.yCoordinates = {
bottom = {
name = origin;
type = glyphMetric;
};
top = {
name = ascender;
type = fontInfo;
};
};
};
},
{
glyphname = dcaron;
lastChange = "2022-04-14 09:43:24 +0000";
layers = (
{
components = (
{
name = d;
}
);
layerId = "ED744E86-D388-498D-94EB-FEBBBDC8F1CA";
paths = (
{
closed = 1;
nodes = (
"733 740 LINE",
"716 643 LINE",
"769 643 LINE",
"765 622 LINE SMOOTH",
"758 585 OFFCURVE",
"740 566 OFFCURVE",
"706 566 CURVE",
"697 516 LINE",
"772 516 OFFCURVE",
"818 558 OFFCURVE",
"832 640 CURVE SMOOTH",
"837 670 OFFCURVE",
"838 703 OFFCURVE",
"836 740 CURVE"
);
}
);
width = 781;
},
{
components = (
{
name = d;
}
);
layerId = "15935870-0A58-425A-9765-D144975D2C89";
paths = (
{
closed = 1;
nodes = (
"771 740 LINE",
"745 594 LINE",
"817 594 LINE",
"815 582 LINE SMOOTH",
"806 531 OFFCURVE",
"782 508 OFFCURVE",
"747 508 CURVE",
"733 429 LINE",
"847 429 OFFCURVE",
"912 509 OFFCURVE",
"929 606 CURVE SMOOTH",
"937 648 OFFCURVE",
"937 694 OFFCURVE",
"927 740 CURVE"
);
}
);
width = 882;
}
);
leftKerningGroup = o;
rightKerningGroup = l;
unicode = 010F;
userData = {
com.schriftgestaltung.Glyphs.ColorIndex = 8;
com.typesupply.AccentFactory.compileType = manual;
};
},
{
glyphname = dcroat;
lastChange = "2022-04-14 09:43:24 +0000";
layers = (
{
components = (
{
name = d;
}
);
layerId = "ED744E86-D388-498D-94EB-FEBBBDC8F1CA";
paths = (
{
closed = 1;
nodes = (
"458 590 LINE",
"714 590 LINE",
"726 656 LINE",
"470 656 LINE"
);
}
);
width = 678;
},
{
components = (
{
name = d;
}
);
layerId = "15935870-0A58-425A-9765-D144975D2C89";
paths = (
{
closed = 1;
nodes = (
"404 592 LINE",
"749 592 LINE",
"766 688 LINE",
"421 688 LINE"
);
}
);
width = 704;
}
);
leftKerningGroup = o;
rightKerningGroup = l;
unicode = 0111;
userData = {
com.schriftgestaltung.Glyphs.ColorIndex = 8;
};
},
{
glyphname = eth;
lastChange = "2022-04-14 09:43:24 +0000";
layers = (
{
layerId = "ED744E86-D388-498D-94EB-FEBBBDC8F1CA";
paths = (
{
closed = 1;
nodes = (
"327 649 LINE",
"316 588 LINE",
"620 682 LINE",
"630 743 LINE"
);
},
{
closed = 1;
nodes = (
"205 560 OFFCURVE",
"65 449 OFFCURVE",
"34 276 CURVE SMOOTH",
"3 103 OFFCURVE",
"103 -9 OFFCURVE",
"261 -9 CURVE SMOOTH",
"423 -9 OFFCURVE",
"565 101 OFFCURVE",
"603 317 CURVE SMOOTH",
"632 481 OFFCURVE",
"580 623 OFFCURVE",
"464 740 CURVE",
"348 740 LINE",
"433 658 OFFCURVE",
"482 587 OFFCURVE",
"503 503 CURVE",
"466 540 OFFCURVE",
"421 560 OFFCURVE",
"354 560 CURVE SMOOTH"
);
},
{
closed = 1;
nodes = (
"192 87 OFFCURVE",
"129 151 OFFCURVE",
"151 276 CURVE SMOOTH",
"173 401 OFFCURVE",
"261 464 OFFCURVE",
"346 464 CURVE SMOOTH",
"432 464 OFFCURVE",
"501 401 OFFCURVE",
"479 276 CURVE SMOOTH",
"457 151 OFFCURVE",
"363 87 OFFCURVE",
"278 87 CURVE SMOOTH"
);
}
);
width = 636;
},
{
layerId = "15935870-0A58-425A-9765-D144975D2C89";
paths = (
{
closed = 1;
nodes = (
"331 660 LINE",
"318 588 LINE",
"596 663 LINE",
"609 735 LINE"
);
},
{
closed = 1;
nodes = (
"194 568 OFFCURVE",
"52 462 OFFCURVE",
"20 284 CURVE SMOOTH",
"-11 105 OFFCURVE",
"113 -6 OFFCURVE",
"277 -6 CURVE SMOOTH",
"437 -6 OFFCURVE",
"592 107 OFFCURVE",
"629 317 CURVE SMOOTH",
"657 476 OFFCURVE",
"603 636 OFFCURVE",
"521 740 CURVE",
"328 740 LINE",
"364 702 OFFCURVE",
"408 627 OFFCURVE",
"429 560 CURVE",
"401 565 OFFCURVE",
"374 568 OFFCURVE",
"351 568 CURVE SMOOTH"
);
},
{
closed = 1;
nodes = (
"278 186 OFFCURVE",
"233 210 OFFCURVE",
"246 282 CURVE SMOOTH",
"259 354 OFFCURVE",
"306 377 OFFCURVE",
"341 377 CURVE SMOOTH",
"372 377 OFFCURVE",
"410 354 OFFCURVE",
"397 282 CURVE SMOOTH",
"384 210 OFFCURVE",
"345 186 OFFCURVE",
"311 186 CURVE SMOOTH"
);
}
);
width = 643;
}
);
leftKerningGroup = eth;
rightKerningGroup = eth;
unicode = 00F0;
userData = {
com.schriftgestaltung.Glyphs.ColorIndex = 4;
};
},
{
glyphname = e;
lastChange = "2022-04-15 09:31:51 +0000";
layers = (
{
anchors = (
{
name = bottom;
position = "{258, 0}";
},
{
name = ogonek;
position = "{370, 14}";
},
{
name = top;
position = "{355, 551}";
}
);
layerId = "ED744E86-D388-498D-94EB-FEBBBDC8F1CA";
paths = (
{
closed = 1;
nodes = (
"126 237 LINE",
"567 237 LINE",
"573 256 OFFCURVE",
"578 274 OFFCURVE",
"581 291 CURVE SMOOTH",
"609 451 OFFCURVE",
"517 560 OFFCURVE",
"360 560 CURVE SMOOTH",
"197 560 OFFCURVE",
"66 449 OFFCURVE",
"35 276 CURVE SMOOTH",
"4 103 OFFCURVE",
"102 -9 OFFCURVE",
"260 -9 CURVE SMOOTH",
"395 -9 OFFCURVE",
"495 68 OFFCURVE",
"543 164 CURVE",
"420 164 LINE",
"392 121 OFFCURVE",
"347 87 OFFCURVE",
"277 87 CURVE SMOOTH",
"188 87 OFFCURVE",
"130 150 OFFCURVE",
"148 251 CURVE SMOOTH",
"155 295 LINE SMOOTH",
"174 400 OFFCURVE",
"252 464 OFFCURVE",
"338 464 CURVE SMOOTH",
"423 464 OFFCURVE",
"481 410 OFFCURVE",
"467 319 CURVE",
"142 319 LINE"
);
}
);
width = 608;
},
{
anchors = (
{
name = bottom;
position = "{257, -7}";
},
{
name = ogonek;
position = "{355, 8}";
},
{
name = top;
position = "{372, 564}";
}
);
guideLines = (
{
position = "{612, -221}";
}
);
layerId = "15935870-0A58-425A-9765-D144975D2C89";
paths = (
{
closed = 1;
nodes = (
"209 243 LINE",
"586 243 LINE",
"591 257 OFFCURVE",
"594 273 OFFCURVE",
"597 287 CURVE",
"628 464 OFFCURVE",
"528 571 OFFCURVE",
"359 571 CURVE",
"190 571 OFFCURVE",
"52 462 OFFCURVE",
"20 282 CURVE",
"-12 102 OFFCURVE",
"88 -7 OFFCURVE",
"257 -7 CURVE SMOOTH",
"399 -7 OFFCURVE",
"525 83 OFFCURVE",
"570 203 CURVE",
"335 203 LINE",
"324 186 OFFCURVE",
"306 170 OFFCURVE",
"277 170 CURVE SMOOTH",
"244 170 OFFCURVE",
"220 189 OFFCURVE",
"232 258 CURVE SMOOTH",
"241 311 LINE SMOOTH",
"252 370 OFFCURVE",
"283 397 OFFCURVE",
"328 397 CURVE",
"361 397 OFFCURVE",
"388 379 OFFCURVE",
"380 334 CURVE",
"225 334 LINE"
);
}
);
width = 614;
}
);
leftKerningGroup = o;
leftMetricsKey = o;
rightKerningGroup = e;
unicode = 0065;
userData = {
com.schriftgestaltung.Glyphs.ColorIndex = 4;
com.typemytype.robofont.layerData = {
b = {
anchors = (
{
name = top;
x = 314;
y = 540;
},
{
name = ogonek;
x = 442;
y = 45;
},
{
name = bottom;
x = 314;
y = 0;
}
);
components = (
);
contours = (
{
points = (
{
segmentType = line;
smooth = 0;
x = 54;
y = 261;
},
{
segmentType = line;
smooth = 0;
x = 564;
y = 261;
},
{
smooth = 0;
x = 567;
y = 280;
},
{
smooth = 0;
x = 568;
y = 298;
},
{
segmentType = curve;
smooth = 1;
x = 568;
y = 315;
},
{
smooth = 0;
x = 568;
y = 434;
},
{
smooth = 0;
x = 482;
y = 552;
},
{
segmentType = curve;
smooth = 1;
x = 330;
y = 552;
},
{
smooth = 0;
x = 164;
y = 552;
},
{
smooth = 0;
x = 60;
y = 438;
},
{
segmentType = curve;
smooth = 1;
x = 60;
y = 270;
},
{
smooth = 0;
x = 60;
y = 103;
},
{
smooth = 0;
x = 164;
y = -12;
},
{
segmentType = curve;
smooth = 1;
x = 316;
y = -12;
},
{
smooth = 0;
x = 451;
y = -12;
},
{
smooth = 0;
x = 516;
y = 66;
},
{
segmentType = curve;
smooth = 0;
x = 548;
y = 137;
},
{
segmentType = line;
smooth = 0;
x = 528;
y = 137;
},
{
smooth = 0;
x = 505;
y = 60;
},
{
smooth = 0;
x = 424;
y = -1;
},
{
segmentType = curve;
smooth = 1;
x = 316;
y = -1;
},
{
smooth = 0;
x = 186;
y = -1;
},
{
smooth = 0;
x = 81;
y = 93;
},
{
segmentType = curve;
smooth = 1;
x = 81;
y = 269;
},
{
segmentType = line;
smooth = 1;
x = 81;
y = 274;
},
{
smooth = 0;
x = 81;
y = 447;
},
{
smooth = 0;
x = 183;
y = 541;
},
{
segmentType = curve;
smooth = 1;
x = 316;
y = 541;
},
{
smooth = 0;
x = 448;
y = 541;
},
{
smooth = 0;
x = 551;
y = 448;
},
{
segmentType = curve;
smooth = 0;
x = 549;
y = 290;
},
{
segmentType = line;
smooth = 0;
x = 53;
y = 290;
}
);
}
);
lib = {
};
name = e;
unicodes = (
);
width = 628;
};
};
com.typesupply.AccentFactory.yCoordinates = {
bottom = {
name = origin;
type = glyphMetric;
};
top = {
name = xHeight;
type = fontInfo;
};
};
};
},
{
glyphname = eogonek;
lastChange = "2022-04-14 10:11:20 +0000";
layers = (
{
background = {
paths = (
{
closed = 1;
nodes = (
"37 276 CURVE SMOOTH",
"37 113 OFFCURVE",
"137 4 OFFCURVE",
"281 -8 CURVE",
"279 -14 OFFCURVE",
"278 -22 OFFCURVE",
"278 -30 CURVE SMOOTH",
"278 -99 OFFCURVE",
"335 -139 OFFCURVE",
"406 -139 CURVE SMOOTH",
"512 -139 LINE",
"512 -67 LINE",
"428 -67 LINE SMOOTH",
"393 -67 OFFCURVE",
"372 -60 OFFCURVE",
"372 -30 CURVE SMOOTH",
"372 -9 OFFCURVE",
"387 0 OFFCURVE",
"414 10 CURVE SMOOTH",
"481 35 OFFCURVE",
"537 90 OFFCURVE",
"561 164 CURVE",
"438 164 LINE",
"417 121 OFFCURVE",
"377 87 OFFCURVE",
"307 87 CURVE SMOOTH",
"218 87 OFFCURVE",
"154 150 OFFCURVE",
"154 251 CURVE SMOOTH",
"154 295 LINE SMOOTH",
"154 400 OFFCURVE",
"221 464 OFFCURVE",
"307 464 CURVE SMOOTH",
"392 464 OFFCURVE",
"459 407 OFFCURVE",
"461 315 CURVE",
"143 315 LINE",
"142 237 LINE",
"576 237 LINE",
"579 256 OFFCURVE",
"580 274 OFFCURVE",
"580 291 CURVE SMOOTH",
"580 451 OFFCURVE",
"469 560 OFFCURVE",
"312 560 CURVE SMOOTH",
"149 560 OFFCURVE",
"37 449 OFFCURVE"
);
}
);
};
components = (
{
name = e;
},
{
name = ogonek;
transform = "{1, 0, 0, 1, 213, 14}";
}
);
layerId = "ED744E86-D388-498D-94EB-FEBBBDC8F1CA";
width = 608;
},
{
background = {
paths = (
{
closed = 1;
nodes = (
"20 282 CURVE",
"20 135 OFFCURVE",
"99 36 OFFCURVE",
"220 4 CURVE",
"220 -6 OFFCURVE",
"220 -17 OFFCURVE",
"220 -27 CURVE",
"220 -122 OFFCURVE",
"303 -149 OFFCURVE",
"370 -149 CURVE",
"528 -149 LINE",
"528 -36 LINE",
"403 -36 LINE",
"377 -36 OFFCURVE",
"367 -29 OFFCURVE",
"367 -17 CURVE",
"367 -5 OFFCURVE",
"376 0 OFFCURVE",
"388 3 CURVE SMOOTH",
"491 29 OFFCURVE",
"564 107 OFFCURVE",
"584 203 CURVE",
"349 203 LINE",
"341 186 OFFCURVE",
"327 170 OFFCURVE",
"298 170 CURVE SMOOTH",
"268 170 OFFCURVE",
"236 188 OFFCURVE",
"236 258 CURVE SMOOTH",
"236 311 LINE SMOOTH",
"236 370 OFFCURVE",
"263 397 OFFCURVE",
"308 397 CURVE",
"341 397 OFFCURVE",
"371 379 OFFCURVE",
"371 334 CURVE",
"216 334 LINE",
"216 243 LINE",
"591 243 LINE",
"594 257 OFFCURVE",
"596 273 OFFCURVE",
"596 287 CURVE",
"596 464 OFFCURVE",
"477 571 OFFCURVE",
"308 571 CURVE",
"139 571 OFFCURVE",
"20 462 OFFCURVE"
);
}
);
};
components = (
{
name = e;
},
{
name = ogonek;
transform = "{1, 0, 0, 1, 113, 8}";
}
);
layerId = "15935870-0A58-425A-9765-D144975D2C89";
width = 614;
}
);
leftKerningGroup = o;
rightKerningGroup = e;
unicode = 0119;
userData = {
com.schriftgestaltung.Glyphs.ColorIndex = 8;
};
},
{
glyphname = f;
lastChange = "2022-04-15 08:33:37 +0000";
layers = (
{
layerId = "ED744E86-D388-498D-94EB-FEBBBDC8F1CA";
paths = (
{
closed = 1;
nodes = (
"42 0 LINE",
"157 0 LINE",
"261 590 LINE SMOOTH",
"272 653 OFFCURVE",
"301 677 OFFCURVE",
"371 677 CURVE",
"387 772 LINE",
"243 772 OFFCURVE",
"169 717 OFFCURVE",
"146 590 CURVE SMOOTH"
);
},
{
closed = 1;
nodes = (
"58 458 LINE",
"340 458 LINE",
"356 551 LINE",
"74 551 LINE"
);
}
);
width = 333;
},
{
layerId = "15935870-0A58-425A-9765-D144975D2C89";
paths = (
{
closed = 1;
nodes = (
"20 0 LINE",
"242 0 LINE",
"337 539 LINE SMOOTH",
"347 595 OFFCURVE",
"372 611 OFFCURVE",
"432 604 CURVE",
"465 793 LINE",
"275 810 OFFCURVE",
"148 722 OFFCURVE",
"119 559 CURVE SMOOTH"
);
},
{
closed = 1;
nodes = (
"27 379 LINE",
"392 379 LINE",
"425 564 LINE",
"60 564 LINE"
);
}
);
width = 390;
}
);
leftKerningGroup = f;
rightKerningGroup = f;
unicode = 0066;
userData = {
com.schriftgestaltung.Glyphs.ColorIndex = 4;
com.typemytype.robofont.layerData = {
b = {
anchors = (
);
components = (
);
contours = (
{
points = (
{
segmentType = line;
smooth = 0;
x = 108;
y = 0;
},
{
segmentType = line;
smooth = 0;
x = 128;
y = 0;
},
{
segmentType = line;
smooth = 1;
x = 128;
y = 609;
},
{
smooth = 0;
x = 128;
y = 701;
},
{
smooth = 0;
x = 162;
y = 742;
},
{
segmentType = curve;
smooth = 0;
x = 275;
y = 742;
},
{
segmentType = line;
smooth = 0;
x = 275;
y = 753;
},
{
smooth = 0;
x = 158;
y = 753;
},
{
smooth = 0;
x = 108;
y = 711;
},
{
segmentType = curve;
smooth = 1;
x = 108;
y = 609;
}
);
}
);
lib = {
};
name = f;
unicodes = (
);
width = 318;
};
};
com.typesupply.AccentFactory.yCoordinates = {
bottom = {
name = origin;
type = glyphMetric;
};
top = {
name = ascender;
type = fontInfo;
};
};
};
},
{
glyphname = g;
lastChange = "2022-04-15 08:33:47 +0000";
layers = (
{
anchors = (
{
name = top;
position = "{385, 551}";
}
);
background = {
paths = (
{
closed = 1;
nodes = (
"153 560 OFFCURVE",
"38 448 OFFCURVE",
"38 278 CURVE SMOOTH",
"38 108 OFFCURVE",
"153 -9 OFFCURVE",
"298 -9 CURVE SMOOTH",
"388 -9 OFFCURVE",
"454 39 OFFCURVE",
"489 103 CURVE",
"489 -9 LINE SMOOTH",
"489 -119 OFFCURVE",
"423 -173 OFFCURVE",
"335 -173 CURVE SMOOTH",
"256 -173 OFFCURVE",
"195 -134 OFFCURVE",
"178 -77 CURVE",
"65 -77 LINE",
"79 -199 OFFCURVE",
"188 -272 OFFCURVE",
"335 -272 CURVE SMOOTH",
"507 -272 OFFCURVE",
"604 -159 OFFCURVE",
"604 -9 CURVE SMOOTH",
"604 551 LINE",
"489 551 LINE",
"489 453 LINE",
"455 514 OFFCURVE",
"388 560 OFFCURVE",
"298 560 CURVE SMOOTH"
);
},
{
closed = 1;
nodes = (
"489 276 CURVE SMOOTH",
"489 157 OFFCURVE",
"408 90 OFFCURVE",
"322 90 CURVE SMOOTH",
"237 90 OFFCURVE",
"155 159 OFFCURVE",
"155 278 CURVE SMOOTH",
"155 397 OFFCURVE",
"237 461 OFFCURVE",
"322 461 CURVE SMOOTH",
"408 461 OFFCURVE",
"489 394 OFFCURVE"
);
}
);
};
layerId = "ED744E86-D388-498D-94EB-FEBBBDC8F1CA";
paths = (
{
closed = 1;
nodes = (
"200 560 OFFCURVE",
"65 448 OFFCURVE",
"35 278 CURVE SMOOTH",
"5 108 OFFCURVE",
"100 -9 OFFCURVE",
"245 -9 CURVE SMOOTH",
"335 -9 OFFCURVE",
"409 36 OFFCURVE",
"452 83 CURVE",
"436 -9 LINE SMOOTH",
"416 -119 OFFCURVE",
"341 -173 OFFCURVE",
"253 -173 CURVE SMOOTH",
"174 -173 OFFCURVE",
"120 -134 OFFCURVE",
"113 -77 CURVE",
"0 -77 LINE",
"-8 -199 OFFCURVE",
"88 -272 OFFCURVE",
"235 -272 CURVE SMOOTH",
"407 -272 OFFCURVE",
"524 -159 OFFCURVE",
"551 -9 CURVE SMOOTH",
"649 551 LINE",
"534 551 LINE",
"520 471 LINE",
"495 518 OFFCURVE",
"435 560 OFFCURVE",
"345 560 CURVE SMOOTH"
);
},
{
closed = 1;
nodes = (
"486 276 CURVE SMOOTH",
"465 157 OFFCURVE",
"372 90 OFFCURVE",
"286 90 CURVE SMOOTH",
"201 90 OFFCURVE",
"131 159 OFFCURVE",
"152 278 CURVE SMOOTH",
"173 397 OFFCURVE",
"267 461 OFFCURVE",
"352 461 CURVE SMOOTH",
"438 461 OFFCURVE",
"507 394 OFFCURVE"
);
}
);
width = 656;
},
{
anchors = (
{
name = top;
position = "{397, 564}";
}
);
layerId = "15935870-0A58-425A-9765-D144975D2C89";
paths = (
{
closed = 1;
nodes = (
"174 571 OFFCURVE",
"52 464 OFFCURVE",
"20 282 CURVE",
"-12 100 OFFCURVE",
"72 -7 OFFCURVE",
"202 -7 CURVE",
"277 -7 OFFCURVE",
"337 26 OFFCURVE",
"373 77 CURVE",
"361 10 LINE",
"347 -69 OFFCURVE",
"306 -85 OFFCURVE",
"261 -85 CURVE SMOOTH",
"220 -85 OFFCURVE",
"198 -70 OFFCURVE",
"197 -41 CURVE",
"-21 -41 LINE",
"-31 -184 OFFCURVE",
"59 -277 OFFCURVE",
"243 -277 CURVE SMOOTH",
"454 -277 OFFCURVE",
"556 -139 OFFCURVE",
"582 10 CURVE",
"680 564 LINE",
"459 564 LINE",
"445 487 LINE",
"427 538 OFFCURVE",
"379 571 OFFCURVE",
"304 571 CURVE"
);
},
{
closed = 1;
nodes = (
"409 282 CURVE",
"398 220 OFFCURVE",
"356 187 OFFCURVE",
"310 187 CURVE",
"264 187 OFFCURVE",
"234 220 OFFCURVE",
"245 282 CURVE",
"256 344 OFFCURVE",
"298 377 OFFCURVE",
"344 377 CURVE",
"390 377 OFFCURVE",
"420 344 OFFCURVE"
);
}
);
width = 665;
}
);
leftKerningGroup = g;
leftMetricsKey = o;
rightKerningGroup = g;
unicode = 0067;
userData = {
com.schriftgestaltung.Glyphs.ColorIndex = 4;
com.typesupply.AccentFactory.yCoordinates = {
top = {
name = xHeight;
type = fontInfo;
};
};
};
},
{
glyphname = gcommaaccent;
lastChange = "2022-04-14 09:43:24 +0000";
layers = (
{
components = (
{
name = g;
}
);
layerId = "ED744E86-D388-498D-94EB-FEBBBDC8F1CA";
paths = (
{
closed = 1;
nodes = (
"447 597 LINE",
"464 694 LINE",
"412 694 LINE",
"415 715 LINE SMOOTH",
"422 752 OFFCURVE",
"440 771 OFFCURVE",
"473 771 CURVE",
"482 821 LINE",
"408 821 OFFCURVE",
"363 779 OFFCURVE",
"348 696 CURVE SMOOTH",
"343 667 OFFCURVE",
"341 634 OFFCURVE",
"344 597 CURVE"
);
}
);
width = 678;
},
{
components = (
{
name = g;
}
);
layerId = "15935870-0A58-425A-9765-D144975D2C89";
paths = (
{
closed = 1;
nodes = (
"494 599 LINE",
"520 746 LINE",
"448 746 LINE",
"450 757 LINE SMOOTH",
"459 809 OFFCURVE",
"484 832 OFFCURVE",
"518 832 CURVE",
"532 910 LINE",
"419 910 OFFCURVE",
"354 830 OFFCURVE",
"337 734 CURVE SMOOTH",
"329 692 OFFCURVE",
"328 646 OFFCURVE",
"338 599 CURVE"
);
}
);
width = 680;
}
);
leftKerningGroup = g;
rightKerningGroup = g;
unicode = 0123;
userData = {
com.schriftgestaltung.Glyphs.ColorIndex = 8;
com.typesupply.AccentFactory.compileType = manual;
};
},
{
glyphname = h;
lastChange = "2022-04-15 09:12:47 +0000";
layers = (
{
background = {
paths = (
{
closed = 1;
nodes = (
"68 0 LINE",
"182 0 LINE",
"182 740 LINE",
"68 740 LINE"
);
},
{
closed = 1;
nodes = (
"459 0 LINE",
"572 0 LINE",
"572 325 LINE SMOOTH",
"572 479 OFFCURVE",
"476 560 OFFCURVE",
"353 560 CURVE SMOOTH",
"259 560 OFFCURVE",
"180 510 OFFCURVE",
"158 426 CURVE",
"182 308 LINE",
"182 409 OFFCURVE",
"237 461 OFFCURVE",
"321 461 CURVE SMOOTH",
"404 461 OFFCURVE",
"459 409 OFFCURVE",
"459 308 CURVE SMOOTH"
);
}
);
};
layerId = "ED744E86-D388-498D-94EB-FEBBBDC8F1CA";
paths = (
{
closed = 1;
nodes = (
"16 0 LINE",
"130 0 LINE",
"261 740 LINE",
"147 740 LINE"
);
},
{
closed = 1;
nodes = (
"407 0 LINE",
"520 0 LINE",
"578 325 LINE SMOOTH",
"605 479 OFFCURVE",
"523 560 OFFCURVE",
"400 560 CURVE SMOOTH",
"304 560 OFFCURVE",
"214 510 OFFCURVE",
"177 432 CURVE",
"185 308 LINE",
"202 409 OFFCURVE",
"267 461 OFFCURVE",
"351 461 CURVE SMOOTH",
"434 461 OFFCURVE",
"479 409 OFFCURVE",
"462 308 CURVE SMOOTH"
);
}
);
width = 634;
},
{
layerId = "15935870-0A58-425A-9765-D144975D2C89";
paths = (
{
closed = 1;
nodes = (
"0 0 LINE",
"222 0 LINE",
"353 740 LINE",
"131 740 LINE"
);
},
{
closed = 1;
nodes = (
"380 0 LINE",
"601 0 LINE",
"659 327 LINE SMOOTH",
"685 473 OFFCURVE",
"625 568 OFFCURVE",
"495 568 CURVE SMOOTH",
"395 568 OFFCURVE",
"324 511 OFFCURVE",
"287 451 CURVE",
"275 299 LINE",
"285 353 OFFCURVE",
"320 386 OFFCURVE",
"369 386 CURVE SMOOTH",
"417 386 OFFCURVE",
"443 353 OFFCURVE",
"433 299 CURVE SMOOTH"
);
}
);
width = 691;
}
);
leftKerningGroup = h;
leftMetricsKey = l;
rightKerningGroup = n;
rightMetricsKey = n;
unicode = 0068;
userData = {
com.schriftgestaltung.Glyphs.ColorIndex = 4;
com.typesupply.AccentFactory.yCoordinates = {
bottom = {
name = origin;
type = glyphMetric;
};
top = {
name = ascender;
type = fontInfo;
};
};
};
},
{
glyphname = i;
lastChange = "2022-04-15 09:29:54 +0000";
layers = (
{
anchors = (
{
name = ogonek;
position = "{141, 1}";
}
);
layerId = "ED744E86-D388-498D-94EB-FEBBBDC8F1CA";
paths = (
{
closed = 1;
nodes = (
"26 0 LINE",
"140 0 LINE",
"237 551 LINE",
"123 551 LINE"
);
},
{
closed = 1;
nodes = (
"194 624 CURVE SMOOTH",
"234 624 OFFCURVE",
"272 656 OFFCURVE",
"279 697 CURVE SMOOTH",
"286 738 OFFCURVE",
"260 770 OFFCURVE",
"220 770 CURVE SMOOTH",
"179 770 OFFCURVE",
"141 738 OFFCURVE",
"134 697 CURVE SMOOTH",
"127 656 OFFCURVE",
"153 624 OFFCURVE"
);
}
);
width = 265;
},
{
anchors = (
{
name = ogonek;
position = "{218, -1}";
}
);
layerId = "15935870-0A58-425A-9765-D144975D2C89";
paths = (
{
closed = 1;
nodes = (
"-4 0 LINE",
"218 0 LINE",
"318 564 LINE",
"96 564 LINE"
);
},
{
closed = 1;
nodes = (
"216 609 CURVE SMOOTH",
"294 609 OFFCURVE",
"351 657 OFFCURVE",
"362 718 CURVE SMOOTH",
"373 780 OFFCURVE",
"332 829 OFFCURVE",
"254 829 CURVE SMOOTH",
"175 829 OFFCURVE",
"118 780 OFFCURVE",
"107 718 CURVE SMOOTH",
"96 657 OFFCURVE",
"137 609 OFFCURVE"
);
}
);
width = 315;
}
);
leftKerningGroup = i;
rightKerningGroup = i;
unicode = 0069;
userData = {
com.schriftgestaltung.Glyphs.ColorIndex = 4;
com.typemytype.robofont.guides = (
{
angle = 0;
isGlobal = 0;
magnetic = 5;
x = 82;
y = 540;
}
);
com.typesupply.AccentFactory.yCoordinates = {
bottom = {
name = origin;
type = glyphMetric;
};
};
};
},
{
glyphname = dotlessi;
lastChange = "2022-04-15 09:30:04 +0000";
layers = (
{
anchors = (
{
name = ogonek;
position = "{188, 10}";
},
{
name = top;
position = "{177, 551}";
}
);
layerId = "ED744E86-D388-498D-94EB-FEBBBDC8F1CA";
paths = (
{
closed = 1;
nodes = (
"23 0 LINE",
"137 0 LINE",
"234 551 LINE",
"120 551 LINE"
);
}
);
width = 264;
},
{
anchors = (
{
name = ogonek;
position = "{287, 10}";
},
{
name = top;
position = "{237, 564}";
}
);
layerId = "15935870-0A58-425A-9765-D144975D2C89";
paths = (
{
closed = 1;
nodes = (
"25 0 LINE",
"247 0 LINE",
"347 564 LINE",
"125 564 LINE"
);
}
);
width = 372;
}
);
leftKerningGroup = i;
rightKerningGroup = i;
unicode = 0131;
userData = {
com.schriftgestaltung.Glyphs.ColorIndex = 4;
com.typesupply.AccentFactory.yCoordinates = {
bottom = {
name = origin;
type = glyphMetric;
};
top = {
name = xHeight;
type = fontInfo;
};
};
};
},
{
glyphname = j;
lastChange = "2022-04-15 08:35:43 +0000";
layers = (
{
layerId = "ED744E86-D388-498D-94EB-FEBBBDC8F1CA";
paths = (
{
closed = 1;
nodes = (
"187 624 CURVE SMOOTH",
"227 624 OFFCURVE",
"265 656 OFFCURVE",
"272 697 CURVE SMOOTH",
"279 738 OFFCURVE",
"253 770 OFFCURVE",
"213 770 CURVE SMOOTH",
"172 770 OFFCURVE",
"134 738 OFFCURVE",
"127 697 CURVE SMOOTH",
"120 656 OFFCURVE",
"146 624 OFFCURVE"
);
},
{
closed = 1;
nodes = (
"116 551 LINE",
"0 -108 LINE SMOOTH",
"-7 -149 OFFCURVE",
"-26 -166 OFFCURVE",
"-74 -166 CURVE SMOOTH",
"-113 -166 LINE",
"-130 -262 LINE",
"-71 -262 LINE SMOOTH",
"27 -262 OFFCURVE",
"95 -220 OFFCURVE",
"114 -108 CURVE SMOOTH",
"230 551 LINE"
);
}
);
width = 258;
},
{
layerId = "15935870-0A58-425A-9765-D144975D2C89";
paths = (
{
closed = 1;
nodes = (
"209 609 CURVE SMOOTH",
"287 609 OFFCURVE",
"344 657 OFFCURVE",
"355 718 CURVE SMOOTH",
"366 780 OFFCURVE",
"325 829 OFFCURVE",
"247 829 CURVE SMOOTH",
"168 829 OFFCURVE",
"111 780 OFFCURVE",
"100 718 CURVE SMOOTH",
"89 657 OFFCURVE",
"130 609 OFFCURVE"
);
},
{
closed = 1;
nodes = (
"91 564 LINE",
"-16 -43 LINE SMOOTH",
"-21 -69 OFFCURVE",
"-35 -81 OFFCURVE",
"-64 -81 CURVE SMOOTH",
"-107 -81 LINE",
"-140 -270 LINE",
"-66 -270 LINE SMOOTH",
"66 -270 OFFCURVE",
"176 -214 OFFCURVE",
"206 -39 CURVE SMOOTH",
"313 564 LINE"
);
}
);
width = 308;
}
);
leftKerningGroup = j;
rightKerningGroup = j;
rightMetricsKey = i;
unicode = 006A;
userData = {
com.schriftgestaltung.Glyphs.ColorIndex = 4;
com.typesupply.AccentFactory.yCoordinates = {
bottom = {
name = origin;
type = glyphMetric;
};
};
};
},
{
color = 6;
glyphname = k;
lastChange = "2022-04-14 10:18:36 +0000";
layers = (
{
anchors = (
{
name = bottom;
position = "{218, 0}";
}
);
layerId = "ED744E86-D388-498D-94EB-FEBBBDC8F1CA";
paths = (
{
closed = 1;
nodes = (
"16 0 LINE",
"130 0 LINE",
"261 740 LINE",
"147 740 LINE"
);
},
{
closed = 1;
nodes = (
"191 273 LINE",
"348 0 LINE",
"495 0 LINE",
"310 288 LINE",
"297 255 LINE",
"592 551 LINE",
"441 551 LINE"
);
}
);
width = 544;
},
{
anchors = (
{
name = bottom;
position = "{297, 0}";
}
);
layerId = "15935870-0A58-425A-9765-D144975D2C89";
paths = (
{
closed = 1;
nodes = (
"0 0 LINE",
"222 0 LINE",
"353 740 LINE",
"131 740 LINE"
);
},
{
closed = 1;
nodes = (
"274 291 LINE",
"381 0 LINE",
"637 0 LINE",
"479 298 LINE",
"481 271 LINE",
"732 564 LINE",
"483 564 LINE"
);
}
);
width = 682;
}
);
leftKerningGroup = h;
leftMetricsKey = l;
rightKerningGroup = k;
unicode = 006B;
userData = {
com.schriftgestaltung.Glyphs.ColorIndex = 4;
com.typemytype.robofont.guides = (
{
angle = 0;
isGlobal = 0;
magnetic = 5;
x = 86;
y = 740;
}
);
com.typesupply.AccentFactory.yCoordinates = {
bottom = {
name = origin;
type = glyphMetric;
};
top = {
name = ascender;
type = fontInfo;
};
};
};
},
{
glyphname = kcommaaccent;
lastChange = "2022-04-14 09:43:24 +0000";
layers = (
{
components = (
{
name = k;
}
);
layerId = "ED744E86-D388-498D-94EB-FEBBBDC8F1CA";
paths = (
{
closed = 1;
nodes = (
"163 -46 LINE",
"146 -142 LINE",
"199 -142 LINE",
"196 -163 LINE SMOOTH",
"189 -201 OFFCURVE",
"170 -220 OFFCURVE",
"137 -220 CURVE",
"128 -270 LINE",
"202 -270 OFFCURVE",
"247 -228 OFFCURVE",
"262 -145 CURVE SMOOTH",
"267 -116 OFFCURVE",
"269 -83 OFFCURVE",
"266 -46 CURVE"
);
}
);
width = 554;
},
{
components = (
{
name = k;
}
);
layerId = "15935870-0A58-425A-9765-D144975D2C89";
paths = (
{
closed = 1;
nodes = (
"206 -35 LINE",
"180 -182 LINE",
"252 -182 LINE",
"250 -193 LINE SMOOTH",
"241 -245 OFFCURVE",
"216 -268 OFFCURVE",
"182 -268 CURVE",
"168 -346 LINE",
"281 -346 OFFCURVE",
"346 -266 OFFCURVE",
"363 -170 CURVE SMOOTH",
"371 -128 OFFCURVE",
"372 -82 OFFCURVE",
"362 -35 CURVE"
);
}
);
width = 676;
}
);
leftKerningGroup = h;
rightKerningGroup = k;
unicode = 0137;
userData = {
com.schriftgestaltung.Glyphs.ColorIndex = 8;
com.typesupply.AccentFactory.compileType = manual;
};
},
{
color = 6;
glyphname = l;
lastChange = "2022-04-15 08:58:18 +0000";
layers = (
{
anchors = (
{
name = bottom;
position = "{73, 0}";
},
{
name = commaaccent;
position = "{75, 10}";
},
{
name = top;
position = "{204, 740}";
},
{
name = topright;
position = "{282, 551}";
}
);
layerId = "ED744E86-D388-498D-94EB-FEBBBDC8F1CA";
paths = (
{
closed = 1;
nodes = (
"16 0 LINE",
"130 0 LINE",
"267 774 LINE",
"136 679 LINE"
);
}
);
width = 244;
},
{
anchors = (
{
name = bottom;
position = "{112, 0}";
},
{
name = commaaccent;
position = "{114, 10}";
},
{
name = top;
position = "{243, 740}";
},
{
name = topright;
position = "{377, 564}";
}
);
layerId = "15935870-0A58-425A-9765-D144975D2C89";
paths = (
{
closed = 1;
nodes = (
"0 0 LINE",
"222 0 LINE",
"360 785 LINE",
"116 655 LINE"
);
}
);
width = 322;
}
);
leftKerningGroup = h;
rightKerningGroup = l;
unicode = 006C;
userData = {
com.schriftgestaltung.Glyphs.ColorIndex = 4;
com.typesupply.AccentFactory.yCoordinates = {
bottom = {
name = origin;
type = glyphMetric;
};
top = {
name = ascender;
type = fontInfo;
};
};
};
},
{
glyphname = lcaron;
lastChange = "2022-04-14 09:43:24 +0000";
layers = (
{
components = (
{
name = l;
}
);
layerId = "ED744E86-D388-498D-94EB-FEBBBDC8F1CA";
paths = (
{
closed = 1;
nodes = (
"346 740 LINE",
"329 643 LINE",
"382 643 LINE",
"378 622 LINE SMOOTH",
"371 585 OFFCURVE",
"353 566 OFFCURVE",
"320 566 CURVE",
"311 516 LINE",
"385 516 OFFCURVE",
"431 558 OFFCURVE",
"445 640 CURVE SMOOTH",
"450 670 OFFCURVE",
"452 703 OFFCURVE",
"449 740 CURVE"
);
}
);
width = 427;
},
{
components = (
{
name = l;
}
);
layerId = "15935870-0A58-425A-9765-D144975D2C89";
paths = (
{
closed = 1;
nodes = (
"406 740 LINE",
"380 594 LINE",
"452 594 LINE",
"450 582 LINE SMOOTH",
"441 531 OFFCURVE",
"416 508 OFFCURVE",
"382 508 CURVE",
"368 429 LINE",
"481 429 OFFCURVE",
"546 509 OFFCURVE",
"563 606 CURVE SMOOTH",
"571 648 OFFCURVE",
"572 694 OFFCURVE",
"562 740 CURVE"
);
}
);
width = 516;
}
);
leftKerningGroup = h;
rightKerningGroup = l;
unicode = 013E;
userData = {
com.schriftgestaltung.Glyphs.ColorIndex = 8;
com.typesupply.AccentFactory.compileType = manual;
};
},
{
glyphname = lcommaaccent;
lastChange = "2022-04-14 09:43:24 +0000";
layers = (
{
components = (
{
name = l;
}
);
layerId = "ED744E86-D388-498D-94EB-FEBBBDC8F1CA";
paths = (
{
closed = 1;
nodes = (
"18 -46 LINE",
"1 -142 LINE",
"54 -142 LINE",
"51 -163 LINE SMOOTH",
"44 -201 OFFCURVE",
"26 -220 OFFCURVE",
"-8 -220 CURVE",
"-17 -270 LINE",
"57 -270 OFFCURVE",
"103 -228 OFFCURVE",
"118 -145 CURVE SMOOTH",
"123 -116 OFFCURVE",
"124 -83 OFFCURVE",
"121 -46 CURVE"
);
}
);
width = 264;
},
{
components = (
{
name = l;
}
);
layerId = "15935870-0A58-425A-9765-D144975D2C89";
paths = (
{
closed = 1;
nodes = (
"31 -35 LINE",
"5 -182 LINE",
"77 -182 LINE",
"75 -193 LINE SMOOTH",
"66 -245 OFFCURVE",
"41 -268 OFFCURVE",
"7 -268 CURVE",
"-7 -346 LINE",
"106 -346 OFFCURVE",
"171 -266 OFFCURVE",
"188 -170 CURVE SMOOTH",
"196 -128 OFFCURVE",
"197 -82 OFFCURVE",
"187 -35 CURVE"
);
}
);
width = 322;
}
);
leftKerningGroup = h;
rightKerningGroup = l;
unicode = 013C;
userData = {
com.schriftgestaltung.Glyphs.ColorIndex = 8;
com.typesupply.AccentFactory.compileType = manual;
};
},
{
glyphname = ldot;
lastChange = "2022-04-14 09:43:24 +0000";
layers = (
{
layerId = "ED744E86-D388-498D-94EB-FEBBBDC8F1CA";
paths = (
{
closed = 1;
nodes = (
"137 0 LINE",
"268 740 LINE",
"154 740 LINE",
"23 0 LINE"
);
},
{
closed = 1;
nodes = (
"330 309 OFFCURVE",
"362 335 OFFCURVE",
"368 369 CURVE SMOOTH",
"374 402 OFFCURVE",
"351 429 OFFCURVE",
"318 429 CURVE SMOOTH",
"284 429 OFFCURVE",
"254 402 OFFCURVE",
"248 369 CURVE SMOOTH",
"242 335 OFFCURVE",
"263 309 OFFCURVE",
"297 309 CURVE SMOOTH"
);
}
);
width = 321;
},
{
layerId = "15935870-0A58-425A-9765-D144975D2C89";
paths = (
{
closed = 1;
nodes = (
"222 0 LINE",
"353 740 LINE",
"131 740 LINE",
"0 0 LINE"
);
},
{
closed = 1;
nodes = (
"431 287 OFFCURVE",
"474 324 OFFCURVE",
"483 372 CURVE SMOOTH",
"492 422 OFFCURVE",
"461 459 OFFCURVE",
"411 459 CURVE SMOOTH",
"363 459 OFFCURVE",
"319 422 OFFCURVE",
"311 372 CURVE SMOOTH",
"303 324 OFFCURVE",
"333 287 OFFCURVE",
"381 287 CURVE SMOOTH"
);
}
);
width = 435;
}
);
leftKerningGroup = h;
rightKerningGroup = l;
unicode = 0140;
userData = {
com.typesupply.AccentFactory.compileType = manual;
};
},
{
glyphname = lslash;
lastChange = "2022-04-14 09:43:24 +0000";
layers = (
{
layerId = "ED744E86-D388-498D-94EB-FEBBBDC8F1CA";
paths = (
{
closed = 1;
nodes = (
"3 259 LINE",
"265 344 LINE",
"284 449 LINE",
"22 365 LINE"
);
},
{
closed = 1;
nodes = (
"23 0 LINE",
"137 0 LINE",
"268 740 LINE",
"154 740 LINE"
);
}
);
width = 264;
},
{
layerId = "15935870-0A58-425A-9765-D144975D2C89";
paths = (
{
closed = 1;
nodes = (
"-1 221 LINE",
"368 318 LINE",
"406 534 LINE",
"37 437 LINE"
);
},
{
closed = 1;
nodes = (
"25 0 LINE",
"247 0 LINE",
"378 740 LINE",
"156 740 LINE"
);
}
);
width = 372;
}
);
leftKerningGroup = lslash;
rightKerningGroup = lslash;
unicode = 0142;
userData = {
com.schriftgestaltung.Glyphs.ColorIndex = 4;
};
},
{
glyphname = m;
lastChange = "2023-04-03 14:53:39 +0000";
layers = (
{
background = {
paths = (
{
closed = 1;
nodes = (
"74 0 LINE",
"188 0 LINE",
"188 551 LINE",
"74 551 LINE"
);
},
{
closed = 1;
nodes = (
"465 0 LINE",
"578 0 LINE",
"578 325 LINE SMOOTH",
"578 479 OFFCURVE",
"482 560 OFFCURVE",
"364 560 CURVE SMOOTH",
"265 560 OFFCURVE",
"186 504 OFFCURVE",
"164 400 CURVE",
"188 308 LINE",
"188 409 OFFCURVE",
"243 461 OFFCURVE",
"327 461 CURVE SMOOTH",
"410 461 OFFCURVE",
"465 409 OFFCURVE",
"465 308 CURVE SMOOTH"
);
},
{
closed = 1;
nodes = (
"854 0 LINE",
"968 0 LINE",
"968 325 LINE SMOOTH",
"968 479 OFFCURVE",
"873 560 OFFCURVE",
"751 560 CURVE SMOOTH",
"642 560 OFFCURVE",
"560 491 OFFCURVE",
"533 389 CURVE",
"578 308 LINE",
"578 409 OFFCURVE",
"633 461 OFFCURVE",
"716 461 CURVE SMOOTH",
"800 461 OFFCURVE",
"854 409 OFFCURVE",
"854 308 CURVE SMOOTH"
);
}
);
};
layerId = "ED744E86-D388-498D-94EB-FEBBBDC8F1CA";
paths = (
{
closed = 1;
nodes = (
"22 0 LINE",
"136 0 LINE",
"233 551 LINE",
"119 551 LINE"
);
},
{
closed = 1;
nodes = (
"413 0 LINE",
"526 0 LINE",
"584 325 LINE SMOOTH",
"611 479 OFFCURVE",
"527 560 OFFCURVE",
"398 560 CURVE SMOOTH",
"308 560 OFFCURVE",
"220 510 OFFCURVE",
"183 432 CURVE",
"191 308 LINE",
"208 409 OFFCURVE",
"273 461 OFFCURVE",
"357 461 CURVE SMOOTH",
"440 461 OFFCURVE",
"485 409 OFFCURVE",
"468 308 CURVE SMOOTH"
);
},
{
closed = 1;
nodes = (
"803 0 LINE",
"916 0 LINE",
"974 325 LINE SMOOTH",
"1001 479 OFFCURVE",
"917 560 OFFCURVE",
"788 560 CURVE SMOOTH",
"700 560 OFFCURVE",
"607 510 OFFCURVE",
"566 432 CURVE",
"581 308 LINE",
"598 409 OFFCURVE",
"663 461 OFFCURVE",
"747 461 CURVE SMOOTH",
"830 461 OFFCURVE",
"875 409 OFFCURVE",
"858 308 CURVE SMOOTH"
);
}
);
width = 1030;
},
{
layerId = "15935870-0A58-425A-9765-D144975D2C89";
paths = (
{
closed = 1;
nodes = (
"0 0 LINE",
"222 0 LINE",
"322 564 LINE",
"100 564 LINE"
);
},
{
closed = 1;
nodes = (
"380 0 LINE",
"601 0 LINE",
"659 327 LINE SMOOTH",
"685 473 OFFCURVE",
"616 568 OFFCURVE",
"485 568 CURVE SMOOTH",
"390 568 OFFCURVE",
"323 516 OFFCURVE",
"289 461 CURVE",
"275 299 LINE",
"283 347 OFFCURVE",
"319 376 OFFCURVE",
"368 376 CURVE SMOOTH",
"416 376 OFFCURVE",
"441 347 OFFCURVE",
"433 299 CURVE SMOOTH"
);
},
{
closed = 1;
nodes = (
"759 0 LINE",
"980 0 LINE",
"1038 327 LINE SMOOTH",
"1064 473 OFFCURVE",
"999 568 OFFCURVE",
"853 568 CURVE SMOOTH",
"751 568 OFFCURVE",
"665 497 OFFCURVE",
"621 427 CURVE",
"654 299 LINE",
"662 347 OFFCURVE",
"698 376 OFFCURVE",
"747 376 CURVE SMOOTH",
"795 376 OFFCURVE",
"820 347 OFFCURVE",
"812 299 CURVE SMOOTH"
);
}
);
width = 1070;
}
);
leftKerningGroup = n;
leftMetricsKey = n;
rightKerningGroup = n;
rightMetricsKey = n;
unicode = 006D;
userData = {
com.schriftgestaltung.Glyphs.ColorIndex = 4;
com.typemytype.robofont.layerData = {
b = {
anchors = (
);
components = (
);
contours = (
{
points = (
{
segmentType = line;
smooth = 0;
x = 85;
y = 0;
},
{
segmentType = line;
smooth = 0;
x = 105;
y = 0;
},
{
segmentType = line;
smooth = 0;
x = 105;
y = 540;
},
{
segmentType = line;
smooth = 0;
x = 85;
y = 540;
}
);
},
{
points = (
{
segmentType = line;
smooth = 0;
x = 485;
y = 0;
},
{
segmentType = line;
smooth = 0;
x = 504;
y = 0;
},
{
segmentType = line;
smooth = 1;
x = 504;
y = 325;
},
{
smooth = 0;
x = 504;
y = 485;
},
{
smooth = 0;
x = 399;
y = 552;
},
{
segmentType = curve;
smooth = 1;
x = 292;
y = 552;
},
{
smooth = 0;
x = 189;
y = 552;
},
{
smooth = 0;
x = 91;
y = 494;
},
{
segmentType = curve;
smooth = 0;
x = 72;
y = 345;
},
{
segmentType = line;
smooth = 0;
x = 105;
y = 317;
},
{
smooth = 0;
x = 105;
y = 465;
},
{
smooth = 0;
x = 181;
y = 536;
},
{
segmentType = curve;
smooth = 1;
x = 296;
y = 536;
},
{
smooth = 0;
x = 410;
y = 536;
},
{
smooth = 0;
x = 485;
y = 465;
},
{
segmentType = curve;
smooth = 1;
x = 485;
y = 317;
}
);
},
{
points = (
{
segmentType = line;
smooth = 0;
x = 884;
y = 0;
},
{
segmentType = line;
smooth = 0;
x = 903;
y = 0;
},
{
segmentType = line;
smooth = 1;
x = 903;
y = 325;
},
{
smooth = 0;
x = 903;
y = 485;
},
{
smooth = 0;
x = 796;
y = 552;
},
{
segmentType = curve;
smooth = 1;
x = 694;
y = 552;
},
{
smooth = 0;
x = 580;
y = 552;
},
{
smooth = 0;
x = 492;
y = 487;
},
{
segmentType = curve;
smooth = 0;
x = 468;
y = 357;
},
{
segmentType = line;
smooth = 0;
x = 504;
y = 317;
},
{
smooth = 0;
x = 504;
y = 465;
},
{
smooth = 0;
x = 580;
y = 536;
},
{
segmentType = curve;
smooth = 1;
x = 695;
y = 536;
},
{
smooth = 0;
x = 809;
y = 536;
},
{
smooth = 0;
x = 884;
y = 465;
},
{
segmentType = curve;
smooth = 1;
x = 884;
y = 317;
}
);
}
);
lib = {
};
name = m;
unicodes = (
);
width = 1003;
};
};
com.typesupply.AccentFactory.yCoordinates = {
bottom = {
name = origin;
type = glyphMetric;
};
top = {
name = xHeight;
type = fontInfo;
};
};
};
},
{
glyphname = n;
lastChange = "2022-04-15 09:11:29 +0000";
layers = (
{
anchors = (
{
name = bottom;
position = "{272, 0}";
},
{
name = top;
position = "{379, 551}";
}
);
background = {
paths = (
{
closed = 1;
nodes = (
"74 0 LINE",
"188 0 LINE",
"188 551 LINE",
"74 551 LINE"
);
},
{
closed = 1;
nodes = (
"465 0 LINE",
"578 0 LINE",
"578 325 LINE SMOOTH",
"578 479 OFFCURVE",
"482 560 OFFCURVE",
"364 560 CURVE SMOOTH",
"265 560 OFFCURVE",
"186 504 OFFCURVE",
"164 400 CURVE",
"188 308 LINE",
"188 409 OFFCURVE",
"243 461 OFFCURVE",
"327 461 CURVE SMOOTH",
"410 461 OFFCURVE",
"465 409 OFFCURVE",
"465 308 CURVE SMOOTH"
);
}
);
};
layerId = "ED744E86-D388-498D-94EB-FEBBBDC8F1CA";
paths = (
{
closed = 1;
nodes = (
"22 0 LINE",
"136 0 LINE",
"233 551 LINE",
"119 551 LINE"
);
},
{
closed = 1;
nodes = (
"413 0 LINE",
"526 0 LINE",
"584 325 LINE SMOOTH",
"611 479 OFFCURVE",
"528 560 OFFCURVE",
"399 560 CURVE SMOOTH",
"309 560 OFFCURVE",
"220 510 OFFCURVE",
"183 432 CURVE",
"191 308 LINE",
"208 409 OFFCURVE",
"273 461 OFFCURVE",
"357 461 CURVE SMOOTH",
"440 461 OFFCURVE",
"485 409 OFFCURVE",
"468 308 CURVE SMOOTH"
);
}
);
width = 640;
},
{
anchors = (
{
name = bottom;
position = "{298, 0}";
},
{
name = top;
position = "{434, 564}";
}
);
layerId = "15935870-0A58-425A-9765-D144975D2C89";
paths = (
{
closed = 1;
nodes = (
"0 0 LINE",
"222 0 LINE",
"322 564 LINE",
"100 564 LINE"
);
},
{
closed = 1;
nodes = (
"380 0 LINE",
"601 0 LINE",
"659 327 LINE SMOOTH",
"685 473 OFFCURVE",
"625 568 OFFCURVE",
"495 568 CURVE SMOOTH",
"395 568 OFFCURVE",
"324 511 OFFCURVE",
"287 451 CURVE",
"275 299 LINE",
"285 353 OFFCURVE",
"320 386 OFFCURVE",
"369 386 CURVE SMOOTH",
"417 386 OFFCURVE",
"443 353 OFFCURVE",
"433 299 CURVE SMOOTH"
);
}
);
width = 691;
}
);
leftKerningGroup = n;
rightKerningGroup = n;
unicode = 006E;
userData = {
com.schriftgestaltung.Glyphs.ColorIndex = 4;
com.typesupply.AccentFactory.yCoordinates = {
bottom = {
name = origin;
type = glyphMetric;
};
top = {
name = xHeight;
type = fontInfo;
};
};
};
},
{
glyphname = ncommaaccent;
lastChange = "2022-04-14 09:43:24 +0000";
layers = (
{
components = (
{
name = n;
}
);
layerId = "ED744E86-D388-498D-94EB-FEBBBDC8F1CA";
paths = (
{
closed = 1;
nodes = (
"210 -46 LINE",
"193 -142 LINE",
"246 -142 LINE",
"243 -163 LINE SMOOTH",
"236 -201 OFFCURVE",
"218 -220 OFFCURVE",
"185 -220 CURVE",
"176 -270 LINE",
"250 -270 OFFCURVE",
"295 -228 OFFCURVE",
"310 -145 CURVE SMOOTH",
"315 -116 OFFCURVE",
"317 -83 OFFCURVE",
"313 -46 CURVE"
);
}
);
width = 649;
},
{
components = (
{
name = n;
}
);
layerId = "15935870-0A58-425A-9765-D144975D2C89";
paths = (
{
closed = 1;
nodes = (
"237 -35 LINE",
"211 -182 LINE",
"283 -182 LINE",
"281 -193 LINE SMOOTH",
"272 -245 OFFCURVE",
"247 -268 OFFCURVE",
"213 -268 CURVE",
"199 -346 LINE",
"312 -346 OFFCURVE",
"377 -266 OFFCURVE",
"394 -170 CURVE SMOOTH",
"402 -128 OFFCURVE",
"403 -82 OFFCURVE",
"393 -35 CURVE"
);
}
);
width = 697;
}
);
leftKerningGroup = n;
rightKerningGroup = n;
unicode = 0146;
userData = {
com.schriftgestaltung.Glyphs.ColorIndex = 8;
com.typesupply.AccentFactory.compileType = manual;
};
},
{
glyphname = o;
lastChange = "2022-04-15 09:32:31 +0000";
layers = (
{
anchors = (
{
name = top;
position = "{365, 560}";
}
);
background = {
paths = (
{
closed = 1;
nodes = (
"630 449 OFFCURVE",
"525 560 OFFCURVE",
"368 560 CURVE SMOOTH",
"211 560 OFFCURVE",
"68 449 OFFCURVE",
"37 276 CURVE SMOOTH",
"6 103 OFFCURVE",
"106 -9 OFFCURVE",
"263 -9 CURVE SMOOTH",
"421 -9 OFFCURVE",
"568 103 OFFCURVE",
"599 276 CURVE SMOOTH"
);
},
{
closed = 1;
nodes = (
"460 151 OFFCURVE",
"365 87 OFFCURVE",
"280 87 CURVE SMOOTH",
"194 87 OFFCURVE",
"131 151 OFFCURVE",
"153 276 CURVE SMOOTH",
"175 401 OFFCURVE",
"263 464 OFFCURVE",
"349 464 CURVE SMOOTH",
"434 464 OFFCURVE",
"504 401 OFFCURVE",
"482 276 CURVE SMOOTH"
);
}
);
};
layerId = "ED744E86-D388-498D-94EB-FEBBBDC8F1CA";
paths = (
{
closed = 1;
nodes = (
"456 -9 OFFCURVE",
"604 138 OFFCURVE",
"604 327 CURVE SMOOTH",
"604 466 OFFCURVE",
"506 560 OFFCURVE",
"365 560 CURVE SMOOTH",
"173 560 OFFCURVE",
"31 410 OFFCURVE",
"31 223 CURVE SMOOTH",
"31 85 OFFCURVE",
"125 -9 OFFCURVE",
"266 -9 CURVE SMOOTH"
);
},
{
closed = 1;
nodes = (
"206 87 OFFCURVE",
"149 135 OFFCURVE",
"149 228 CURVE SMOOTH",
"149 352 OFFCURVE",
"229 464 OFFCURVE",
"349 464 CURVE SMOOTH",
"423 464 OFFCURVE",
"486 416 OFFCURVE",
"486 320 CURVE SMOOTH",
"486 198 OFFCURVE",
"398 87 OFFCURVE",
"280 87 CURVE SMOOTH"
);
}
);
width = 635;
},
{
anchors = (
{
name = top;
position = "{371, 571}";
}
);
background = {
paths = (
{
closed = 1;
nodes = (
"23 302 CURVE",
"-11 110 OFFCURVE",
"103 -7 OFFCURVE",
"280 -7 CURVE",
"445 -7 OFFCURVE",
"589 94 OFFCURVE",
"619 262 CURVE",
"653 454 OFFCURVE",
"540 571 OFFCURVE",
"366 571 CURVE",
"199 571 OFFCURVE",
"53 470 OFFCURVE"
);
},
{
closed = 1;
nodes = (
"394 282 CURVE",
"382 215 OFFCURVE",
"343 185 OFFCURVE",
"304 185 CURVE",
"264 185 OFFCURVE",
"236 215 OFFCURVE",
"248 282 CURVE",
"260 349 OFFCURVE",
"299 379 OFFCURVE",
"338 379 CURVE",
"377 379 OFFCURVE",
"406 349 OFFCURVE"
);
}
);
};
layerId = "15935870-0A58-425A-9765-D144975D2C89";
paths = (
{
closed = 1;
nodes = (
"472 -7 OFFCURVE",
"624 134 OFFCURVE",
"624 334 CURVE SMOOTH",
"624 478 OFFCURVE",
"521 571 OFFCURVE",
"371 571 CURVE SMOOTH",
"168 571 OFFCURVE",
"16 427 OFFCURVE",
"16 229 CURVE SMOOTH",
"16 85 OFFCURVE",
"119 -7 OFFCURVE",
"269 -7 CURVE SMOOTH"
);
},
{
closed = 1;
nodes = (
"269 185 OFFCURVE",
"244 206 OFFCURVE",
"244 253 CURVE SMOOTH",
"244 310 OFFCURVE",
"276 379 OFFCURVE",
"337 379 CURVE",
"370 379 OFFCURVE",
"396 358 OFFCURVE",
"396 311 CURVE SMOOTH",
"396 254 OFFCURVE",
"364 185 OFFCURVE",
"303 185 CURVE"
);
}
);
width = 641;
}
);
leftKerningGroup = o;
rightKerningGroup = o;
unicode = 006F;
userData = {
com.schriftgestaltung.Glyphs.ColorIndex = 4;
com.typesupply.AccentFactory.yCoordinates = {
bottom = {
name = origin;
type = glyphMetric;
};
top = {
name = xHeight;
type = fontInfo;
};
};
};
},
{
glyphname = oslash;
lastChange = "2022-04-14 09:43:24 +0000";
layers = (
{
components = (
{
name = o;
}
);
layerId = "ED744E86-D388-498D-94EB-FEBBBDC8F1CA";
paths = (
{
closed = 1;
nodes = (
"-24 0 LINE",
"55 0 LINE",
"655 551 LINE",
"576 551 LINE"
);
}
);
width = 638;
},
{
components = (
{
name = o;
transform = "{1, 0, 0, 1, -8, 0}";
}
);
layerId = "15935870-0A58-425A-9765-D144975D2C89";
paths = (
{
closed = 1;
nodes = (
"-50 0 LINE",
"53 0 LINE",
"671 564 LINE",
"568 564 LINE"
);
}
);
width = 621;
}
);
leftKerningGroup = o;
rightKerningGroup = o;
unicode = 00F8;
userData = {
com.schriftgestaltung.Glyphs.ColorIndex = 4;
};
},
{
glyphname = oe;
lastChange = "2022-04-14 09:43:24 +0000";
layers = (
{
layerId = "ED744E86-D388-498D-94EB-FEBBBDC8F1CA";
paths = (
{
closed = 1;
nodes = (
"479 276 CURVE SMOOTH",
"457 151 OFFCURVE",
"363 87 OFFCURVE",
"278 87 CURVE SMOOTH",
"192 87 OFFCURVE",
"129 151 OFFCURVE",
"151 276 CURVE SMOOTH",
"173 401 OFFCURVE",
"261 464 OFFCURVE",
"346 464 CURVE SMOOTH",
"432 464 OFFCURVE",
"501 401 OFFCURVE"
);
},
{
closed = 1;
nodes = (
"34 276 CURVE SMOOTH",
"3 103 OFFCURVE",
"103 -9 OFFCURVE",
"261 -9 CURVE SMOOTH",
"353 -9 OFFCURVE",
"442 33 OFFCURVE",
"505 107 CURVE",
"538 33 OFFCURVE",
"607 -9 OFFCURVE",
"699 -9 CURVE SMOOTH",
"834 -9 OFFCURVE",
"935 68 OFFCURVE",
"983 164 CURVE",
"860 164 LINE",
"832 121 OFFCURVE",
"787 87 OFFCURVE",
"716 87 CURVE SMOOTH",
"627 87 OFFCURVE",
"575 150 OFFCURVE",
"593 251 CURVE SMOOTH",
"600 295 LINE SMOOTH",
"619 400 OFFCURVE",
"696 464 OFFCURVE",
"782 464 CURVE SMOOTH",
"867 464 OFFCURVE",
"924 407 OFFCURVE",
"910 315 CURVE",
"563 315 LINE",
"548 237 LINE",
"1011 237 LINE",
"1017 256 OFFCURVE",
"1022 274 OFFCURVE",
"1025 291 CURVE SMOOTH",
"1053 451 OFFCURVE",
"961 560 OFFCURVE",
"804 560 CURVE SMOOTH",
"709 560 OFFCURVE",
"625 518 OFFCURVE",
"566 446 CURVE",
"530 518 OFFCURVE",
"457 560 OFFCURVE",
"366 560 CURVE SMOOTH",
"209 560 OFFCURVE",
"65 449 OFFCURVE"
);
}
);
width = 1062;
},
{
layerId = "15935870-0A58-425A-9765-D144975D2C89";
paths = (
{
closed = 1;
nodes = (
"391 282 CURVE",
"379 215 OFFCURVE",
"340 185 OFFCURVE",
"301 185 CURVE",
"261 185 OFFCURVE",
"233 215 OFFCURVE",
"245 282 CURVE",
"257 349 OFFCURVE",
"296 379 OFFCURVE",
"335 379 CURVE",
"374 379 OFFCURVE",
"403 349 OFFCURVE"
);
},
{
closed = 1;
nodes = (
"20 282 CURVE",
"-12 102 OFFCURVE",
"97 -7 OFFCURVE",
"267 -7 CURVE",
"339 -7 OFFCURVE",
"408 13 OFFCURVE",
"464 49 CURVE",
"507 13 OFFCURVE",
"565 -7 OFFCURVE",
"637 -7 CURVE SMOOTH",
"779 -7 OFFCURVE",
"905 83 OFFCURVE",
"950 203 CURVE",
"715 203 LINE",
"704 186 OFFCURVE",
"686 170 OFFCURVE",
"657 170 CURVE SMOOTH",
"624 170 OFFCURVE",
"599 185 OFFCURVE",
"612 258 CURVE SMOOTH",
"621 311 LINE SMOOTH",
"632 370 OFFCURVE",
"663 397 OFFCURVE",
"708 397 CURVE",
"741 397 OFFCURVE",
"768 379 OFFCURVE",
"760 334 CURVE",
"585 334 LINE",
"569 243 LINE",
"964 243 LINE",
"970 257 OFFCURVE",
"974 273 OFFCURVE",
"977 287 CURVE",
"1008 464 OFFCURVE",
"908 571 OFFCURVE",
"739 571 CURVE",
"667 571 OFFCURVE",
"601 551 OFFCURVE",
"546 515 CURVE",
"502 551 OFFCURVE",
"441 571 OFFCURVE",
"369 571 CURVE",
"199 571 OFFCURVE",
"52 462 OFFCURVE"
);
}
);
width = 1022;
}
);
leftKerningGroup = o;
rightKerningGroup = e;
unicode = 0153;
userData = {
com.schriftgestaltung.Glyphs.ColorIndex = 4;
com.typemytype.robofont.layerData = {
b = {
anchors = (
);
components = (
);
contours = (
{
points = (
{
segmentType = curve;
smooth = 1;
x = 569;
y = 270;
},
{
smooth = 0;
x = 569;
y = 98;
},
{
smooth = 0;
x = 444;
y = -1;
},
{
segmentType = curve;
smooth = 1;
x = 312;
y = -1;
},
{
smooth = 0;
x = 179;
y = -1;
},
{
smooth = 0;
x = 84;
y = 98;
},
{
segmentType = curve;
smooth = 1;
x = 84;
y = 270;
},
{
smooth = 0;
x = 84;
y = 444;
},
{
smooth = 0;
x = 191;
y = 541;
},
{
segmentType = curve;
smooth = 1;
x = 322;
y = 541;
},
{
smooth = 0;
x = 455;
y = 541;
},
{
smooth = 0;
x = 569;
y = 444;
}
);
},
{
points = (
{
segmentType = curve;
smooth = 1;
x = 64;
y = 270;
},
{
smooth = 0;
x = 64;
y = 103;
},
{
smooth = 0;
x = 162;
y = -12;
},
{
segmentType = curve;
smooth = 1;
x = 312;
y = -12;
},
{
smooth = 0;
x = 430;
y = -12;
},
{
smooth = 0;
x = 531;
y = 48;
},
{
segmentType = curve;
smooth = 0;
x = 578;
y = 146;
},
{
smooth = 0;
x = 620;
y = 48;
},
{
smooth = 0;
x = 709;
y = -12;
},
{
segmentType = curve;
smooth = 1;
x = 826;
y = -12;
},
{
smooth = 0;
x = 962;
y = -12;
},
{
smooth = 0;
x = 1026;
y = 66;
},
{
segmentType = curve;
smooth = 0;
x = 1059;
y = 137;
},
{
segmentType = line;
smooth = 0;
x = 1039;
y = 137;
},
{
smooth = 0;
x = 1015;
y = 60;
},
{
smooth = 0;
x = 934;
y = -1;
},
{
segmentType = curve;
smooth = 1;
x = 826;
y = -1;
},
{
smooth = 0;
x = 697;
y = -1;
},
{
smooth = 0;
x = 592;
y = 93;
},
{
segmentType = curve;
smooth = 1;
x = 592;
y = 269;
},
{
segmentType = line;
smooth = 1;
x = 592;
y = 274;
},
{
smooth = 0;
x = 592;
y = 447;
},
{
smooth = 0;
x = 694;
y = 541;
},
{
segmentType = curve;
smooth = 1;
x = 827;
y = 541;
},
{
smooth = 0;
x = 958;
y = 541;
},
{
smooth = 0;
x = 1062;
y = 448;
},
{
segmentType = curve;
smooth = 0;
x = 1059;
y = 290;
},
{
segmentType = line;
smooth = 0;
x = 570;
y = 290;
},
{
segmentType = line;
smooth = 0;
x = 571;
y = 261;
},
{
segmentType = line;
smooth = 0;
x = 1074;
y = 261;
},
{
smooth = 0;
x = 1077;
y = 280;
},
{
smooth = 0;
x = 1078;
y = 298;
},
{
segmentType = curve;
smooth = 1;
x = 1078;
y = 315;
},
{
smooth = 0;
x = 1078;
y = 434;
},
{
smooth = 0;
x = 993;
y = 552;
},
{
segmentType = curve;
smooth = 1;
x = 840;
y = 552;
},
{
smooth = 0;
x = 715;
y = 552;
},
{
smooth = 0;
x = 623;
y = 495;
},
{
segmentType = curve;
smooth = 0;
x = 582;
y = 400;
},
{
smooth = 0;
x = 537;
y = 495;
},
{
smooth = 0;
x = 442;
y = 552;
},
{
segmentType = curve;
smooth = 1;
x = 328;
y = 552;
},
{
smooth = 0;
x = 177;
y = 552;
},
{
smooth = 0;
x = 64;
y = 438;
}
);
}
);
lib = {
};
name = oe;
unicodes = (
);
width = 1135;
};
};
com.typesupply.AccentFactory.yCoordinates = {
bottom = {
name = origin;
type = glyphMetric;
};
top = {
name = xHeight;
type = fontInfo;
};
};
};
},
{
glyphname = p;
lastChange = "2022-04-15 09:30:11 +0000";
layers = (
{
background = {
paths = (
{
closed = 1;
nodes = (
"183 453 CURVE",
"183 551 LINE",
"69 551 LINE",
"69 -262 LINE",
"183 -262 LINE",
"183 103 LINE",
"219 39 OFFCURVE",
"284 -9 OFFCURVE",
"375 -9 CURVE SMOOTH",
"520 -9 OFFCURVE",
"634 108 OFFCURVE",
"634 278 CURVE SMOOTH",
"634 448 OFFCURVE",
"520 560 OFFCURVE",
"375 560 CURVE SMOOTH",
"284 560 OFFCURVE",
"218 514 OFFCURVE"
);
},
{
closed = 1;
nodes = (
"518 278 CURVE SMOOTH",
"518 159 OFFCURVE",
"436 90 OFFCURVE",
"350 90 CURVE SMOOTH",
"265 90 OFFCURVE",
"183 157 OFFCURVE",
"183 276 CURVE SMOOTH",
"183 394 OFFCURVE",
"265 461 OFFCURVE",
"350 461 CURVE SMOOTH",
"436 461 OFFCURVE",
"518 397 OFFCURVE"
);
}
);
};
guideLines = (
{
position = "{-430, 64}";
}
);
layerId = "ED744E86-D388-498D-94EB-FEBBBDC8F1CA";
paths = (
{
closed = 1;
nodes = (
"214 470 CURVE",
"228 551 LINE",
"114 551 LINE",
"-29 -262 LINE",
"85 -262 LINE",
"145 80 LINE",
"174 37 OFFCURVE",
"231 -9 OFFCURVE",
"322 -9 CURVE SMOOTH",
"467 -9 OFFCURVE",
"601 108 OFFCURVE",
"631 278 CURVE SMOOTH",
"661 448 OFFCURVE",
"567 560 OFFCURVE",
"422 560 CURVE SMOOTH",
"332 560 OFFCURVE",
"257 516 OFFCURVE"
);
},
{
closed = 1;
nodes = (
"515 278 CURVE SMOOTH",
"494 159 OFFCURVE",
"400 90 OFFCURVE",
"314 90 CURVE SMOOTH",
"229 90 OFFCURVE",
"159 157 OFFCURVE",
"180 276 CURVE SMOOTH",
"201 394 OFFCURVE",
"295 461 OFFCURVE",
"380 461 CURVE SMOOTH",
"466 461 OFFCURVE",
"536 397 OFFCURVE"
);
}
);
width = 666;
},
{
layerId = "15935870-0A58-425A-9765-D144975D2C89";
paths = (
{
closed = 1;
nodes = (
"308 487 CURVE",
"322 564 LINE",
"100 564 LINE",
"-47 -270 LINE",
"175 -270 LINE",
"236 77 LINE",
"254 26 OFFCURVE",
"301 -7 OFFCURVE",
"376 -7 CURVE",
"506 -7 OFFCURVE",
"628 100 OFFCURVE",
"660 282 CURVE",
"692 464 OFFCURVE",
"608 571 OFFCURVE",
"478 571 CURVE",
"403 571 OFFCURVE",
"344 538 OFFCURVE"
);
},
{
closed = 1;
nodes = (
"435 282 CURVE",
"424 220 OFFCURVE",
"382 187 OFFCURVE",
"336 187 CURVE",
"290 187 OFFCURVE",
"260 220 OFFCURVE",
"271 282 CURVE",
"282 344 OFFCURVE",
"324 377 OFFCURVE",
"370 377 CURVE",
"416 377 OFFCURVE",
"446 344 OFFCURVE"
);
}
);
width = 680;
}
);
leftKerningGroup = p;
leftMetricsKey = l;
rightKerningGroup = o;
rightMetricsKey = o;
unicode = 0070;
userData = {
com.schriftgestaltung.Glyphs.ColorIndex = 4;
com.typemytype.robofont.guides = (
{
angle = 0;
isGlobal = 0;
magnetic = 5;
x = -74;
y = -254;
}
);
com.typesupply.AccentFactory.yCoordinates = {
top = {
name = xHeight;
type = fontInfo;
};
};
};
},
{
glyphname = thorn;
lastChange = "2022-04-14 09:43:24 +0000";
layers = (
{
layerId = "ED744E86-D388-498D-94EB-FEBBBDC8F1CA";
paths = (
{
closed = 1;
nodes = (
"217 453 CURVE",
"268 740 LINE",
"154 740 LINE",
"-23 -262 LINE",
"91 -262 LINE",
"155 103 LINE",
"180 39 OFFCURVE",
"237 -9 OFFCURVE",
"328 -9 CURVE SMOOTH",
"473 -9 OFFCURVE",
"607 108 OFFCURVE",
"637 278 CURVE SMOOTH",
"667 448 OFFCURVE",
"573 560 OFFCURVE",
"428 560 CURVE SMOOTH",
"337 560 OFFCURVE",
"263 514 OFFCURVE"
);
},
{
closed = 1;
nodes = (
"521 278 CURVE SMOOTH",
"500 159 OFFCURVE",
"406 90 OFFCURVE",
"320 90 CURVE SMOOTH",
"235 90 OFFCURVE",
"165 157 OFFCURVE",
"186 276 CURVE SMOOTH",
"207 394 OFFCURVE",
"301 461 OFFCURVE",
"386 461 CURVE SMOOTH",
"472 461 OFFCURVE",
"542 397 OFFCURVE"
);
}
);
width = 678;
},
{
layerId = "15935870-0A58-425A-9765-D144975D2C89";
paths = (
{
closed = 1;
nodes = (
"313 514 CURVE",
"353 740 LINE",
"131 740 LINE",
"-47 -270 LINE",
"175 -270 LINE",
"233 62 LINE",
"263 16 OFFCURVE",
"301 -6 OFFCURVE",
"360 -6 CURVE SMOOTH",
"494 -6 OFFCURVE",
"629 108 OFFCURVE",
"659 278 CURVE SMOOTH",
"689 448 OFFCURVE",
"595 568 OFFCURVE",
"461 568 CURVE SMOOTH",
"402 568 OFFCURVE",
"357 554 OFFCURVE"
);
},
{
closed = 1;
nodes = (
"434 278 CURVE SMOOTH",
"422 206 OFFCURVE",
"370 187 OFFCURVE",
"337 187 CURVE SMOOTH",
"303 187 OFFCURVE",
"259 210 OFFCURVE",
"272 282 CURVE SMOOTH",
"285 354 OFFCURVE",
"337 376 OFFCURVE",
"371 376 CURVE SMOOTH",
"404 376 OFFCURVE",
"447 350 OFFCURVE"
);
}
);
width = 680;
}
);
leftKerningGroup = h;
rightKerningGroup = o;
unicode = 00FE;
userData = {
com.schriftgestaltung.Glyphs.ColorIndex = 4;
};
},
{
glyphname = q;
lastChange = "2022-04-15 09:13:27 +0000";
layers = (
{
background = {
paths = (
{
closed = 1;
nodes = (
"38 278 CURVE SMOOTH",
"38 108 OFFCURVE",
"153 -9 OFFCURVE",
"298 -9 CURVE SMOOTH",
"388 -9 OFFCURVE",
"454 39 OFFCURVE",
"489 103 CURVE",
"489 -262 LINE",
"604 -262 LINE",
"604 551 LINE",
"489 551 LINE",
"489 453 LINE",
"455 514 OFFCURVE",
"388 560 OFFCURVE",
"298 560 CURVE SMOOTH",
"153 560 OFFCURVE",
"38 448 OFFCURVE"
);
},
{
closed = 1;
nodes = (
"489 276 CURVE SMOOTH",
"489 157 OFFCURVE",
"408 90 OFFCURVE",
"322 90 CURVE SMOOTH",
"237 90 OFFCURVE",
"155 159 OFFCURVE",
"155 278 CURVE SMOOTH",
"155 397 OFFCURVE",
"237 461 OFFCURVE",
"322 461 CURVE SMOOTH",
"408 461 OFFCURVE",
"489 394 OFFCURVE"
);
}
);
};
guideLines = (
{
position = "{-450, 64}";
}
);
layerId = "ED744E86-D388-498D-94EB-FEBBBDC8F1CA";
paths = (
{
closed = 1;
nodes = (
"35 278 CURVE SMOOTH",
"5 108 OFFCURVE",
"100 -9 OFFCURVE",
"242 -9 CURVE SMOOTH",
"335 -9 OFFCURVE",
"412 37 OFFCURVE",
"451 80 CURVE",
"391 -262 LINE",
"506 -262 LINE",
"649 551 LINE",
"534 551 LINE",
"520 471 LINE",
"496 516 OFFCURVE",
"437 560 OFFCURVE",
"346 560 CURVE SMOOTH",
"200 560 OFFCURVE",
"65 448 OFFCURVE"
);
},
{
closed = 1;
nodes = (
"486 276 CURVE SMOOTH",
"465 157 OFFCURVE",
"372 90 OFFCURVE",
"286 90 CURVE SMOOTH",
"201 90 OFFCURVE",
"131 159 OFFCURVE",
"152 278 CURVE SMOOTH",
"173 397 OFFCURVE",
"267 461 OFFCURVE",
"352 461 CURVE SMOOTH",
"438 461 OFFCURVE",
"507 394 OFFCURVE"
);
}
);
width = 666;
},
{
layerId = "15935870-0A58-425A-9765-D144975D2C89";
paths = (
{
closed = 1;
nodes = (
"19 278 CURVE SMOOTH",
"-11 108 OFFCURVE",
"85 -6 OFFCURVE",
"218 -6 CURVE SMOOTH",
"276 -6 OFFCURVE",
"322 16 OFFCURVE",
"370 62 CURVE",
"312 -270 LINE",
"533 -270 LINE",
"680 564 LINE",
"459 564 LINE",
"450 514 LINE",
"420 554 OFFCURVE",
"377 568 OFFCURVE",
"319 568 CURVE SMOOTH",
"186 568 OFFCURVE",
"49 448 OFFCURVE"
);
},
{
closed = 1;
nodes = (
"409 282 CURVE SMOOTH",
"396 210 OFFCURVE",
"343 187 OFFCURVE",
"310 187 CURVE SMOOTH",
"277 187 OFFCURVE",
"232 206 OFFCURVE",
"244 278 CURVE SMOOTH",
"257 350 OFFCURVE",
"311 376 OFFCURVE",
"344 376 CURVE SMOOTH",
"377 376 OFFCURVE",
"422 354 OFFCURVE"
);
}
);
width = 680;
}
);
leftKerningGroup = o;
leftMetricsKey = o;
rightKerningGroup = q;
rightMetricsKey = l;
unicode = 0071;
userData = {
com.schriftgestaltung.Glyphs.ColorIndex = 4;
com.typesupply.AccentFactory.yCoordinates = {
top = {
name = xHeight;
type = fontInfo;
};
};
};
},
{
glyphname = r;
lastChange = "2022-04-15 09:30:19 +0000";
layers = (
{
anchors = (
{
name = bottom;
position = "{79, 0}";
},
{
name = top;
position = "{285, 551}";
}
);
layerId = "ED744E86-D388-498D-94EB-FEBBBDC8F1CA";
paths = (
{
closed = 1;
nodes = (
"187 290 LINE",
"208 407 OFFCURVE",
"266 442 OFFCURVE",
"350 442 CURVE SMOOTH",
"379 442 LINE",
"400 560 LINE",
"266 560 OFFCURVE",
"180 439 OFFCURVE",
"153 290 CURVE"
);
},
{
closed = 1;
nodes = (
"22 0 LINE",
"136 0 LINE",
"233 551 LINE",
"119 551 LINE"
);
}
);
width = 375;
},
{
anchors = (
{
name = bottom;
position = "{105, 0}";
},
{
name = top;
position = "{325, 564}";
}
);
layerId = "15935870-0A58-425A-9765-D144975D2C89";
paths = (
{
closed = 1;
nodes = (
"263 231 LINE",
"277 308 OFFCURVE",
"323 331 OFFCURVE",
"403 331 CURVE SMOOTH",
"466 331 LINE",
"507 568 LINE",
"377 568 OFFCURVE",
"243 428 OFFCURVE",
"219 291 CURVE"
);
},
{
closed = 1;
nodes = (
"0 0 LINE",
"222 0 LINE",
"322 564 LINE",
"100 564 LINE"
);
}
);
width = 482;
}
);
leftKerningGroup = n;
leftMetricsKey = n;
rightKerningGroup = r;
unicode = 0072;
userData = {
com.schriftgestaltung.Glyphs.ColorIndex = 4;
com.typesupply.AccentFactory.yCoordinates = {
bottom = {
name = origin;
type = glyphMetric;
};
top = {
name = xHeight;
type = fontInfo;
};
};
};
},
{
glyphname = rcommaaccent;
lastChange = "2022-04-14 09:43:24 +0000";
layers = (
{
components = (
{
name = r;
}
);
layerId = "ED744E86-D388-498D-94EB-FEBBBDC8F1CA";
paths = (
{
closed = 1;
nodes = (
"17 -46 LINE",
"0 -142 LINE",
"53 -142 LINE",
"50 -163 LINE SMOOTH",
"43 -201 OFFCURVE",
"25 -220 OFFCURVE",
"-8 -220 CURVE",
"-17 -270 LINE",
"57 -270 OFFCURVE",
"102 -228 OFFCURVE",
"117 -145 CURVE SMOOTH",
"122 -116 OFFCURVE",
"124 -83 OFFCURVE",
"120 -46 CURVE"
);
}
);
width = 384;
},
{
components = (
{
name = r;
}
);
layerId = "15935870-0A58-425A-9765-D144975D2C89";
paths = (
{
closed = 1;
nodes = (
"24 -35 LINE",
"-2 -182 LINE",
"70 -182 LINE",
"68 -193 LINE SMOOTH",
"59 -245 OFFCURVE",
"34 -268 OFFCURVE",
"0 -268 CURVE",
"-14 -346 LINE",
"99 -346 OFFCURVE",
"164 -266 OFFCURVE",
"181 -170 CURVE SMOOTH",
"189 -128 OFFCURVE",
"190 -82 OFFCURVE",
"180 -35 CURVE"
);
}
);
width = 467;
}
);
leftKerningGroup = n;
rightKerningGroup = r;
unicode = 0157;
userData = {
com.schriftgestaltung.Glyphs.ColorIndex = 8;
com.typesupply.AccentFactory.compileType = manual;
};
},
{
glyphname = s;
lastChange = "2022-04-15 09:30:24 +0000";
layers = (
{
anchors = (
{
name = bottom;
position = "{213, 0}";
},
{
name = top;
position = "{310, 551}";
}
);
layerId = "ED744E86-D388-498D-94EB-FEBBBDC8F1CA";
paths = (
{
closed = 1;
nodes = (
"355 -9 OFFCURVE",
"453 52 OFFCURVE",
"453 152 CURVE SMOOTH",
"453 323 OFFCURVE",
"182 299 OFFCURVE",
"182 403 CURVE SMOOTH",
"182 444 OFFCURVE",
"221 470 OFFCURVE",
"278 470 CURVE SMOOTH",
"344 470 OFFCURVE",
"381 435 OFFCURVE",
"376 383 CURVE",
"484 383 LINE",
"497 489 OFFCURVE",
"410 560 OFFCURVE",
"285 560 CURVE SMOOTH",
"156 560 OFFCURVE",
"67 495 OFFCURVE",
"67 398 CURVE SMOOTH",
"67 220 OFFCURVE",
"341 246 OFFCURVE",
"341 148 CURVE SMOOTH",
"341 101 OFFCURVE",
"291 81 OFFCURVE",
"231 81 CURVE SMOOTH",
"164 81 OFFCURVE",
"127 119 OFFCURVE",
"132 169 CURVE",
"21 169 LINE",
"6 64 OFFCURVE",
"100 -9 OFFCURVE",
"224 -9 CURVE SMOOTH"
);
}
);
width = 512;
},
{
anchors = (
{
name = bottom;
position = "{254, 0}";
},
{
name = top;
position = "{354, 564}";
}
);
background = {
paths = (
{
closed = 1;
nodes = (
"35 419 CURVE SMOOTH",
"-5 184 OFFCURVE",
"345 236 OFFCURVE",
"331 168 CURVE",
"328 155 OFFCURVE",
"318 146 OFFCURVE",
"288 146 CURVE SMOOTH",
"251 146 OFFCURVE",
"212 156 OFFCURVE",
"215 195 CURVE",
"-2 195 LINE",
"7 64 OFFCURVE",
"115 -7 OFFCURVE",
"270 -7 CURVE",
"429 -7 OFFCURVE",
"514 59 OFFCURVE",
"530 143 CURVE SMOOTH",
"574 374 OFFCURVE",
"217 332 OFFCURVE",
"229 397 CURVE SMOOTH",
"232 413 OFFCURVE",
"249 417 OFFCURVE",
"272 417 CURVE SMOOTH",
"307 417 OFFCURVE",
"339 406 OFFCURVE",
"343 369 CURVE",
"560 369 LINE",
"547 483 OFFCURVE",
"467 571 OFFCURVE",
"291 571 CURVE SMOOTH",
"132 571 OFFCURVE",
"49 501 OFFCURVE"
);
}
);
};
layerId = "15935870-0A58-425A-9765-D144975D2C89";
paths = (
{
closed = 1;
nodes = (
"414 -7 OFFCURVE",
"528 58 OFFCURVE",
"528 177 CURVE SMOOTH",
"528 350 OFFCURVE",
"246 330 OFFCURVE",
"246 391 CURVE SMOOTH",
"246 408 OFFCURVE",
"264 417 OFFCURVE",
"286 417 CURVE",
"322 417 OFFCURVE",
"341 399 OFFCURVE",
"341 369 CURVE",
"538 369 LINE",
"542 480 OFFCURVE",
"453 571 OFFCURVE",
"287 571 CURVE SMOOTH",
"138 571 OFFCURVE",
"42 492 OFFCURVE",
"42 391 CURVE SMOOTH",
"42 205 OFFCURVE",
"320 237 OFFCURVE",
"320 173 CURVE SMOOTH",
"320 158 OFFCURVE",
"301 146 OFFCURVE",
"278 146 CURVE SMOOTH",
"244 146 OFFCURVE",
"220 161 OFFCURVE",
"221 195 CURVE",
"8 195 LINE",
"-12 75 OFFCURVE",
"98 -7 OFFCURVE",
"260 -7 CURVE SMOOTH"
);
}
);
width = 564;
}
);
leftKerningGroup = s;
rightKerningGroup = s;
unicode = 0073;
userData = {
com.schriftgestaltung.Glyphs.ColorIndex = 4;
com.typesupply.AccentFactory.yCoordinates = {
bottom = {
name = origin;
type = glyphMetric;
};
top = {
name = xHeight;
type = fontInfo;
};
};
};
},
{
glyphname = scommaaccent;
lastChange = "2022-04-14 09:43:24 +0000";
layers = (
{
components = (
{
name = s;
}
);
layerId = "ED744E86-D388-498D-94EB-FEBBBDC8F1CA";
paths = (
{
closed = 1;
nodes = (
"153 -46 LINE",
"136 -142 LINE",
"189 -142 LINE",
"186 -163 LINE SMOOTH",
"179 -201 OFFCURVE",
"161 -220 OFFCURVE",
"127 -220 CURVE",
"118 -270 LINE",
"192 -270 OFFCURVE",
"238 -228 OFFCURVE",
"253 -145 CURVE SMOOTH",
"258 -116 OFFCURVE",
"259 -83 OFFCURVE",
"256 -46 CURVE"
);
}
);
width = 534;
},
{
components = (
{
name = s;
}
);
layerId = "15935870-0A58-425A-9765-D144975D2C89";
paths = (
{
closed = 1;
nodes = (
"152 -35 LINE",
"126 -182 LINE",
"198 -182 LINE",
"196 -193 LINE SMOOTH",
"187 -245 OFFCURVE",
"162 -268 OFFCURVE",
"128 -268 CURVE",
"114 -346 LINE",
"227 -346 OFFCURVE",
"292 -266 OFFCURVE",
"309 -170 CURVE SMOOTH",
"317 -128 OFFCURVE",
"318 -82 OFFCURVE",
"308 -35 CURVE"
);
}
);
width = 579;
}
);
leftKerningGroup = s;
rightKerningGroup = s;
unicode = 0219;
userData = {
com.schriftgestaltung.Glyphs.ColorIndex = 8;
com.typesupply.AccentFactory.compileType = manual;
};
},
{
glyphname = germandbls;
lastChange = "2022-04-14 09:43:24 +0000";
layers = (
{
layerId = "ED744E86-D388-498D-94EB-FEBBBDC8F1CA";
paths = (
{
closed = 1;
nodes = (
"6 0 LINE",
"120 0 LINE",
"216 547 LINE SMOOTH",
"231 630 OFFCURVE",
"272 678 OFFCURVE",
"371 678 CURVE SMOOTH",
"436 678 OFFCURVE",
"475 653 OFFCURVE",
"475 608 CURVE SMOOTH",
"475 513 OFFCURVE",
"298 469 OFFCURVE",
"298 356 CURVE SMOOTH",
"298 299 OFFCURVE",
"342 266 OFFCURVE",
"430 235 CURVE SMOOTH",
"487 215 OFFCURVE",
"507 195 OFFCURVE",
"507 163 CURVE SMOOTH",
"507 107 OFFCURVE",
"470 81 OFFCURVE",
"409 81 CURVE SMOOTH",
"350 81 OFFCURVE",
"322 116 OFFCURVE",
"330 173 CURVE",
"214 173 LINE",
"200 62 OFFCURVE",
"272 -10 OFFCURVE",
"396 -10 CURVE SMOOTH",
"527 -10 OFFCURVE",
"627 66 OFFCURVE",
"627 177 CURVE SMOOTH",
"627 251 OFFCURVE",
"593 293 OFFCURVE",
"511 322 CURVE SMOOTH",
"430 351 OFFCURVE",
"418 364 OFFCURVE",
"418 382 CURVE SMOOTH",
"418 432 OFFCURVE",
"592 485 OFFCURVE",
"592 626 CURVE SMOOTH",
"592 703 OFFCURVE",
"527 773 OFFCURVE",
"389 773 CURVE SMOOTH",
"215 773 OFFCURVE",
"125 676 OFFCURVE",
"105 562 CURVE SMOOTH"
);
}
);
width = 682;
},
{
layerId = "15935870-0A58-425A-9765-D144975D2C89";
paths = (
{
closed = 1;
nodes = (
"-5 0 LINE",
"215 0 LINE",
"303 499 LINE SMOOTH",
"311 548 OFFCURVE",
"350 580 OFFCURVE",
"399 580 CURVE SMOOTH",
"436 580 OFFCURVE",
"460 563 OFFCURVE",
"460 538 CURVE SMOOTH",
"460 485 OFFCURVE",
"338 427 OFFCURVE",
"338 346 CURVE SMOOTH",
"338 294 OFFCURVE",
"379 263 OFFCURVE",
"478 223 CURVE SMOOTH",
"532 201 OFFCURVE",
"545 189 OFFCURVE",
"545 171 CURVE SMOOTH",
"545 155 OFFCURVE",
"530 143 OFFCURVE",
"510 143 CURVE SMOOTH",
"486 143 OFFCURVE",
"467 161 OFFCURVE",
"464 188 CURVE",
"270 188 LINE",
"271 60 OFFCURVE",
"350 -10 OFFCURVE",
"497 -10 CURVE SMOOTH",
"651 -10 OFFCURVE",
"756 72 OFFCURVE",
"756 196 CURVE SMOOTH",
"756 273 OFFCURVE",
"720 310 OFFCURVE",
"638 346 CURVE SMOOTH",
"570 376 OFFCURVE",
"564 381 OFFCURVE",
"564 393 CURVE SMOOTH",
"564 429 OFFCURVE",
"687 486 OFFCURVE",
"687 598 CURVE SMOOTH",
"687 694 OFFCURVE",
"588 763 OFFCURVE",
"435 763 CURVE SMOOTH",
"247 763 OFFCURVE",
"113 670 OFFCURVE",
"84 509 CURVE SMOOTH"
);
}
);
width = 773;
}
);
leftKerningGroup = h;
rightKerningGroup = germandbls;
unicode = 00DF;
userData = {
com.schriftgestaltung.Glyphs.ColorIndex = 4;
};
},
{
color = 6;
glyphname = t;
lastChange = "2022-04-15 09:13:34 +0000";
layers = (
{
anchors = (
{
name = bottom;
position = "{136, 0}";
},
{
name = topright;
position = "{298, 828}";
}
);
layerId = "ED744E86-D388-498D-94EB-FEBBBDC8F1CA";
paths = (
{
closed = 1;
nodes = (
"69 153 LINE SMOOTH",
"49 41 OFFCURVE",
"103 0 OFFCURVE",
"201 0 CURVE SMOOTH",
"291 0 LINE",
"308 95 LINE",
"238 95 LINE SMOOTH",
"190 95 OFFCURVE",
"177 112 OFFCURVE",
"184 153 CURVE SMOOTH",
"285 724 LINE",
"154 629 LINE"
);
},
{
closed = 1;
nodes = (
"372 458 LINE",
"388 551 LINE",
"74 551 LINE",
"58 458 LINE"
);
}
);
width = 370;
},
{
anchors = (
{
name = bottom;
position = "{177, 0}";
},
{
name = topright;
position = "{399, 942}";
}
);
layerId = "15935870-0A58-425A-9765-D144975D2C89";
paths = (
{
closed = 1;
nodes = (
"76 231 LINE SMOOTH",
"45 56 OFFCURVE",
"135 0 OFFCURVE",
"267 0 CURVE SMOOTH",
"351 0 LINE",
"385 189 LINE",
"332 189 LINE SMOOTH",
"303 189 OFFCURVE",
"292 201 OFFCURVE",
"297 227 CURVE SMOOTH",
"394 775 LINE",
"150 646 LINE"
);
},
{
closed = 1;
nodes = (
"416 379 LINE",
"449 564 LINE",
"65 564 LINE",
"32 379 LINE"
);
}
);
width = 441;
}
);
leftKerningGroup = t;
rightKerningGroup = t;
unicode = 0074;
userData = {
com.schriftgestaltung.Glyphs.ColorIndex = 4;
com.typesupply.AccentFactory.yCoordinates = {
bottom = {
name = origin;
type = glyphMetric;
};
};
};
},
{
glyphname = tcaron;
lastChange = "2022-04-14 09:43:24 +0000";
layers = (
{
components = (
{
name = t;
}
);
layerId = "ED744E86-D388-498D-94EB-FEBBBDC8F1CA";
paths = (
{
closed = 1;
nodes = (
"368 784 LINE",
"350 687 LINE",
"403 687 LINE",
"401 672 LINE SMOOTH",
"397 649 OFFCURVE",
"379 640 OFFCURVE",
"346 640 CURVE",
"337 590 LINE",
"411 590 OFFCURVE",
"456 623 OFFCURVE",
"469 694 CURVE SMOOTH",
"474 724 OFFCURVE",
"473 747 OFFCURVE",
"471 784 CURVE"
);
}
);
width = 377;
},
{
components = (
{
name = t;
}
);
layerId = "15935870-0A58-425A-9765-D144975D2C89";
paths = (
{
closed = 1;
nodes = (
"445 890 LINE",
"419 744 LINE",
"491 744 LINE",
"488 727 LINE SMOOTH",
"484 701 OFFCURVE",
"462 688 OFFCURVE",
"427 688 CURVE",
"413 609 LINE",
"527 609 OFFCURVE",
"590 678 OFFCURVE",
"605 766 CURVE SMOOTH",
"613 808 OFFCURVE",
"611 844 OFFCURVE",
"601 890 CURVE"
);
}
);
width = 436;
}
);
leftKerningGroup = t;
rightKerningGroup = t;
unicode = 0165;
userData = {
com.schriftgestaltung.Glyphs.ColorIndex = 5;
com.typesupply.AccentFactory.compileType = manual;
};
},
{
glyphname = tcedilla;
lastChange = "2022-04-14 09:43:24 +0000";
layers = (
{
layerId = "ED744E86-D388-498D-94EB-FEBBBDC8F1CA";
paths = (
{
closed = 1;
nodes = (
"68 153 LINE SMOOTH",
"49 41 OFFCURVE",
"102 0 OFFCURVE",
"200 0 CURVE SMOOTH",
"290 0 LINE",
"307 95 LINE",
"237 95 LINE SMOOTH",
"189 95 OFFCURVE",
"176 112 OFFCURVE",
"183 153 CURVE SMOOTH",
"278 688 LINE",
"163 688 LINE"
);
},
{
closed = 1;
nodes = (
"371 458 LINE",
"387 551 LINE",
"73 551 LINE",
"57 458 LINE"
);
},
{
closed = 1;
nodes = (
"187 60 LINE",
"112 60 LINE",
"81 -116 LINE",
"136 -116 LINE SMOOTH",
"171 -116 OFFCURVE",
"191 -123 OFFCURVE",
"185 -153 CURVE SMOOTH",
"180 -183 OFFCURVE",
"158 -190 OFFCURVE",
"123 -190 CURVE SMOOTH",
"14 -190 LINE",
"1 -262 LINE",
"133 -262 LINE SMOOTH",
"204 -262 OFFCURVE",
"267 -221 OFFCURVE",
"279 -153 CURVE SMOOTH",
"292 -84 OFFCURVE",
"242 -48 OFFCURVE",
"168 -48 CURVE"
);
}
);
width = 372;
},
{
layerId = "15935870-0A58-425A-9765-D144975D2C89";
paths = (
{
closed = 1;
nodes = (
"76 231 LINE SMOOTH",
"45 56 OFFCURVE",
"135 0 OFFCURVE",
"267 0 CURVE SMOOTH",
"351 0 LINE",
"385 189 LINE",
"332 189 LINE SMOOTH",
"303 189 OFFCURVE",
"293 201 OFFCURVE",
"297 227 CURVE SMOOTH",
"381 700 LINE",
"159 700 LINE"
);
},
{
closed = 1;
nodes = (
"416 379 LINE",
"449 564 LINE",
"65 564 LINE",
"32 379 LINE"
);
},
{
closed = 1;
nodes = (
"281 107 LINE",
"153 107 LINE",
"112 -127 LINE",
"197 -127 LINE SMOOTH",
"213 -127 OFFCURVE",
"222 -132 OFFCURVE",
"220 -142 CURVE SMOOTH",
"218 -152 OFFCURVE",
"207 -158 OFFCURVE",
"191 -158 CURVE SMOOTH",
"41 -158 LINE",
"21 -271 LINE",
"194 -271 LINE",
"261 -271 OFFCURVE",
"349 -244 OFFCURVE",
"366 -149 CURVE",
"383 -54 OFFCURVE",
"306 -27 OFFCURVE",
"258 -27 CURVE"
);
}
);
width = 436;
}
);
leftKerningGroup = t;
rightKerningGroup = t;
unicode = 0163;
userData = {
com.schriftgestaltung.Glyphs.ColorIndex = 8;
};
},
{
glyphname = tcommaaccent;
lastChange = "2022-04-14 09:43:24 +0000";
layers = (
{
components = (
{
name = t;
}
);
layerId = "ED744E86-D388-498D-94EB-FEBBBDC8F1CA";
paths = (
{
closed = 1;
nodes = (
"72 -46 LINE",
"55 -142 LINE",
"108 -142 LINE",
"105 -163 LINE SMOOTH",
"98 -201 OFFCURVE",
"80 -220 OFFCURVE",
"46 -220 CURVE",
"37 -270 LINE",
"112 -270 OFFCURVE",
"157 -228 OFFCURVE",
"172 -145 CURVE SMOOTH",
"177 -116 OFFCURVE",
"179 -83 OFFCURVE",
"175 -46 CURVE"
);
}
);
width = 372;
},
{
components = (
{
name = t;
}
);
layerId = "15935870-0A58-425A-9765-D144975D2C89";
paths = (
{
closed = 1;
nodes = (
"91 -35 LINE",
"65 -182 LINE",
"137 -182 LINE",
"135 -193 LINE SMOOTH",
"126 -245 OFFCURVE",
"102 -268 OFFCURVE",
"67 -268 CURVE",
"53 -346 LINE",
"167 -346 OFFCURVE",
"232 -266 OFFCURVE",
"249 -170 CURVE SMOOTH",
"257 -128 OFFCURVE",
"257 -82 OFFCURVE",
"247 -35 CURVE"
);
}
);
width = 436;
}
);
leftKerningGroup = t;
rightKerningGroup = t;
unicode = 021B;
userData = {
com.schriftgestaltung.Glyphs.ColorIndex = 8;
com.typesupply.AccentFactory.compileType = manual;
};
},
{
glyphname = u;
lastChange = "2022-04-15 09:32:42 +0000";
layers = (
{
anchors = (
{
name = ogonek;
position = "{523, -1}";
},
{
name = top;
position = "{371, 551}";
}
);
background = {
paths = (
{
closed = 1;
nodes = (
"184 551 LINE",
"71 551 LINE",
"71 226 LINE SMOOTH",
"71 72 OFFCURVE",
"167 -8 OFFCURVE",
"285 -8 CURVE SMOOTH",
"384 -8 OFFCURVE",
"463 47 OFFCURVE",
"485 152 CURVE",
"461 243 LINE",
"461 142 OFFCURVE",
"406 90 OFFCURVE",
"322 90 CURVE SMOOTH",
"239 90 OFFCURVE",
"184 142 OFFCURVE",
"184 243 CURVE SMOOTH"
);
}
);
};
layerId = "ED744E86-D388-498D-94EB-FEBBBDC8F1CA";
paths = (
{
closed = 1;
nodes = (
"620 551 LINE",
"506 551 LINE",
"409 0 LINE",
"523 0 LINE"
);
},
{
closed = 1;
nodes = (
"229 551 LINE",
"116 551 LINE",
"59 227 LINE SMOOTH",
"32 73 OFFCURVE",
"116 -8 OFFCURVE",
"245 -8 CURVE SMOOTH",
"333 -8 OFFCURVE",
"423 42 OFFCURVE",
"458 120 CURVE",
"452 244 LINE",
"435 143 OFFCURVE",
"370 91 OFFCURVE",
"286 91 CURVE SMOOTH",
"203 91 OFFCURVE",
"158 143 OFFCURVE",
"175 244 CURVE SMOOTH"
);
}
);
width = 642;
},
{
anchors = (
{
name = ogonek;
position = "{593, -3}";
},
{
name = top;
position = "{395, 564}";
}
);
layerId = "15935870-0A58-425A-9765-D144975D2C89";
paths = (
{
closed = 1;
nodes = (
"693 564 LINE",
"471 564 LINE",
"371 0 LINE",
"593 0 LINE"
);
},
{
closed = 1;
nodes = (
"313 564 LINE",
"92 564 LINE",
"34 237 LINE SMOOTH",
"8 91 OFFCURVE",
"68 -4 OFFCURVE",
"198 -4 CURVE SMOOTH",
"298 -4 OFFCURVE",
"369 53 OFFCURVE",
"406 113 CURVE",
"418 265 LINE",
"408 211 OFFCURVE",
"373 178 OFFCURVE",
"324 178 CURVE SMOOTH",
"276 178 OFFCURVE",
"250 211 OFFCURVE",
"260 265 CURVE SMOOTH"
);
}
);
width = 693;
}
);
leftKerningGroup = u;
leftMetricsKey = "=|n+2";
rightKerningGroup = u;
rightMetricsKey = "=|n";
unicode = 0075;
userData = {
com.schriftgestaltung.Glyphs.ColorIndex = 4;
com.typesupply.AccentFactory.yCoordinates = {
bottom = {
name = origin;
type = glyphMetric;
};
top = {
name = xHeight;
type = fontInfo;
};
};
};
},
{
color = 6;
glyphname = v;
lastChange = "2022-04-15 09:30:34 +0000";
layers = (
{
layerId = "ED744E86-D388-498D-94EB-FEBBBDC8F1CA";
paths = (
{
closed = 1;
nodes = (
"49 551 LINE",
"152 0 LINE",
"308 0 LINE",
"603 551 LINE",
"482 551 LINE",
"214 16 LINE",
"252 16 LINE",
"170 551 LINE"
);
}
);
width = 559;
},
{
layerId = "15935870-0A58-425A-9765-D144975D2C89";
paths = (
{
closed = 1;
nodes = (
"50 564 LINE",
"112 0 LINE",
"442 0 LINE",
"703 564 LINE",
"467 564 LINE",
"268 40 LINE",
"295 40 LINE",
"286 564 LINE"
);
}
);
width = 658;
},
{
associatedMasterId = "15935870-0A58-425A-9765-D144975D2C89";
layerId = "2E218BEE-0485-4464-801C-58842ADA453B";
name = "12 avr. 22 à 17:04";
paths = (
{
closed = 1;
nodes = (
"59 564 LINE",
"147 0 LINE",
"424 0 LINE",
"712 564 LINE",
"476 564 LINE",
"323 211 LINE",
"295 564 LINE"
);
}
);
width = 671;
},
{
associatedMasterId = "ED744E86-D388-498D-94EB-FEBBBDC8F1CA";
layerId = "4E1907AC-8F44-447F-BBDA-E89C38664575";
name = "12 avr. 22 à 17:05";
paths = (
{
closed = 1;
nodes = (
"55 551 LINE",
"167 0 LINE",
"305 0 LINE",
"612 551 LINE",
"489 551 LINE",
"254 102 LINE",
"177 551 LINE"
);
}
);
visible = 1;
width = 576;
}
);
leftKerningGroup = v;
rightKerningGroup = v;
unicode = 0076;
userData = {
com.schriftgestaltung.Glyphs.ColorIndex = 4;
com.typesupply.AccentFactory.yCoordinates = {
bottom = {
name = origin;
type = glyphMetric;
};
top = {
name = xHeight;
type = fontInfo;
};
};
};
},
{
color = 6;
glyphname = w;
lastChange = "2022-04-15 09:30:56 +0000";
layers = (
{
layerId = "ED744E86-D388-498D-94EB-FEBBBDC8F1CA";
paths = (
{
closed = 1;
nodes = (
"113 0 LINE",
"253 0 LINE",
"463 489 LINE",
"430 489 LINE",
"457 0 LINE",
"597 0 LINE",
"854 551 LINE",
"743 551 LINE",
"522 36 LINE",
"540 36 LINE",
"514 551 LINE",
"396 551 LINE",
"175 36 LINE",
"192 36 LINE",
"166 551 LINE",
"49 551 LINE"
);
}
);
width = 810;
},
{
layerId = "15935870-0A58-425A-9765-D144975D2C89";
paths = (
{
closed = 1;
nodes = (
"82 0 LINE",
"360 0 LINE",
"500 409 LINE",
"472 409 LINE",
"461 0 LINE",
"764 0 LINE",
"957 564 LINE",
"752 564 LINE",
"617 72 LINE",
"627 72 LINE",
"627 564 LINE",
"390 564 LINE",
"221 72 LINE",
"231 72 LINE",
"270 564 LINE",
"50 564 LINE"
);
}
);
width = 912;
},
{
associatedMasterId = "ED744E86-D388-498D-94EB-FEBBBDC8F1CA";
layerId = "24245539-A6A1-4F42-B19F-C6F38AC2AFF7";
name = "12 avr. 22 à 17:07";
paths = (
{
closed = 1;
nodes = (
"130 0 LINE",
"250 0 LINE",
"471 489 LINE",
"426 489 LINE",
"472 0 LINE",
"592 0 LINE",
"860 551 LINE",
"748 551 LINE",
"525 36 LINE",
"563 36 LINE",
"522 551 LINE",
"403 551 LINE",
"177 36 LINE",
"215 36 LINE",
"171 551 LINE",
"55 551 LINE"
);
}
);
width = 825;
},
{
associatedMasterId = "15935870-0A58-425A-9765-D144975D2C89";
layerId = "92650B71-5415-4FA9-96B2-AECC8385FA71";
name = "12 avr. 22 à 17:09";
paths = (
{
closed = 1;
nodes = (
"82 0 LINE",
"332 0 LINE",
"496 409 LINE",
"456 409 LINE",
"472 0 LINE",
"722 0 LINE",
"956 564 LINE",
"751 564 LINE",
"596 72 LINE",
"648 72 LINE",
"626 564 LINE",
"389 564 LINE",
"198 72 LINE",
"250 72 LINE",
"269 564 LINE",
"49 564 LINE"
);
}
);
visible = 1;
width = 903;
}
);
leftKerningGroup = w;
leftMetricsKey = v;
rightKerningGroup = w;
rightMetricsKey = v;
unicode = 0077;
userData = {
com.schriftgestaltung.Glyphs.ColorIndex = 4;
com.typemytype.robofont.layerData = {
b = {
anchors = (
);
components = (
);
contours = (
{
points = (
{
segmentType = line;
smooth = 0;
x = 211;
y = 0;
},
{
segmentType = line;
smooth = 0;
x = 225;
y = 0;
},
{
segmentType = line;
smooth = 0;
x = 405;
y = 569;
},
{
segmentType = line;
smooth = 0;
x = 373;
y = 569;
},
{
segmentType = line;
smooth = 0;
x = 555;
y = 0;
},
{
segmentType = line;
smooth = 0;
x = 569;
y = 0;
},
{
segmentType = line;
smooth = 0;
x = 747;
y = 540;
},
{
segmentType = line;
smooth = 0;
x = 716;
y = 540;
},
{
segmentType = line;
smooth = 0;
x = 552;
y = 32;
},
{
segmentType = line;
smooth = 0;
x = 560;
y = 32;
},
{
segmentType = line;
smooth = 0;
x = 401;
y = 540;
},
{
segmentType = line;
smooth = 0;
x = 386;
y = 540;
},
{
segmentType = line;
smooth = 0;
x = 214;
y = 32;
},
{
segmentType = line;
smooth = 0;
x = 222;
y = 32;
},
{
segmentType = line;
smooth = 0;
x = 56;
y = 540;
},
{
segmentType = line;
smooth = 0;
x = 30;
y = 540;
}
);
}
);
lib = {
};
name = w;
unicodes = (
);
width = 803;
};
};
com.typesupply.AccentFactory.yCoordinates = {
bottom = {
name = origin;
type = glyphMetric;
};
top = {
name = xHeight;
type = fontInfo;
};
};
};
},
{
glyphname = x;
lastChange = "2022-02-17 13:53:55 +0000";
layers = (
{
layerId = "ED744E86-D388-498D-94EB-FEBBBDC8F1CA";
paths = (
{
closed = 1;
nodes = (
"320 0 LINE",
"438 0 LINE",
"178 551 LINE",
"60 551 LINE"
);
},
{
closed = 1;
nodes = (
"222 313 LINE",
"-39 0 LINE",
"85 0 LINE",
"260 225 LINE"
);
},
{
closed = 1;
nodes = (
"278 239 LINE",
"537 551 LINE",
"414 551 LINE",
"240 327 LINE"
);
}
);
width = 498;
},
{
layerId = "15935870-0A58-425A-9765-D144975D2C89";
paths = (
{
closed = 1;
nodes = (
"370 0 LINE",
"618 0 LINE",
"298 564 LINE",
"50 564 LINE"
);
},
{
closed = 1;
nodes = (
"265 375 LINE",
"-40 0 LINE",
"204 0 LINE",
"361 213 LINE"
);
},
{
closed = 1;
nodes = (
"407 209 LINE",
"709 564 LINE",
"465 564 LINE",
"322 371 LINE"
);
}
);
width = 668;
}
);
leftKerningGroup = x;
rightKerningGroup = x;
unicode = 0078;
userData = {
com.schriftgestaltung.Glyphs.ColorIndex = 4;
com.typesupply.AccentFactory.yCoordinates = {
bottom = {
name = origin;
type = glyphMetric;
};
top = {
name = xHeight;
type = fontInfo;
};
};
};
},
{
glyphname = y;
lastChange = "2022-04-15 09:33:02 +0000";
layers = (
{
anchors = (
{
name = top;
position = "{327, 551}";
}
);
layerId = "ED744E86-D388-498D-94EB-FEBBBDC8F1CA";
paths = (
{
closed = 1;
nodes = (
"168 9 LINE",
"9 -259 LINE",
"127 -259 LINE",
"607 551 LINE",
"489 551 LINE",
"254 131 LINE",
"173 551 LINE",
"46 551 LINE"
);
}
);
width = 563;
},
{
anchors = (
{
name = top;
position = "{389, 564}";
}
);
layerId = "15935870-0A58-425A-9765-D144975D2C89";
paths = (
{
closed = 1;
nodes = (
"180 28 LINE",
"-14 -270 LINE",
"229 -270 LINE",
"737 564 LINE",
"492 564 LINE",
"342 278 LINE",
"287 564 LINE",
"40 564 LINE"
);
}
);
width = 692;
}
);
leftKerningGroup = y;
rightKerningGroup = y;
rightMetricsKey = v;
unicode = 0079;
userData = {
com.schriftgestaltung.Glyphs.ColorIndex = 4;
com.typesupply.AccentFactory.yCoordinates = {
top = {
name = xHeight;
type = fontInfo;
};
};
};
},
{
glyphname = z;
lastChange = "2022-04-15 09:31:01 +0000";
layers = (
{
anchors = (
{
name = top;
position = "{281, 551}";
}
);
layerId = "ED744E86-D388-498D-94EB-FEBBBDC8F1CA";
paths = (
{
closed = 1;
nodes = (
"471 551 LINE",
"89 551 LINE",
"73 458 LINE",
"324 458 LINE",
"9 93 LINE",
"-8 0 LINE",
"374 0 LINE",
"391 93 LINE",
"141 93 LINE",
"455 458 LINE"
);
}
);
width = 473;
},
{
anchors = (
{
name = top;
position = "{316, 564}";
}
);
layerId = "15935870-0A58-425A-9765-D144975D2C89";
paths = (
{
closed = 1;
nodes = (
"538 564 LINE",
"73 564 LINE",
"40 380 LINE",
"252 380 LINE",
"1 174 LINE",
"-30 0 LINE",
"448 0 LINE",
"481 184 LINE",
"246 184 LINE",
"507 390 LINE"
);
}
);
width = 518;
}
);
leftKerningGroup = z;
rightKerningGroup = z;
unicode = 007A;
userData = {
com.schriftgestaltung.Glyphs.ColorIndex = 4;
com.typesupply.AccentFactory.yCoordinates = {
bottom = {
name = origin;
type = glyphMetric;
};
top = {
name = xHeight;
type = fontInfo;
};
};
};
},
{
glyphname = a.ss02;
lastChange = "2022-04-14 09:43:24 +0000";
layers = (
{
anchors = (
{
name = ogonek;
position = "{551, 0}";
},
{
name = top;
position = "{384, 551}";
}
);
background = {
paths = (
{
closed = 1;
nodes = (
"37 278 CURVE SMOOTH",
"37 108 OFFCURVE",
"152 -9 OFFCURVE",
"295 -9 CURVE SMOOTH",
"387 -9 OFFCURVE",
"453 37 OFFCURVE",
"488 86 CURVE",
"488 0 LINE",
"603 0 LINE",
"603 551 LINE",
"488 551 LINE",
"488 467 LINE",
"454 514 OFFCURVE",
"390 560 OFFCURVE",
"297 560 CURVE SMOOTH",
"152 560 OFFCURVE",
"37 448 OFFCURVE"
);
},
{
closed = 1;
nodes = (
"488 276 CURVE SMOOTH",
"488 157 OFFCURVE",
"407 90 OFFCURVE",
"321 90 CURVE SMOOTH",
"236 90 OFFCURVE",
"154 159 OFFCURVE",
"154 278 CURVE SMOOTH",
"154 397 OFFCURVE",
"236 461 OFFCURVE",
"321 461 CURVE SMOOTH",
"407 461 OFFCURVE",
"488 394 OFFCURVE"
);
}
);
};
guideLines = (
{
position = "{351, 66}";
},
{
position = "{544, 446}";
}
);
layerId = "ED744E86-D388-498D-94EB-FEBBBDC8F1CA";
paths = (
{
closed = 1;
nodes = (
"34 278 CURVE SMOOTH",
"4 108 OFFCURVE",
"99 -9 OFFCURVE",
"242 -9 CURVE SMOOTH",
"334 -9 OFFCURVE",
"408 35 OFFCURVE",
"451 82 CURVE",
"436 0 LINE",
"551 0 LINE",
"648 551 LINE",
"533 551 LINE",
"519 471 LINE",
"493 516 OFFCURVE",
"437 560 OFFCURVE",
"344 560 CURVE SMOOTH",
"199 560 OFFCURVE",
"64 448 OFFCURVE"
);
},
{
closed = 1;
nodes = (
"485 276 CURVE SMOOTH",
"464 157 OFFCURVE",
"371 90 OFFCURVE",
"285 90 CURVE SMOOTH",
"200 90 OFFCURVE",
"130 159 OFFCURVE",
"151 278 CURVE SMOOTH",
"172 397 OFFCURVE",
"266 461 OFFCURVE",
"351 461 CURVE SMOOTH",
"437 461 OFFCURVE",
"506 394 OFFCURVE"
);
}
);
width = 678;
},
{
anchors = (
{
name = ogonek;
position = "{580, 0}";
},
{
name = top;
position = "{397, 564}";
}
);
layerId = "15935870-0A58-425A-9765-D144975D2C89";
paths = (
{
closed = 1;
nodes = (
"20 282 CURVE",
"-12 100 OFFCURVE",
"72 -7 OFFCURVE",
"202 -7 CURVE",
"277 -7 OFFCURVE",
"337 26 OFFCURVE",
"373 77 CURVE",
"359 0 LINE",
"580 0 LINE",
"680 564 LINE",
"459 564 LINE",
"445 487 LINE",
"427 538 OFFCURVE",
"379 571 OFFCURVE",
"304 571 CURVE",
"174 571 OFFCURVE",
"52 464 OFFCURVE"
);
},
{
closed = 1;
nodes = (
"409 282 CURVE",
"398 220 OFFCURVE",
"356 187 OFFCURVE",
"310 187 CURVE",
"264 187 OFFCURVE",
"234 220 OFFCURVE",
"245 282 CURVE",
"256 344 OFFCURVE",
"298 377 OFFCURVE",
"344 377 CURVE",
"390 377 OFFCURVE",
"420 344 OFFCURVE"
);
}
);
width = 680;
}
);
leftKerningGroup = a.ss02;
rightKerningGroup = a.ss02;
userData = {
com.schriftgestaltung.Glyphs.ColorIndex = 4;
com.typemytype.robofont.guides = (
{
angle = 90;
isGlobal = 0;
magnetic = 5;
x = 306;
y = 501;
},
{
angle = 0;
isGlobal = 0;
magnetic = 5;
x = 88;
y = 270;
}
);
com.typesupply.AccentFactory.yCoordinates = {
bottom = {
name = origin;
type = glyphMetric;
};
top = {
name = xHeight;
type = fontInfo;
};
};
};
},
{
glyphname = ae.ss02;
lastChange = "2022-04-14 09:43:24 +0000";
layers = (
{
background = {
paths = (
{
closed = 1;
nodes = (
"596 237 LINE",
"1047 237 LINE",
"1050 256 OFFCURVE",
"1051 274 OFFCURVE",
"1051 291 CURVE SMOOTH",
"1051 447 OFFCURVE",
"945 560 OFFCURVE",
"792 560 CURVE SMOOTH",
"714 560 OFFCURVE",
"652 536 OFFCURVE",
"599 473 CURVE",
"599 551 LINE",
"489 551 LINE",
"489 473 LINE",
"444 532 OFFCURVE",
"381 560 OFFCURVE",
"303 560 CURVE SMOOTH",
"152 560 OFFCURVE",
"37 448 OFFCURVE",
"37 278 CURVE SMOOTH",
"37 108 OFFCURVE",
"152 -9 OFFCURVE",
"297 -9 CURVE SMOOTH",
"381 -9 OFFCURVE",
"448 32 OFFCURVE",
"489 83 CURVE",
"489 0 LINE",
"599 0 LINE",
"599 83 LINE",
"638 30 OFFCURVE",
"711 -9 OFFCURVE",
"792 -9 CURVE SMOOTH",
"920 -9 OFFCURVE",
"1005 68 OFFCURVE",
"1035 164 CURVE",
"911 164 LINE",
"894 120 OFFCURVE",
"848 87 OFFCURVE",
"777 87 CURVE SMOOTH",
"697 87 OFFCURVE",
"614 147 OFFCURVE",
"614 265 CURVE SMOOTH",
"614 290 LINE SMOOTH",
"614 394 OFFCURVE",
"691 464 OFFCURVE",
"779 464 CURVE SMOOTH",
"868 464 OFFCURVE",
"931 407 OFFCURVE",
"933 319 CURVE",
"596 319 LINE"
);
},
{
closed = 1;
nodes = (
"154 278 CURVE SMOOTH",
"154 397 OFFCURVE",
"236 461 OFFCURVE",
"321 461 CURVE SMOOTH",
"407 461 OFFCURVE",
"488 394 OFFCURVE",
"488 276 CURVE SMOOTH",
"488 157 OFFCURVE",
"407 90 OFFCURVE",
"321 90 CURVE SMOOTH",
"236 90 OFFCURVE",
"154 159 OFFCURVE"
);
}
);
};
guideLines = (
{
angle = 180;
position = "{908, 453}";
}
);
layerId = "ED744E86-D388-498D-94EB-FEBBBDC8F1CA";
paths = (
{
closed = 1;
nodes = (
"583 237 LINE",
"1034 237 LINE",
"1040 256 OFFCURVE",
"1045 274 OFFCURVE",
"1048 291 CURVE SMOOTH",
"1075 447 OFFCURVE",
"989 560 OFFCURVE",
"836 560 CURVE SMOOTH",
"758 560 OFFCURVE",
"692 536 OFFCURVE",
"628 473 CURVE",
"641 551 LINE",
"534 551 LINE",
"521 473 LINE",
"486 532 OFFCURVE",
"428 560 OFFCURVE",
"350 560 CURVE SMOOTH",
"199 560 OFFCURVE",
"64 448 OFFCURVE",
"34 278 CURVE SMOOTH",
"4 108 OFFCURVE",
"99 -9 OFFCURVE",
"244 -9 CURVE SMOOTH",
"328 -9 OFFCURVE",
"402 32 OFFCURVE",
"452 83 CURVE",
"437 0 LINE",
"544 0 LINE",
"559 83 LINE",
"588 30 OFFCURVE",
"654 -9 OFFCURVE",
"736 -9 CURVE SMOOTH",
"864 -9 OFFCURVE",
"962 68 OFFCURVE",
"1010 164 CURVE",
"886 164 LINE",
"860 120 OFFCURVE",
"809 87 OFFCURVE",
"733 87 CURVE SMOOTH",
"654 87 OFFCURVE",
"577 147 OFFCURVE",
"598 265 CURVE SMOOTH",
"602 290 LINE SMOOTH",
"621 394 OFFCURVE",
"709 464 OFFCURVE",
"800 464 CURVE SMOOTH",
"890 464 OFFCURVE",
"948 407 OFFCURVE",
"935 319 CURVE",
"598 319 LINE"
);
},
{
closed = 1;
nodes = (
"151 278 CURVE SMOOTH",
"172 397 OFFCURVE",
"266 461 OFFCURVE",
"351 461 CURVE SMOOTH",
"437 461 OFFCURVE",
"506 394 OFFCURVE",
"485 276 CURVE SMOOTH",
"464 157 OFFCURVE",
"371 90 OFFCURVE",
"285 90 CURVE SMOOTH",
"200 90 OFFCURVE",
"130 159 OFFCURVE"
);
}
);
width = 1085;
},
{
layerId = "15935870-0A58-425A-9765-D144975D2C89";
paths = (
{
closed = 1;
nodes = (
"597 243 LINE",
"1022 243 LINE",
"1028 257 OFFCURVE",
"1032 273 OFFCURVE",
"1035 287 CURVE",
"1066 464 OFFCURVE",
"986 571 OFFCURVE",
"847 571 CURVE",
"766 571 OFFCURVE",
"702 540 OFFCURVE",
"666 487 CURVE",
"680 564 LINE",
"459 564 LINE",
"445 487 LINE",
"427 538 OFFCURVE",
"379 571 OFFCURVE",
"304 571 CURVE",
"174 571 OFFCURVE",
"52 464 OFFCURVE",
"20 282 CURVE",
"-12 100 OFFCURVE",
"72 -7 OFFCURVE",
"202 -7 CURVE",
"277 -7 OFFCURVE",
"337 26 OFFCURVE",
"373 77 CURVE",
"359 0 LINE",
"580 0 LINE",
"594 77 LINE",
"613 25 OFFCURVE",
"664 -7 OFFCURVE",
"745 -7 CURVE",
"862 -7 OFFCURVE",
"963 83 OFFCURVE",
"1008 203 CURVE",
"773 203 LINE",
"759 181 OFFCURVE",
"736 167 OFFCURVE",
"697 167 CURVE",
"650 167 OFFCURVE",
"620 190 OFFCURVE",
"634 273 CURVE",
"640 304 LINE",
"653 378 OFFCURVE",
"698 397 OFFCURVE",
"744 397 CURVE",
"789 397 OFFCURVE",
"826 378 OFFCURVE",
"818 334 CURVE",
"617 334 LINE"
);
},
{
closed = 1;
nodes = (
"245 282 CURVE",
"256 344 OFFCURVE",
"298 377 OFFCURVE",
"344 377 CURVE",
"390 377 OFFCURVE",
"420 344 OFFCURVE",
"409 282 CURVE",
"398 220 OFFCURVE",
"356 187 OFFCURVE",
"310 187 CURVE",
"264 187 OFFCURVE",
"234 220 OFFCURVE"
);
}
);
width = 1054;
}
);
leftKerningGroup = ae.ss02;
rightKerningGroup = ae.ss02;
userData = {
com.schriftgestaltung.Glyphs.ColorIndex = 4;
com.typemytype.robofont.layerData = {
b = {
anchors = (
);
components = (
);
contours = (
{
points = (
{
segmentType = line;
smooth = 0;
x = 547;
y = 261;
},
{
segmentType = line;
smooth = 0;
x = 1043;
y = 261;
},
{
smooth = 0;
x = 1046;
y = 280;
},
{
smooth = 0;
x = 1047;
y = 298;
},
{
segmentType = curve;
smooth = 1;
x = 1047;
y = 315;
},
{
smooth = 0;
x = 1047;
y = 439;
},
{
smooth = 0;
x = 956;
y = 552;
},
{
segmentType = curve;
smooth = 1;
x = 799;
y = 552;
},
{
smooth = 0;
x = 703;
y = 552;
},
{
smooth = 0;
x = 638;
y = 528;
},
{
segmentType = curve;
smooth = 0;
x = 582;
y = 437;
},
{
segmentType = line;
smooth = 0;
x = 582;
y = 540;
},
{
segmentType = line;
smooth = 0;
x = 562;
y = 540;
},
{
segmentType = line;
smooth = 0;
x = 562;
y = 437;
},
{
smooth = 0;
x = 508;
y = 528;
},
{
smooth = 0;
x = 432;
y = 552;
},
{
segmentType = curve;
smooth = 1;
x = 344;
y = 552;
},
{
smooth = 0;
x = 174;
y = 552;
},
{
smooth = 0;
x = 60;
y = 448;
},
{
segmentType = curve;
smooth = 1;
x = 60;
y = 278;
},
{
smooth = 0;
x = 60;
y = 108;
},
{
smooth = 0;
x = 174;
y = -12;
},
{
segmentType = curve;
smooth = 1;
x = 329;
y = -12;
},
{
smooth = 0;
x = 432;
y = -12;
},
{
smooth = 0;
x = 521;
y = 41;
},
{
segmentType = curve;
smooth = 0;
x = 562;
y = 105;
},
{
segmentType = line;
smooth = 0;
x = 562;
y = 0;
},
{
segmentType = line;
smooth = 0;
x = 582;
y = 0;
},
{
segmentType = line;
smooth = 0;
x = 582;
y = 103;
},
{
smooth = 0;
x = 627;
y = 34;
},
{
smooth = 0;
x = 696;
y = -12;
},
{
segmentType = curve;
smooth = 1;
x = 780;
y = -12;
},
{
smooth = 0;
x = 924;
y = -12;
},
{
smooth = 0;
x = 995;
y = 66;
},
{
segmentType = curve;
smooth = 0;
x = 1027;
y = 137;
},
{
segmentType = line;
smooth = 0;
x = 1007;
y = 137;
},
{
smooth = 0;
x = 982;
y = 60;
},
{
smooth = 0;
x = 917;
y = -1;
},
{
segmentType = curve;
smooth = 1;
x = 807;
y = -1;
},
{
smooth = 0;
x = 667;
y = -1;
},
{
smooth = 0;
x = 561;
y = 118;
},
{
segmentType = curve;
smooth = 1;
x = 561;
y = 274;
},
{
segmentType = line;
smooth = 1;
x = 561;
y = 259;
},
{
smooth = 0;
x = 561;
y = 432;
},
{
smooth = 0;
x = 674;
y = 541;
},
{
segmentType = curve;
smooth = 1;
x = 804;
y = 541;
},
{
smooth = 0;
x = 933;
y = 541;
},
{
smooth = 0;
x = 1030;
y = 448;
},
{
segmentType = curve;
smooth = 0;
x = 1027;
y = 290;
},
{
segmentType = line;
smooth = 0;
x = 552;
y = 290;
}
);
},
{
points = (
{
segmentType = curve;
smooth = 1;
x = 81;
y = 278;
},
{
smooth = 0;
x = 81;
y = 438;
},
{
smooth = 0;
x = 192;
y = 536;
},
{
segmentType = curve;
smooth = 1;
x = 323;
y = 536;
},
{
smooth = 0;
x = 456;
y = 536;
},
{
smooth = 0;
x = 567;
y = 430;
},
{
segmentType = curve;
smooth = 1;
x = 567;
y = 270;
},
{
smooth = 0;
x = 567;
y = 110;
},
{
smooth = 0;
x = 456;
y = 5;
},
{
segmentType = curve;
smooth = 1;
x = 323;
y = 5;
},
{
smooth = 0;
x = 192;
y = 5;
},
{
smooth = 0;
x = 81;
y = 118;
}
);
}
);
lib = {
};
name = ae;
unicodes = (
);
width = 1135;
};
};
com.typesupply.AccentFactory.yCoordinates = {
bottom = {
name = origin;
type = glyphMetric;
};
top = {
name = xHeight;
type = fontInfo;
};
};
};
},
{
color = 8;
glyphname = e.ss07;
lastChange = "2022-04-14 10:33:58 +0000";
layers = (
{
anchors = (
{
name = bottom;
position = "{258, 0}";
},
{
name = ogonek;
position = "{370, 14}";
},
{
name = top;
position = "{355, 551}";
}
);
layerId = "ED744E86-D388-498D-94EB-FEBBBDC8F1CA";
paths = (
{
closed = 1;
nodes = (
"146 237 LINE",
"567 237 LINE",
"573 256 OFFCURVE",
"578 274 OFFCURVE",
"581 291 CURVE SMOOTH",
"609 451 OFFCURVE",
"517 560 OFFCURVE",
"360 560 CURVE SMOOTH",
"197 560 OFFCURVE",
"66 449 OFFCURVE",
"35 276 CURVE SMOOTH",
"4 103 OFFCURVE",
"102 -9 OFFCURVE",
"260 -9 CURVE SMOOTH",
"395 -9 OFFCURVE",
"495 68 OFFCURVE",
"543 164 CURVE",
"420 164 LINE",
"392 121 OFFCURVE",
"347 87 OFFCURVE",
"277 87 CURVE SMOOTH",
"188 87 OFFCURVE",
"132 150 OFFCURVE",
"148 251 CURVE SMOOTH",
"155 295 LINE SMOOTH",
"172 400 OFFCURVE",
"252 464 OFFCURVE",
"338 464 CURVE SMOOTH",
"423 464 OFFCURVE",
"481 410 OFFCURVE",
"467 319 CURVE",
"225 319 LINE"
);
}
);
width = 608;
},
{
anchors = (
{
name = bottom;
position = "{257, -7}";
},
{
name = ogonek;
position = "{355, 8}";
},
{
name = top;
position = "{372, 564}";
}
);
guideLines = (
{
position = "{612, -221}";
}
);
layerId = "15935870-0A58-425A-9765-D144975D2C89";
paths = (
{
closed = 1;
nodes = (
"230 243 LINE",
"586 243 LINE",
"591 257 OFFCURVE",
"594 273 OFFCURVE",
"597 287 CURVE",
"628 464 OFFCURVE",
"528 571 OFFCURVE",
"359 571 CURVE",
"190 571 OFFCURVE",
"52 462 OFFCURVE",
"20 282 CURVE",
"-12 102 OFFCURVE",
"88 -7 OFFCURVE",
"257 -7 CURVE SMOOTH",
"399 -7 OFFCURVE",
"525 83 OFFCURVE",
"570 203 CURVE",
"335 203 LINE",
"324 186 OFFCURVE",
"306 170 OFFCURVE",
"277 170 CURVE SMOOTH",
"244 170 OFFCURVE",
"220 189 OFFCURVE",
"232 258 CURVE SMOOTH",
"241 311 LINE SMOOTH",
"251 370 OFFCURVE",
"283 397 OFFCURVE",
"328 397 CURVE",
"361 397 OFFCURVE",
"388 379 OFFCURVE",
"380 334 CURVE",
"302 334 LINE"
);
}
);
width = 614;
}
);
leftKerningGroup = o;
leftMetricsKey = e;
rightKerningGroup = e;
rightMetricsKey = e;
userData = {
com.schriftgestaltung.Glyphs.ColorIndex = 4;
com.typemytype.robofont.layerData = {
b = {
anchors = (
{
name = top;
x = 314;
y = 540;
},
{
name = ogonek;
x = 442;
y = 45;
},
{
name = bottom;
x = 314;
y = 0;
}
);
components = (
);
contours = (
{
points = (
{
segmentType = line;
smooth = 0;
x = 54;
y = 261;
},
{
segmentType = line;
smooth = 0;
x = 564;
y = 261;
},
{
smooth = 0;
x = 567;
y = 280;
},
{
smooth = 0;
x = 568;
y = 298;
},
{
segmentType = curve;
smooth = 1;
x = 568;
y = 315;
},
{
smooth = 0;
x = 568;
y = 434;
},
{
smooth = 0;
x = 482;
y = 552;
},
{
segmentType = curve;
smooth = 1;
x = 330;
y = 552;
},
{
smooth = 0;
x = 164;
y = 552;
},
{
smooth = 0;
x = 60;
y = 438;
},
{
segmentType = curve;
smooth = 1;
x = 60;
y = 270;
},
{
smooth = 0;
x = 60;
y = 103;
},
{
smooth = 0;
x = 164;
y = -12;
},
{
segmentType = curve;
smooth = 1;
x = 316;
y = -12;
},
{
smooth = 0;
x = 451;
y = -12;
},
{
smooth = 0;
x = 516;
y = 66;
},
{
segmentType = curve;
smooth = 0;
x = 548;
y = 137;
},
{
segmentType = line;
smooth = 0;
x = 528;
y = 137;
},
{
smooth = 0;
x = 505;
y = 60;
},
{
smooth = 0;
x = 424;
y = -1;
},
{
segmentType = curve;
smooth = 1;
x = 316;
y = -1;
},
{
smooth = 0;
x = 186;
y = -1;
},
{
smooth = 0;
x = 81;
y = 93;
},
{
segmentType = curve;
smooth = 1;
x = 81;
y = 269;
},
{
segmentType = line;
smooth = 1;
x = 81;
y = 274;
},
{
smooth = 0;
x = 81;
y = 447;
},
{
smooth = 0;
x = 183;
y = 541;
},
{
segmentType = curve;
smooth = 1;
x = 316;
y = 541;
},
{
smooth = 0;
x = 448;
y = 541;
},
{
smooth = 0;
x = 551;
y = 448;
},
{
segmentType = curve;
smooth = 0;
x = 549;
y = 290;
},
{
segmentType = line;
smooth = 0;
x = 53;
y = 290;
}
);
}
);
lib = {
};
name = e;
unicodes = (
);
width = 628;
};
};
com.typesupply.AccentFactory.yCoordinates = {
bottom = {
name = origin;
type = glyphMetric;
};
top = {
name = xHeight;
type = fontInfo;
};
};
};
},
{
color = 8;
glyphname = eogonek.ss07;
lastChange = "2022-04-14 10:33:58 +0000";
layers = (
{
background = {
paths = (
{
closed = 1;
nodes = (
"37 276 CURVE SMOOTH",
"37 113 OFFCURVE",
"137 4 OFFCURVE",
"281 -8 CURVE",
"279 -14 OFFCURVE",
"278 -22 OFFCURVE",
"278 -30 CURVE SMOOTH",
"278 -99 OFFCURVE",
"335 -139 OFFCURVE",
"406 -139 CURVE SMOOTH",
"512 -139 LINE",
"512 -67 LINE",
"428 -67 LINE SMOOTH",
"393 -67 OFFCURVE",
"372 -60 OFFCURVE",
"372 -30 CURVE SMOOTH",
"372 -9 OFFCURVE",
"387 0 OFFCURVE",
"414 10 CURVE SMOOTH",
"481 35 OFFCURVE",
"537 90 OFFCURVE",
"561 164 CURVE",
"438 164 LINE",
"417 121 OFFCURVE",
"377 87 OFFCURVE",
"307 87 CURVE SMOOTH",
"218 87 OFFCURVE",
"154 150 OFFCURVE",
"154 251 CURVE SMOOTH",
"154 295 LINE SMOOTH",
"154 400 OFFCURVE",
"221 464 OFFCURVE",
"307 464 CURVE SMOOTH",
"392 464 OFFCURVE",
"459 407 OFFCURVE",
"461 315 CURVE",
"143 315 LINE",
"142 237 LINE",
"576 237 LINE",
"579 256 OFFCURVE",
"580 274 OFFCURVE",
"580 291 CURVE SMOOTH",
"580 451 OFFCURVE",
"469 560 OFFCURVE",
"312 560 CURVE SMOOTH",
"149 560 OFFCURVE",
"37 449 OFFCURVE"
);
}
);
};
components = (
{
name = e.ss07;
},
{
name = ogonek;
transform = "{1, 0, 0, 1, 213, 14}";
}
);
layerId = "ED744E86-D388-498D-94EB-FEBBBDC8F1CA";
width = 608;
},
{
background = {
paths = (
{
closed = 1;
nodes = (
"20 282 CURVE",
"20 135 OFFCURVE",
"99 36 OFFCURVE",
"220 4 CURVE",
"220 -6 OFFCURVE",
"220 -17 OFFCURVE",
"220 -27 CURVE",
"220 -122 OFFCURVE",
"303 -149 OFFCURVE",
"370 -149 CURVE",
"528 -149 LINE",
"528 -36 LINE",
"403 -36 LINE",
"377 -36 OFFCURVE",
"367 -29 OFFCURVE",
"367 -17 CURVE",
"367 -5 OFFCURVE",
"376 0 OFFCURVE",
"388 3 CURVE SMOOTH",
"491 29 OFFCURVE",
"564 107 OFFCURVE",
"584 203 CURVE",
"349 203 LINE",
"341 186 OFFCURVE",
"327 170 OFFCURVE",
"298 170 CURVE SMOOTH",
"268 170 OFFCURVE",
"236 188 OFFCURVE",
"236 258 CURVE SMOOTH",
"236 311 LINE SMOOTH",
"236 370 OFFCURVE",
"263 397 OFFCURVE",
"308 397 CURVE",
"341 397 OFFCURVE",
"371 379 OFFCURVE",
"371 334 CURVE",
"216 334 LINE",
"216 243 LINE",
"591 243 LINE",
"594 257 OFFCURVE",
"596 273 OFFCURVE",
"596 287 CURVE",
"596 464 OFFCURVE",
"477 571 OFFCURVE",
"308 571 CURVE",
"139 571 OFFCURVE",
"20 462 OFFCURVE"
);
}
);
};
components = (
{
name = e.ss07;
},
{
name = ogonek;
transform = "{1, 0, 0, 1, 113, 8}";
}
);
layerId = "15935870-0A58-425A-9765-D144975D2C89";
width = 614;
}
);
leftKerningGroup = o;
leftMetricsKey = e;
rightKerningGroup = e;
rightMetricsKey = e;
userData = {
com.schriftgestaltung.Glyphs.ColorIndex = 8;
};
},
{
color = 8;
glyphname = f.ss07;
lastChange = "2022-04-14 13:59:24 +0000";
layers = (
{
guideLines = (
{
angle = 261;
position = "{401, 630}";
}
);
layerId = "ED744E86-D388-498D-94EB-FEBBBDC8F1CA";
paths = (
{
closed = 1;
nodes = (
"42 0 LINE",
"157 0 LINE",
"261 590 LINE SMOOTH",
"272 653 OFFCURVE",
"301 677 OFFCURVE",
"371 677 CURVE SMOOTH",
"408 677 LINE",
"424 772 LINE",
"387 772 LINE SMOOTH",
"243 772 OFFCURVE",
"168 717 OFFCURVE",
"146 590 CURVE SMOOTH"
);
},
{
closed = 1;
nodes = (
"187 551 LINE",
"74 551 LINE",
"58 458 LINE",
"168 458 LINE"
);
},
{
closed = 1;
nodes = (
"238 458 LINE",
"373 458 LINE",
"389 551 LINE",
"327 551 LINE"
);
}
);
width = 366;
},
{
guideLines = (
{
angle = 80.2797;
position = "{493, 539}";
}
);
layerId = "15935870-0A58-425A-9765-D144975D2C89";
paths = (
{
closed = 1;
nodes = (
"20 0 LINE",
"242 0 LINE",
"337 539 LINE SMOOTH",
"347 595 OFFCURVE",
"372 604 OFFCURVE",
"432 604 CURVE SMOOTH",
"503 604 LINE",
"537 793 LINE",
"465 793 LINE SMOOTH",
"274 793 OFFCURVE",
"148 722 OFFCURVE",
"119 559 CURVE SMOOTH"
);
},
{
closed = 1;
nodes = (
"236 564 LINE",
"60 564 LINE",
"27 379 LINE",
"178 379 LINE"
);
},
{
closed = 1;
nodes = (
"309 379 LINE",
"465 379 LINE",
"498 564 LINE",
"456 564 LINE"
);
}
);
width = 463;
}
);
leftKerningGroup = f;
leftMetricsKey = f;
rightKerningGroup = f;
rightMetricsKey = f;
userData = {
com.schriftgestaltung.Glyphs.ColorIndex = 4;
com.typemytype.robofont.layerData = {
b = {
anchors = (
);
components = (
);
contours = (
{
points = (
{
segmentType = line;
smooth = 0;
x = 108;
y = 0;
},
{
segmentType = line;
smooth = 0;
x = 128;
y = 0;
},
{
segmentType = line;
smooth = 1;
x = 128;
y = 609;
},
{
smooth = 0;
x = 128;
y = 701;
},
{
smooth = 0;
x = 162;
y = 742;
},
{
segmentType = curve;
smooth = 0;
x = 275;
y = 742;
},
{
segmentType = line;
smooth = 0;
x = 275;
y = 753;
},
{
smooth = 0;
x = 158;
y = 753;
},
{
smooth = 0;
x = 108;
y = 711;
},
{
segmentType = curve;
smooth = 1;
x = 108;
y = 609;
}
);
}
);
lib = {
};
name = f;
unicodes = (
);
width = 318;
};
};
com.typesupply.AccentFactory.yCoordinates = {
bottom = {
name = origin;
type = glyphMetric;
};
top = {
name = ascender;
type = fontInfo;
};
};
};
},
{
color = 8;
glyphname = r.ss07;
lastChange = "2022-04-14 10:35:10 +0000";
layers = (
{
anchors = (
{
name = bottom;
position = "{79, 0}";
},
{
name = top;
position = "{285, 551}";
}
);
layerId = "ED744E86-D388-498D-94EB-FEBBBDC8F1CA";
paths = (
{
closed = 1;
nodes = (
"22 0 LINE",
"136 0 LINE",
"233 551 LINE",
"119 551 LINE"
);
},
{
closed = 1;
nodes = (
"217 458 LINE",
"402 458 LINE",
"418 551 LINE",
"306 551 LINE"
);
}
);
width = 390;
},
{
anchors = (
{
name = bottom;
position = "{105, 0}";
},
{
name = top;
position = "{325, 564}";
}
);
layerId = "15935870-0A58-425A-9765-D144975D2C89";
paths = (
{
closed = 1;
nodes = (
"0 0 LINE",
"222 0 LINE",
"322 564 LINE",
"100 564 LINE"
);
},
{
closed = 1;
nodes = (
"289 379 LINE",
"475 379 LINE",
"508 564 LINE",
"436 564 LINE"
);
}
);
width = 468;
}
);
leftKerningGroup = n;
leftMetricsKey = r;
rightKerningGroup = r.ss07;
userData = {
com.schriftgestaltung.Glyphs.ColorIndex = 4;
com.typesupply.AccentFactory.yCoordinates = {
bottom = {
name = origin;
type = glyphMetric;
};
top = {
name = xHeight;
type = fontInfo;
};
};
};
},
{
color = 8;
glyphname = y.ss07;
lastChange = "2022-04-14 13:59:24 +0000";
layers = (
{
anchors = (
{
name = top;
position = "{289, 551}";
}
);
layerId = "ED744E86-D388-498D-94EB-FEBBBDC8F1CA";
paths = (
{
closed = 1;
nodes = (
"187 0 LINE",
"168 551 LINE",
"49 551 LINE",
"76 0 LINE"
);
},
{
closed = 1;
nodes = (
"48 -259 LINE",
"173 -259 LINE",
"609 551 LINE",
"484 551 LINE"
);
}
);
width = 565;
},
{
anchors = (
{
name = top;
position = "{347, 564}";
}
);
layerId = "15935870-0A58-425A-9765-D144975D2C89";
paths = (
{
closed = 1;
nodes = (
"227 0 LINE",
"266 564 LINE",
"50 564 LINE",
"12 0 LINE"
);
},
{
closed = 1;
nodes = (
"110 -270 LINE",
"340 -270 LINE",
"701 564 LINE",
"471 564 LINE"
);
}
);
width = 656;
},
{
anchors = (
{
name = top;
position = "{336, 551}";
}
);
associatedMasterId = "ED744E86-D388-498D-94EB-FEBBBDC8F1CA";
layerId = "853568AA-DE7C-4D04-B83C-C60FF9AD86DF";
name = "12 avr. 22 à 17:51";
paths = (
{
closed = 1;
nodes = (
"177 9 LINE",
"18 -259 LINE",
"136 -259 LINE",
"616 551 LINE",
"498 551 LINE",
"263 131 LINE",
"182 551 LINE",
"55 551 LINE"
);
}
);
width = 582;
},
{
anchors = (
{
name = top;
position = "{389, 564}";
}
);
associatedMasterId = "15935870-0A58-425A-9765-D144975D2C89";
layerId = "3712ED36-45E3-4E89-927A-8FCF979C6150";
name = "12 avr. 22 à 17:54";
paths = (
{
closed = 1;
nodes = (
"180 28 LINE",
"-14 -270 LINE",
"229 -270 LINE",
"737 564 LINE",
"492 564 LINE",
"342 278 LINE",
"287 564 LINE",
"40 564 LINE"
);
}
);
visible = 1;
width = 677;
}
);
leftKerningGroup = y;
leftMetricsKey = v;
rightKerningGroup = y;
rightMetricsKey = v;
userData = {
com.schriftgestaltung.Glyphs.ColorIndex = 4;
com.typesupply.AccentFactory.yCoordinates = {
top = {
name = xHeight;
type = fontInfo;
};
};
};
},
{
glyphname = f_f;
lastChange = "2022-04-14 10:33:10 +0000";
layers = (
{
components = (
{
name = f;
},
{
name = f;
transform = "{1, 0, 0, 1, 332, 0}";
}
);
layerId = "ED744E86-D388-498D-94EB-FEBBBDC8F1CA";
paths = (
{
closed = 1;
nodes = (
"302 458 LINE",
"430 458 LINE",
"430 551 LINE",
"302 551 LINE"
);
}
);
width = 665;
},
{
components = (
{
name = f;
},
{
name = f;
transform = "{1, 0, 0, 1, 385, 0}";
}
);
layerId = "15935870-0A58-425A-9765-D144975D2C89";
paths = (
{
closed = 1;
nodes = (
"355 379 LINE",
"483 379 LINE",
"483 564 LINE",
"355 564 LINE"
);
}
);
width = 775;
}
);
leftKerningGroup = f;
leftMetricsKey = f;
rightKerningGroup = f;
rightMetricsKey = f;
},
{
color = 8;
glyphname = f_f.ss07;
lastChange = "2022-04-14 13:59:24 +0000";
layers = (
{
components = (
{
name = f.ss07;
},
{
name = f.ss07;
transform = "{1, 0, 0, 1, 341, 0}";
}
);
layerId = "ED744E86-D388-498D-94EB-FEBBBDC8F1CA";
paths = (
{
closed = 1;
nodes = (
"322 458 LINE",
"450 458 LINE",
"470 551 LINE",
"342 551 LINE"
);
}
);
width = 707;
},
{
components = (
{
name = f.ss07;
},
{
name = f.ss07;
transform = "{1, 0, 0, 1, 448, 0}";
}
);
layerId = "15935870-0A58-425A-9765-D144975D2C89";
paths = (
{
closed = 1;
nodes = (
"437 379 LINE",
"565 379 LINE",
"595 564 LINE",
"467 564 LINE"
);
}
);
width = 911;
}
);
leftKerningGroup = f;
leftMetricsKey = f;
rightKerningGroup = f;
rightMetricsKey = f;
},
{
glyphname = ordfeminine;
lastChange = "2022-04-14 09:43:24 +0000";
layers = (
{
layerId = "ED744E86-D388-498D-94EB-FEBBBDC8F1CA";
paths = (
{
closed = 1;
nodes = (
"73 530 CURVE SMOOTH",
"54 424 OFFCURVE",
"116 347 OFFCURVE",
"209 347 CURVE SMOOTH",
"271 347 OFFCURVE",
"319 376 OFFCURVE",
"346 414 CURVE",
"336 353 LINE",
"425 353 LINE",
"486 703 LINE",
"397 703 LINE",
"387 642 LINE",
"372 681 OFFCURVE",
"334 709 OFFCURVE",
"272 709 CURVE SMOOTH",
"179 709 OFFCURVE",
"91 636 OFFCURVE"
);
},
{
closed = 1;
nodes = (
"366 528 CURVE SMOOTH",
"354 456 OFFCURVE",
"299 416 OFFCURVE",
"246 416 CURVE SMOOTH",
"194 416 OFFCURVE",
"152 457 OFFCURVE",
"165 529 CURVE SMOOTH",
"177 601 OFFCURVE",
"233 640 OFFCURVE",
"285 640 CURVE SMOOTH",
"338 640 OFFCURVE",
"379 600 OFFCURVE"
);
}
);
width = 456;
},
{
layerId = "15935870-0A58-425A-9765-D144975D2C89";
paths = (
{
closed = 1;
nodes = (
"64 530 CURVE SMOOTH",
"43 412 OFFCURVE",
"105 350 OFFCURVE",
"198 350 CURVE SMOOTH",
"253 350 OFFCURVE",
"287 368 OFFCURVE",
"319 404 CURVE",
"310 355 LINE",
"474 355 LINE",
"536 708 LINE",
"372 708 LINE",
"363 658 LINE",
"345 694 OFFCURVE",
"315 712 OFFCURVE",
"260 712 CURVE SMOOTH",
"168 712 OFFCURVE",
"85 648 OFFCURVE"
);
},
{
closed = 1;
nodes = (
"341 532 CURVE SMOOTH",
"335 498 OFFCURVE",
"307 481 OFFCURVE",
"278 481 CURVE SMOOTH",
"249 481 OFFCURVE",
"227 495 OFFCURVE",
"233 529 CURVE SMOOTH",
"239 563 OFFCURVE",
"267 582 OFFCURVE",
"296 582 CURVE SMOOTH",
"325 582 OFFCURVE",
"347 565 OFFCURVE"
);
}
);
width = 481;
}
);
leftKerningGroup = ordfeminine;
rightKerningGroup = ordfeminine;
unicode = 00AA;
userData = {
com.schriftgestaltung.Glyphs.ColorIndex = 4;
};
},
{
glyphname = ordmasculine;
lastChange = "2022-04-14 09:43:24 +0000";
layers = (
{
layerId = "ED744E86-D388-498D-94EB-FEBBBDC8F1CA";
paths = (
{
closed = 1;
nodes = (
"72 528 CURVE SMOOTH",
"53 419 OFFCURVE",
"124 347 OFFCURVE",
"233 347 CURVE SMOOTH",
"341 347 OFFCURVE",
"435 419 OFFCURVE",
"454 528 CURVE SMOOTH",
"474 639 OFFCURVE",
"401 709 OFFCURVE",
"292 709 CURVE SMOOTH",
"184 709 OFFCURVE",
"92 639 OFFCURVE"
);
},
{
closed = 1;
nodes = (
"362 527 CURVE SMOOTH",
"349 452 OFFCURVE",
"295 414 OFFCURVE",
"244 414 CURVE SMOOTH",
"192 414 OFFCURVE",
"151 452 OFFCURVE",
"164 527 CURVE SMOOTH",
"178 605 OFFCURVE",
"230 643 OFFCURVE",
"281 643 CURVE SMOOTH",
"332 643 OFFCURVE",
"376 605 OFFCURVE"
);
}
);
width = 444;
},
{
layerId = "15935870-0A58-425A-9765-D144975D2C89";
paths = (
{
closed = 1;
nodes = (
"64 529 CURVE SMOOTH",
"46 427 OFFCURVE",
"113 347 OFFCURVE",
"246 347 CURVE",
"380 347 OFFCURVE",
"476 427 OFFCURVE",
"494 529 CURVE SMOOTH",
"512 632 OFFCURVE",
"444 709 OFFCURVE",
"310 709 CURVE",
"177 709 OFFCURVE",
"82 632 OFFCURVE"
);
},
{
closed = 1;
nodes = (
"327 529 CURVE SMOOTH",
"320 491 OFFCURVE",
"296 473 OFFCURVE",
"269 473 CURVE",
"242 473 OFFCURVE",
"224 491 OFFCURVE",
"231 529 CURVE SMOOTH",
"237 567 OFFCURVE",
"261 584 OFFCURVE",
"288 584 CURVE",
"315 584 OFFCURVE",
"333 567 OFFCURVE"
);
}
);
width = 470;
}
);
leftKerningGroup = ordmasculine;
rightKerningGroup = ordmasculine;
unicode = 00BA;
userData = {
com.schriftgestaltung.Glyphs.ColorIndex = 4;
};
},
{
glyphname = pi;
lastChange = "2022-04-14 09:43:24 +0000";
layers = (
{
layerId = "ED744E86-D388-498D-94EB-FEBBBDC8F1CA";
paths = (
{
closed = 1;
nodes = (
"61 462 LINE",
"137 462 LINE",
"55 0 LINE",
"169 0 LINE",
"251 462 LINE",
"510 462 LINE",
"428 0 LINE",
"541 0 LINE",
"623 462 LINE",
"700 462 LINE",
"715 551 LINE",
"76 551 LINE"
);
}
);
width = 706;
},
{
layerId = "15935870-0A58-425A-9765-D144975D2C89";
paths = (
{
closed = 1;
nodes = (
"30 398 LINE",
"95 398 LINE",
"25 0 LINE",
"247 0 LINE",
"317 398 LINE",
"436 398 LINE",
"366 0 LINE",
"588 0 LINE",
"658 398 LINE",
"723 398 LINE",
"753 564 LINE",
"60 564 LINE"
);
}
);
width = 708;
}
);
leftKerningGroup = pi;
rightKerningGroup = pi;
unicode = 03C0;
userData = {
com.schriftgestaltung.Glyphs.ColorIndex = 8;
};
},
{
glyphname = zero;
lastChange = "2022-04-15 09:39:58 +0000";
layers = (
{
layerId = "ED744E86-D388-498D-94EB-FEBBBDC8F1CA";
paths = (
{
closed = 1;
nodes = (
"109 569 OFFCURVE",
"73 366 CURVE",
"37 162 OFFCURVE",
"65 2 OFFCURVE",
"269 2 CURVE SMOOTH",
"473 2 OFFCURVE",
"557 162 OFFCURVE",
"593 366 CURVE",
"629 569 OFFCURVE",
"601 729 OFFCURVE",
"397 729 CURVE SMOOTH",
"193 729 OFFCURVE"
);
},
{
closed = 1;
nodes = (
"504 500 OFFCURVE",
"481 366 CURVE",
"457 231 OFFCURVE",
"420 106 OFFCURVE",
"287 106 CURVE SMOOTH",
"154 106 OFFCURVE",
"161 231 OFFCURVE",
"185 366 CURVE SMOOTH",
"208 500 OFFCURVE",
"246 625 OFFCURVE",
"379 625 CURVE SMOOTH",
"512 625 OFFCURVE"
);
}
);
width = 641;
},
{
layerId = "15935870-0A58-425A-9765-D144975D2C89";
paths = (
{
closed = 1;
nodes = (
"83 569 OFFCURVE",
"46 363 CURVE",
"10 156 OFFCURVE",
"71 4 OFFCURVE",
"283 4 CURVE SMOOTH",
"494 4 OFFCURVE",
"610 156 OFFCURVE",
"646 363 CURVE",
"683 569 OFFCURVE",
"620 721 OFFCURVE",
"409 721 CURVE SMOOTH",
"197 721 OFFCURVE"
);
},
{
closed = 1;
nodes = (
"441 441 OFFCURVE",
"427 363 CURVE",
"413 284 OFFCURVE",
"392 214 OFFCURVE",
"320 214 CURVE SMOOTH",
"247 214 OFFCURVE",
"250 284 OFFCURVE",
"264 363 CURVE SMOOTH",
"278 441 OFFCURVE",
"299 511 OFFCURVE",
"372 511 CURVE",
"444 511 OFFCURVE"
);
}
);
width = 662;
}
);
leftKerningGroup = zero;
rightKerningGroup = zero;
unicode = 0030;
userData = {
com.schriftgestaltung.Glyphs.ColorIndex = 3;
};
},
{
glyphname = one;
lastChange = "2022-04-14 09:43:24 +0000";
layers = (
{
layerId = "ED744E86-D388-498D-94EB-FEBBBDC8F1CA";
paths = (
{
closed = 1;
nodes = (
"86 0 LINE",
"201 0 LINE",
"327 710 LINE",
"119 710 LINE",
"100 606 LINE",
"193 606 LINE"
);
}
);
width = 350;
},
{
layerId = "15935870-0A58-425A-9765-D144975D2C89";
paths = (
{
closed = 1;
nodes = (
"66 0 LINE",
"299 0 LINE",
"424 708 LINE",
"85 708 LINE",
"48 500 LINE",
"154 500 LINE"
);
}
);
width = 399;
}
);
leftKerningGroup = one;
rightKerningGroup = one;
unicode = 0031;
userData = {
com.schriftgestaltung.Glyphs.ColorIndex = 3;
};
},
